<svg width="168" height="44" fill="none" xmlns="http://www.w3.org/2000/svg">
    <path d="M152.971 18.99v10.214c0 2.094 1.619 3.532 3.769 3.532 2.185 0 3.769-1.776 3.769-3.532 0-1.734-1.515-3.53-3.769-3.53-.543 0-1.052.092-1.515.246-.208-.432-.924-2.002-1.052-2.3a7.721 7.721 0 0 1 2.567-.41c3.977 0 6.925 2.76 6.925 5.994 0 3.378-3.156 6.016-6.925 6.016-3.827 0-6.902-2.67-6.902-6.016V18.991h3.133ZM141.521 23.21c.543 0 1.029.04 1.491.133l.255.041c.081.02.185.041.254.072 2.844.729 4.925 3.028 4.925 5.769 0 .164-.023.318-.023.482-.046.452-.15.893-.312 1.304-1.156-.503-2.439-.75-3.804-.75-1.364 0-2.647.247-3.85.73v-2.67a15.38 15.38 0 0 1 3.827-.482c.231 0 .439.02.671.02-.486-.974-1.723-1.909-3.434-1.909-2.081 0-3.769 1.479-3.769 3.285 0 1.827 1.746 3.254 3.769 3.254 1.052 0 1.954-.318 2.694-.975l2.15 2.074c-1.202 1.006-2.902 1.642-4.856 1.642-3.896 0-6.902-2.73-6.902-5.995 0-3.367 3.087-6.025 6.914-6.025ZM106.906 19.268h3.006v9.382c0 2.074 1.896 3.89 4.382 3.89 2.439 0 4.382-1.724 4.382-3.89v-9.382h3.006v9.382c0 2.074 1.872 3.89 4.358 3.89 2.439 0 4.382-1.724 4.382-3.89v-9.382h3.006v9.382c0 3.685-3.353 6.57-7.388 6.57-2.393 0-4.509-.986-5.861-2.587-1.376 1.612-3.492 2.587-5.885 2.587-4.093 0-7.388-2.926-7.388-6.57v-9.382ZM98.005 23.21c.544 0 1.03.04 1.492.133l.254.041c.081.02.185.041.254.072 2.845.729 4.926 3.028 4.926 5.769 0 .164-.024.318-.024.482-.046.452-.15.893-.312 1.304-1.156-.503-2.439-.75-3.803-.75-1.365 0-2.648.247-3.85.73v-2.67a15.375 15.375 0 0 1 3.827-.482c.231 0 .439.02.67.02-.485-.974-1.722-1.909-3.434-1.909-2.08 0-3.769 1.479-3.769 3.285 0 1.827 1.746 3.254 3.77 3.254 1.052 0 1.953-.318 2.693-.975.544.524 1.468 1.417 2.151 2.074-1.203 1.006-2.902 1.642-4.856 1.642-3.896 0-6.902-2.73-6.902-5.995 0-3.367 3.087-6.025 6.913-6.025ZM86.389 35.22V19.268h3.156V35.22h-3.156ZM78.828 21.517h3.133v3.664h1.85v2.73h-1.85v2.351c0 1.212 1.133 2.207 2.486 2.207h.775v2.73h-.775c-3.11 0-5.619-2.278-5.619-5.008v-8.674ZM71.264 21.517h3.133v3.664h1.85v2.73h-1.85v2.351c0 1.212 1.133 2.207 2.485 2.207h.775v2.73h-.775c-3.11 0-5.618-2.278-5.618-5.008v-8.674ZM69.424 23.825V35.22h-3.133V23.825h3.133Z" fill="#FFFFFD"/>
    <path fill-rule="evenodd" clip-rule="evenodd" d="m69.754 20.018-2.157 1.862-1.693-1.546 2.157-1.862 1.693 1.546Z" fill="#F09926"/>
    <path d="M54.707 19.289h3.133v8.95c0 2.485 2.544 4.189 5.7 4.189h1.514v2.782h-1.722c-4.775 0-8.625-3.05-8.625-6.837V19.29Z" fill="#FFFFFD"/>
    <path fill-rule="evenodd" clip-rule="evenodd" d="M38.555 10.221c-9.547-5.788-18.908-2.303-21.94-.32l.83.976-.83-.976c-4.32 2.823-7.159 6.517-7.08 11.893l.019 1.217 2.774-.031-.018-1.218c-.065-4.423 2.18-7.438 5.963-9.91 2.45-1.6 10.472-4.62 18.705.372l.002.001h.001c2.925 1.766 4.687 4.601 5.61 8.08v.001c.494 1.847.618 5.057-.355 7.742-.48 1.329-1.202 2.449-2.187 3.226-.958.756-2.242 1.25-4.026 1.242-1.57-.008-2.604-.766-3.31-1.657a6.155 6.155 0 0 1-.927-1.65 3.022 3.022 0 0 1-.035-.1l-.006-.02v-.001l-.264-.906-2.551-.013-.317.832v.002l-.009.02a5.844 5.844 0 0 1-.238.489 6.68 6.68 0 0 1-.83 1.194c-.757.864-1.78 1.542-3.168 1.507h-.001c-2.085-.05-3.607-.998-4.538-2.68v-.002l-.001-.002a7.885 7.885 0 0 1-.699-1.682c3.294-1.45 4.997-3.778 5.863-5.75.458-1.042.688-1.993.804-2.687a9.577 9.577 0 0 0 .12-1.082l.001-.071v-.034c0-.002 0-.002-1.386-.007l1.387.005.004-.882-6.025-1.756-.59.764 1.146.68-1.146-.68v.001l-.002.003-.005.006-.016.021a7.568 7.568 0 0 0-.235.327 18.801 18.801 0 0 0-2.139 4.166c-.559 1.551-.983 3.443-.843 5.446-2.79.791-4.943.485-6.428-.018a8.553 8.553 0 0 1-1.984-.966 6.105 6.105 0 0 1-.594-.448l-.017-.016-.001-.001-.924-.898-2.06 1.63.93.904 1.03-.815c-1.03.816-1.03.816-1.029.817h.002l.002.004.007.006.02.018a4.627 4.627 0 0 0 .251.22c.165.134.4.316.706.518.608.405 1.5.904 2.661 1.298 1.97.667 4.642 1.008 7.889.17.198.62.463 1.24.806 1.857 1.332 2.405 3.724 3.971 6.956 4.05l.039-1.217-.04 1.217c2.635.066 4.411-1.275 5.447-2.456.124-.141.24-.282.346-.421.108.158.225.319.353.48 1.01 1.274 2.784 2.686 5.573 2.7 2.447.012 4.405-.689 5.896-1.865 1.464-1.155 2.399-2.704 2.977-4.3 1.146-3.165 1.002-6.828.412-9.034-1.018-3.834-3.054-7.306-6.738-9.53ZM17.334 30.597v-.002l1.247-.531-1.246.534-.001-.001ZM6.019 25.689c1.03-.816 1.03-.816 1.029-.817v.002l-1.03.815Zm10.509 3.051a10.303 10.303 0 0 1-.461-2.423l.161 1.244.3 1.18Zm6.521-9.673.002-.011a7.382 7.382 0 0 0 .091-.811v-.012l.001-.022v-.001l1.388.006-.438 1.155-1.044-.304Zm0 0a9.23 9.23 0 0 1-.646 2.154 8.41 8.41 0 0 1-3.582 3.978c.044-1.267.338-2.492.735-3.593a16.511 16.511 0 0 1 1.522-3.114l1.971.575Zm-7.545.589 2.144-1.86-1.707-1.515-2.145 1.86 1.708 1.515Z" fill="#F09926"/>
    <path d="M60.408 14.112c-.98 0-1.867-.215-2.66-.644a4.87 4.87 0 0 1-1.848-1.792c-.448-.765-.672-1.624-.672-2.576s.224-1.806.672-2.562a4.713 4.713 0 0 1 1.862-1.792c.793-.439 1.68-.658 2.66-.658.765 0 1.465.13 2.1.392a4.23 4.23 0 0 1 1.624 1.134l-.91.882c-.737-.775-1.657-1.162-2.758-1.162-.728 0-1.386.163-1.974.49-.588.327-1.05.78-1.386 1.358a3.784 3.784 0 0 0-.49 1.918c0 .71.163 1.353.49 1.932a3.62 3.62 0 0 0 1.386 1.344c.588.327 1.246.49 1.974.49 1.092 0 2.011-.392 2.758-1.176l.91.882a4.343 4.343 0 0 1-1.638 1.148 5.465 5.465 0 0 1-2.1.392Zm8.306-.028c-.737 0-1.4-.163-1.988-.49a3.62 3.62 0 0 1-1.386-1.344c-.326-.579-.49-1.232-.49-1.96s.164-1.377.49-1.946A3.49 3.49 0 0 1 66.726 7c.588-.327 1.251-.49 1.988-.49.738 0 1.396.163 1.974.49a3.397 3.397 0 0 1 1.372 1.344c.336.57.504 1.218.504 1.946s-.168 1.381-.504 1.96a3.519 3.519 0 0 1-1.372 1.344c-.578.327-1.236.49-1.974.49Zm0-1.176c.476 0 .901-.107 1.274-.322a2.37 2.37 0 0 0 .896-.924c.215-.401.322-.859.322-1.372 0-.513-.107-.966-.322-1.358a2.251 2.251 0 0 0-.896-.924 2.51 2.51 0 0 0-1.274-.322c-.476 0-.905.107-1.288.322a2.372 2.372 0 0 0-.896.924c-.214.392-.322.845-.322 1.358 0 .513.108.97.322 1.372.224.392.523.7.896.924.383.215.812.322 1.288.322Zm9.727-2.772c.495.13.877.34 1.148.63.27.29.406.649.406 1.078 0 .439-.15.83-.448 1.176-.299.336-.714.602-1.246.798-.523.187-1.11.28-1.764.28-.55 0-1.092-.07-1.624-.21a5.04 5.04 0 0 1-1.4-.63l.406-1.022c.355.224.76.401 1.218.532.457.121.92.182 1.386.182.635 0 1.139-.107 1.512-.322.383-.224.574-.523.574-.896 0-.345-.154-.611-.462-.798-.299-.187-.723-.28-1.274-.28h-1.358v-.966h1.26c.504 0 .9-.089 1.19-.266.29-.177.434-.42.434-.728 0-.336-.173-.597-.518-.784-.336-.187-.793-.28-1.372-.28-.737 0-1.517.191-2.338.574l-.364-1.036a6.224 6.224 0 0 1 2.842-.686c.597 0 1.134.084 1.61.252.476.168.85.406 1.12.714.27.308.406.658.406 1.05 0 .364-.121.69-.364.98-.243.29-.57.509-.98.658ZM89.094 6.58v6.412c0 1.297-.322 2.254-.966 2.87-.644.625-1.605.938-2.884.938-.7 0-1.367-.098-2.002-.294-.634-.187-1.148-.457-1.54-.812l.644-1.036c.346.299.77.532 1.274.7.514.177 1.041.266 1.582.266.868 0 1.508-.205 1.918-.616.42-.41.63-1.036.63-1.876v-.588c-.317.383-.709.672-1.176.868-.457.187-.956.28-1.498.28a4.15 4.15 0 0 1-1.932-.448A3.463 3.463 0 0 1 81.8 11.97c-.326-.55-.49-1.176-.49-1.876s.164-1.32.49-1.862c.327-.55.775-.975 1.344-1.274a4.15 4.15 0 0 1 1.932-.448c.56 0 1.078.103 1.554.308.486.205.882.509 1.19.91V6.58h1.274Zm-3.864 5.936c.486 0 .92-.103 1.302-.308.392-.205.696-.49.91-.854.224-.373.336-.793.336-1.26 0-.719-.238-1.297-.714-1.736-.476-.448-1.087-.672-1.834-.672-.756 0-1.372.224-1.848.672-.476.439-.714 1.017-.714 1.736 0 .467.108.887.322 1.26.224.364.528.649.91.854.392.205.836.308 1.33.308ZM98.69 6.58V14h-1.288v-1.176a2.91 2.91 0 0 1-1.134.938 3.513 3.513 0 0 1-1.512.322c-.719 0-1.363-.159-1.932-.476a3.473 3.473 0 0 1-1.344-1.33c-.317-.579-.476-1.241-.476-1.988 0-.747.159-1.405.476-1.974a3.473 3.473 0 0 1 1.344-1.33c.57-.317 1.213-.476 1.932-.476.532 0 1.022.103 1.47.308.448.196.821.49 1.12.882V6.58h1.344Zm-3.822 6.328c.467 0 .891-.107 1.274-.322.383-.224.681-.532.896-.924.215-.401.322-.859.322-1.372 0-.513-.107-.966-.322-1.358a2.25 2.25 0 0 0-.896-.924 2.559 2.559 0 0 0-1.274-.322c-.476 0-.905.107-1.288.322a2.372 2.372 0 0 0-.896.924c-.215.392-.322.845-.322 1.358 0 .513.107.97.322 1.372.224.392.523.7.896.924.383.215.812.322 1.288.322Zm6.393-6.328h1.344v3.15h4.228V6.58h1.344V14h-1.344v-3.108h-4.228V14h-1.344V6.58Zm12.707 7.504c-.737 0-1.4-.163-1.988-.49a3.62 3.62 0 0 1-1.386-1.344c-.326-.579-.49-1.232-.49-1.96s.164-1.377.49-1.946A3.49 3.49 0 0 1 111.98 7c.588-.327 1.251-.49 1.988-.49.738 0 1.396.163 1.974.49a3.392 3.392 0 0 1 1.372 1.344c.336.57.504 1.218.504 1.946s-.168 1.381-.504 1.96a3.514 3.514 0 0 1-1.372 1.344c-.578.327-1.236.49-1.974.49Zm0-1.176c.476 0 .901-.107 1.274-.322.383-.224.682-.532.896-.924a2.86 2.86 0 0 0 .322-1.372c0-.513-.107-.966-.322-1.358a2.245 2.245 0 0 0-.896-.924 2.508 2.508 0 0 0-1.274-.322c-.476 0-.905.107-1.288.322a2.375 2.375 0 0 0-.896.924c-.214.392-.322.845-.322 1.358 0 .513.108.97.322 1.372.224.392.523.7.896.924.383.215.812.322 1.288.322Zm14.605-2.758c.961.243 1.442.845 1.442 1.806 0 .653-.248 1.157-.742 1.512-.486.355-1.214.532-2.184.532h-3.57V6.58h3.444c.877 0 1.563.168 2.058.504.494.327.742.793.742 1.4 0 .392-.108.733-.322 1.022a1.94 1.94 0 0 1-.868.644Zm-3.738-.378h2.016c.513 0 .9-.093 1.162-.28.27-.187.406-.457.406-.812 0-.71-.523-1.064-1.568-1.064h-2.016v2.156Zm2.156 3.192c.56 0 .98-.089 1.26-.266.28-.177.42-.453.42-.826 0-.383-.131-.667-.392-.854-.252-.187-.654-.28-1.204-.28h-2.24v2.226h2.156Z" fill="#fff"/>
</svg>
