<svg width="570" height="423" viewBox="0 0 570 423" fill="none" xmlns="http://www.w3.org/2000/svg">
<path d="M224.605 54.233C234.525 57.5439 243.482 62.6922 251.924 68.7345C268.01 80.2728 281.902 94.0459 293.95 109.69C302.708 121.046 310.568 132.981 317.747 145.381C319.026 147.582 320.405 149.734 322.566 153.244C322.616 153.31 322.732 153.293 322.732 153.211C325.54 125.946 313.077 86.878 281.404 58.4709C262.526 41.536 238.148 31.8518 217.692 28.7727C208.103 27.3325 199.379 27.3324 192.499 28.7561C192.466 28.7727 192.433 28.8058 192.433 28.8389C192.366 31.5372 192.649 34.3845 192.666 37.2153C192.799 63.1557 192.549 89.0962 192.682 115.037C192.799 139.653 192.848 164.285 193.015 188.902C193.031 193.57 196.87 197.444 201.556 197.526C204.315 197.576 207.14 197.659 209.998 197.576C214.518 197.444 218.107 193.752 218.157 189.249C218.207 184.813 218.074 180.442 218.091 176.072C218.107 170.295 218.057 164.501 218.024 158.723C218.024 157.631 218.008 156.522 218.008 155.429C217.974 148.542 217.941 141.656 217.908 134.786C217.875 128.164 217.841 121.542 217.808 114.937C217.775 108.051 217.742 101.164 217.708 94.2942C217.708 93.3507 217.692 92.2746 217.692 91.1158V52.4948C218.838 52.7432 222.943 53.6702 224.605 54.233Z" fill="#B6DAFF"/>
<path d="M376.739 235.864C376.606 197.706 376.855 159.582 376.722 121.441C376.606 85.2368 376.556 49.0328 376.39 12.8287C376.373 5.97529 372.534 0.264059 367.848 0.131625C365.09 0.0488544 362.265 -0.0670049 359.406 0.0488746C354.886 0.247525 351.613 5.69385 351.579 12.299C351.53 18.8213 351.663 25.2444 351.646 31.6674C351.629 40.1763 351.679 48.6686 351.712 57.1774V57.1609V156.602C351.746 167.23 351.779 182.294 351.779 182.294L351.712 213.383V224.21C349.004 223.713 345.797 223.084 344.816 222.753C334.895 219.442 325.938 214.294 317.497 208.251C301.411 196.713 287.518 182.94 275.471 167.296C266.713 155.94 258.853 144.004 251.674 131.605C250.395 129.404 249.015 127.251 246.855 123.742C246.805 123.676 246.689 123.692 246.689 123.775C243.881 151.04 256.344 190.108 288.017 218.515C306.712 235.284 334.746 245.747 355.152 248.925C355.235 248.941 355.318 248.958 355.402 248.958C355.518 248.975 355.634 248.991 355.734 249.008V248.991C363.727 250.299 371.006 250.051 376.921 248.263C376.955 248.246 376.988 248.197 376.988 248.13C377.038 244.207 376.755 240.019 376.739 235.864Z" fill="#B6DAFF"/>
<path d="M84.7 320.306V421.27H75.876L10.7184 339.343V421.27H0V320.306H8.824L74.1145 402.232V320.306H84.7Z" fill="#B6DAFF"/>
<path d="M117.354 320.306H128.072V421.27H117.354V320.306Z" fill="#B6DAFF"/>
<path d="M182.512 329.543H146.9V320.306H228.842V329.543H193.213V421.27H182.495V329.543H182.512Z" fill="#B6DAFF"/>
<path d="M247.654 320.306H258.372V421.27H247.654V320.306Z" fill="#B6DAFF"/>
<path d="M298.769 418.517C291.873 416.117 286.539 412.939 282.767 408.999L286.971 400.771C290.643 404.43 295.512 407.376 301.594 409.644C307.677 411.912 313.941 413.038 320.422 413.038C329.496 413.038 336.292 411.382 340.845 408.055C345.399 404.728 347.659 400.44 347.659 395.143C347.659 391.104 346.429 387.892 343.97 385.475C341.51 383.075 338.486 381.221 334.913 379.929C331.34 378.638 326.371 377.215 320.007 375.675C312.379 373.755 306.297 371.901 301.761 370.129C297.224 368.358 293.335 365.643 290.112 361.985C286.871 358.326 285.259 353.377 285.259 347.136C285.259 342.037 286.605 337.402 289.314 333.213C292.023 329.025 296.16 325.698 301.761 323.182C307.361 320.682 314.307 319.424 322.616 319.424C328.415 319.424 334.082 320.218 339.632 321.808C345.183 323.397 349.985 325.582 354.04 328.363L350.417 336.872C346.163 334.091 341.626 331.988 336.807 330.598C331.972 329.207 327.252 328.512 322.616 328.512C313.742 328.512 307.045 330.217 302.558 333.627C298.072 337.037 295.828 341.441 295.828 346.821C295.828 350.86 297.058 354.105 299.517 356.555C301.977 359.005 305.068 360.876 308.79 362.183C312.512 363.475 317.498 364.898 323.779 366.438C331.207 368.259 337.223 370.063 341.809 371.851C346.396 373.639 350.284 376.321 353.458 379.929C356.649 383.538 358.244 388.422 358.244 394.563C358.244 399.662 356.865 404.297 354.123 408.485C351.364 412.674 347.144 415.985 341.46 418.435C335.76 420.885 328.764 422.11 320.472 422.11C312.878 422.126 305.666 420.934 298.769 418.517Z" fill="#B6DAFF"/>
<path d="M450.587 329.533C457.916 335.691 461.588 344.15 461.588 354.911C461.588 365.687 457.916 374.114 450.587 380.222C443.242 386.331 433.122 389.377 420.177 389.377H392.957V421.243H382.238V320.279H420.177C433.122 320.296 443.259 323.375 450.587 329.533ZM442.91 373.451C448.211 369.081 450.87 362.906 450.87 354.911C450.87 346.733 448.211 340.459 442.91 336.089C437.592 331.718 429.931 329.533 419.894 329.533H392.957V380.024H419.894C429.931 380.007 437.609 377.822 442.91 373.451Z" fill="#B6DAFF"/>
<path d="M563.987 377.78C567.61 382.068 569.421 387.564 569.421 394.301C569.421 402.959 566.214 409.614 559.799 414.282C553.385 418.95 543.896 421.284 531.35 421.284H484.721V320.32H528.442C539.742 320.32 548.499 322.588 554.714 327.108C560.946 331.627 564.054 338.017 564.054 346.294C564.054 351.873 562.674 356.607 559.932 360.497C557.191 364.388 553.385 367.301 548.566 369.221C555.23 370.645 560.364 373.509 563.987 377.78ZM495.423 329.094V365.729H527.711C535.92 365.729 542.235 364.172 546.671 361.044C551.108 357.915 553.335 353.379 553.335 347.42C553.335 341.46 551.108 336.908 546.671 333.795C542.235 330.667 535.903 329.111 527.711 329.111H495.423V329.094ZM551.756 407.859C556.393 404.78 558.703 399.979 558.703 393.44C558.703 380.843 549.53 374.552 531.2 374.552H495.439V412.478H531.2C540.257 412.478 547.12 410.938 551.756 407.859Z" fill="#B6DAFF"/>
</svg>
