<svg width="24" height="33" viewBox="0 0 24 33" fill="none" xmlns="http://www.w3.org/2000/svg">
<path d="M4.12572 6.95355C5.39756 7.378 6.54584 8.03802 7.62808 8.81265C9.69029 10.2919 11.4713 12.0576 13.0158 14.0631C14.1385 15.519 15.1462 17.0491 16.0665 18.6387C16.2306 18.921 16.4074 19.1968 16.6844 19.6468C16.6907 19.6553 16.7057 19.6531 16.7057 19.6425C17.0657 16.1472 15.4679 11.1386 11.4074 7.49685C8.98726 5.32579 5.86199 4.08427 3.23949 3.68953C2.01025 3.50489 0.891793 3.50489 0.00981259 3.6874C0.00555182 3.68952 0.00129573 3.69377 0.00129573 3.69801C-0.00722582 4.04394 0.0289939 4.40897 0.0311243 4.77187C0.0481674 8.09744 0.0162136 11.423 0.0332567 14.7486C0.0481694 17.9044 0.0545502 21.0623 0.0758541 24.2181C0.0779844 24.8166 0.570107 25.3132 1.17088 25.3238C1.52452 25.3302 1.88669 25.3408 2.25312 25.3302C2.83258 25.3132 3.29274 24.8399 3.29913 24.2627C3.30552 23.6939 3.28848 23.1336 3.29061 22.5733C3.29274 21.8327 3.28636 21.0899 3.2821 20.3492C3.2821 20.2092 3.27996 20.067 3.27996 19.9269C3.2757 19.044 3.27144 18.1612 3.26718 17.2804C3.26292 16.4315 3.25866 15.5826 3.2544 14.7359C3.25014 13.853 3.24588 12.9701 3.24162 12.0894C3.24162 11.9684 3.23949 11.8305 3.23949 11.6819V6.73071C3.38648 6.76255 3.91268 6.88139 4.12572 6.95355Z" fill="black"/>
<path d="M23.6299 30.2378C23.6128 25.346 23.6448 20.4584 23.6277 15.5688C23.6128 10.9274 23.6064 6.28602 23.5851 1.64465C23.583 0.766033 23.0909 0.0338525 22.4901 0.0168744C22.1365 0.00626315 21.7743 -0.00859004 21.4079 0.00626574C20.8284 0.0317328 20.4087 0.729953 20.4045 1.57673C20.3981 2.4129 20.4151 3.23634 20.413 4.05977C20.4109 5.15061 20.4172 6.23933 20.4215 7.33016V7.32805V20.0764C20.4258 21.4389 20.43 23.3702 20.43 23.3702L20.4215 27.3558V28.7437C20.0742 28.6801 19.6631 28.5994 19.5374 28.557C18.2656 28.1325 17.1173 27.4725 16.035 26.6979C13.9728 25.2187 12.1918 23.4529 10.6473 21.4474C9.52458 19.9915 8.51692 18.4614 7.59659 16.8718C7.43255 16.5896 7.25572 16.3137 6.97877 15.8638C6.97238 15.8553 6.95747 15.8574 6.95747 15.868C6.59744 19.3634 8.19523 24.3719 12.2557 28.0137C14.6524 30.1635 18.2464 31.5048 20.8625 31.9122C20.8731 31.9144 20.8838 31.9165 20.8945 31.9165C20.9094 31.9186 20.9243 31.9207 20.9371 31.9229V31.9207C21.9618 32.0884 22.8949 32.0566 23.6533 31.8274C23.6576 31.8252 23.6618 31.8189 23.6618 31.8104C23.6682 31.3074 23.632 30.7705 23.6299 30.2378Z" fill="black"/>
</svg>
