<svg width="81" height="60" viewBox="0 0 81 60" fill="none" xmlns="http://www.w3.org/2000/svg">
<path d="M31.926 7.70839C33.3362 8.17901 34.6093 8.91081 35.8093 9.76968C38.0957 11.4098 40.0704 13.3675 41.783 15.5912C43.0278 17.2054 44.145 18.9019 45.1655 20.6644C45.3473 20.9773 45.5434 21.2832 45.8505 21.7821C45.8576 21.7915 45.8741 21.7891 45.8741 21.7774C46.2733 17.9019 44.5017 12.3486 39.9996 8.31078C37.3163 5.9036 33.8511 4.52705 30.9434 4.08938C29.5804 3.88466 28.3403 3.88466 27.3624 4.08703C27.3577 4.08938 27.353 4.09408 27.353 4.09879C27.3436 4.48234 27.3837 4.88706 27.3861 5.28944C27.405 8.9767 27.3695 12.664 27.3884 16.3512C27.405 19.8502 27.412 23.3516 27.4357 26.8506C27.438 27.5142 27.9837 28.0648 28.6498 28.0765C29.0419 28.0836 29.4434 28.0954 29.8497 28.0836C30.4922 28.0648 31.0024 27.54 31.0095 26.9C31.0166 26.2694 30.9977 25.6482 31.0001 25.027C31.0024 24.2057 30.9953 23.3822 30.9906 22.561C30.9906 22.4057 30.9882 22.248 30.9882 22.0927C30.9835 21.1138 30.9788 20.1349 30.9741 19.1584C30.9694 18.2172 30.9646 17.276 30.9599 16.3371C30.9552 15.3582 30.9505 14.3793 30.9457 13.4028C30.9457 13.2687 30.9434 13.1157 30.9434 12.951V7.46132C31.1064 7.49662 31.6898 7.62839 31.926 7.70839Z" fill="#B6DAFF"/>
<path d="M53.551 33.5264C53.5321 28.1026 53.5675 22.6834 53.5487 17.262C53.5321 12.1158 53.525 6.96967 53.5014 1.82351C53.499 0.849345 52.9534 0.0375342 52.2873 0.0187096C51.8952 0.00694432 51.4936 -0.00952428 51.0874 0.00694719C50.4449 0.035184 49.9795 0.809341 49.9748 1.74821C49.9677 2.67532 49.9866 3.58832 49.9843 4.50131C49.9819 5.71078 49.989 6.9179 49.9937 8.12738V8.12503V22.2599C49.9984 23.7706 50.0032 25.9119 50.0032 25.9119L49.9937 30.3309V31.8698C49.6087 31.7992 49.1528 31.7098 49.0135 31.6628C47.6033 31.1921 46.3301 30.4603 45.1302 29.6015C42.8437 27.9614 40.869 26.0036 39.1565 23.78C37.9117 22.1658 36.7944 20.4692 35.774 18.7068C35.5921 18.3938 35.3961 18.0879 35.089 17.5891C35.0819 17.5796 35.0654 17.582 35.0654 17.5938C34.6662 21.4693 36.4377 27.0225 40.9399 31.0604C43.5972 33.444 47.582 34.9312 50.4827 35.3829C50.4945 35.3853 50.5063 35.3877 50.5181 35.3877C50.5346 35.39 50.5512 35.3924 50.5653 35.3947V35.3924C51.7015 35.5783 52.7361 35.543 53.577 35.2888C53.5817 35.2865 53.5864 35.2794 53.5864 35.27C53.5935 34.7123 53.5534 34.117 53.551 33.5264Z" fill="#B6DAFF"/>
<path d="M12.0395 45.5283V59.8797H10.7852L1.52354 48.2343V59.8797H0V45.5283H1.25427L10.5349 57.1736V45.5283H12.0395Z" fill="#B6DAFF"/>
<path d="M16.6807 45.5283H18.2042V59.8797H16.6807V45.5283Z" fill="#B6DAFF"/>
<path d="M25.9428 46.8413H20.8809V45.5283H32.5282V46.8413H27.4639V59.8797H25.9404V46.8413H25.9428Z" fill="#B6DAFF"/>
<path d="M35.2021 45.5283H36.7256V59.8797H35.2021V45.5283Z" fill="#B6DAFF"/>
<path d="M42.4681 59.4888C41.4878 59.1476 40.7296 58.6958 40.1934 58.1358L40.791 56.9663C41.313 57.4863 42.0051 57.9052 42.8696 58.2275C43.7341 58.5499 44.6246 58.7099 45.5459 58.7099C46.8356 58.7099 47.8016 58.4746 48.4489 58.0016C49.0961 57.5287 49.4173 56.9192 49.4173 56.1662C49.4173 55.5921 49.2425 55.1356 48.8929 54.792C48.5433 54.4509 48.1134 54.1873 47.6056 54.0038C47.0977 53.8202 46.3915 53.6179 45.4868 53.399C44.4026 53.1261 43.5381 52.8625 42.8932 52.6107C42.2484 52.359 41.6956 51.9731 41.2374 51.453C40.7768 50.933 40.5477 50.2295 40.5477 49.3424C40.5477 48.6176 40.739 47.9587 41.124 47.3634C41.509 46.7681 42.0972 46.2951 42.8932 45.9375C43.6892 45.5821 44.6766 45.4033 45.8576 45.4033C46.682 45.4033 47.4875 45.5163 48.2764 45.7421C49.0654 45.968 49.748 46.2787 50.3244 46.674L49.8094 47.8834C49.2047 47.4881 48.5599 47.1893 47.8749 46.9916C47.1875 46.794 46.5167 46.6952 45.8576 46.6952C44.5963 46.6952 43.6444 46.9375 43.0066 47.4222C42.3689 47.907 42.05 48.5329 42.05 49.2976C42.05 49.8718 42.2248 50.333 42.5743 50.6812C42.9239 51.0295 43.3633 51.2954 43.8924 51.4813C44.4215 51.6648 45.1301 51.8672 46.023 52.086C47.0788 52.3449 47.9339 52.6013 48.5859 52.8555C49.2378 53.1096 49.7905 53.4908 50.2417 54.0038C50.6952 54.5167 50.922 55.2109 50.922 56.0839C50.922 56.8086 50.7259 57.4675 50.3362 58.0628C49.9441 58.6581 49.3441 59.1288 48.5363 59.477C47.7261 59.8253 46.7316 59.9994 45.5529 59.9994C44.4735 60.0017 43.4483 59.8323 42.4681 59.4888Z" fill="#B6DAFF"/>
<path d="M64.0473 46.8408C65.089 47.7161 65.611 48.9185 65.611 50.448C65.611 51.9799 65.089 53.1776 64.0473 54.0459C63.0033 54.9141 61.5648 55.3471 59.7247 55.3471H55.8556V59.8767H54.332V45.5254H59.7247C61.5648 45.5277 63.0057 45.9654 64.0473 46.8408ZM62.9561 53.0834C63.7096 52.4622 64.0875 51.5845 64.0875 50.448C64.0875 49.2856 63.7096 48.3938 62.9561 47.7726C62.2002 47.1514 61.1113 46.8408 59.6846 46.8408H55.8556V54.0176H59.6846C61.1113 54.0153 62.2025 53.7047 62.9561 53.0834Z" fill="#B6DAFF"/>
<path d="M80.1666 53.6978C80.6815 54.3072 80.939 55.0884 80.939 56.0461C80.939 57.2768 80.4831 58.2227 79.5713 58.8863C78.6596 59.5499 77.3108 59.8816 75.5274 59.8816H68.8994V45.5303H75.1141C76.7203 45.5303 77.9651 45.8526 78.8485 46.495C79.7343 47.1374 80.176 48.0457 80.176 49.2222C80.176 50.0152 79.98 50.6882 79.5902 51.2412C79.2005 51.7941 78.6596 52.2083 77.9746 52.4812C78.9218 52.6836 79.6516 53.0907 80.1666 53.6978ZM70.4206 46.7774V51.9847H75.0101C76.177 51.9847 77.0746 51.7635 77.7053 51.3188C78.336 50.8741 78.6525 50.2293 78.6525 49.3822C78.6525 48.5351 78.336 47.8881 77.7053 47.4457C77.0746 47.0009 76.1747 46.7798 75.0101 46.7798H70.4206V46.7774ZM78.4281 57.9733C79.0871 57.5356 79.4154 56.8532 79.4154 55.9238C79.4154 54.1331 78.1116 53.2389 75.5062 53.2389H70.423V58.6298H75.5062C76.7935 58.6298 77.7691 58.411 78.4281 57.9733Z" fill="#B6DAFF"/>
</svg>
