<svg width="76" height="57" viewBox="0 0 76 57" fill="none" xmlns="http://www.w3.org/2000/svg">
<path d="M29.9781 7.23792C31.3022 7.67982 32.4977 8.36697 33.6244 9.17342C35.7714 10.7134 37.6256 12.5517 39.2336 14.6397C40.4024 16.1554 41.4515 17.7484 42.4097 19.4033C42.5805 19.6971 42.7646 19.9844 43.0529 20.4528C43.0595 20.4616 43.0751 20.4594 43.0751 20.4484C43.4499 16.8094 41.7864 11.595 37.559 7.80356C35.0395 5.54326 31.7858 4.25072 29.0555 3.83976C27.7757 3.64753 26.6113 3.64753 25.6931 3.83755C25.6886 3.83976 25.6842 3.84417 25.6842 3.84859C25.6753 4.20874 25.713 4.58877 25.7153 4.96659C25.733 8.42883 25.6997 11.8911 25.7175 15.3533C25.733 18.6388 25.7397 21.9265 25.7618 25.212C25.7641 25.8351 26.2764 26.3521 26.9019 26.3631C27.27 26.3698 27.6471 26.3808 28.0286 26.3698C28.6319 26.3521 29.1109 25.8594 29.1176 25.2584C29.1242 24.6663 29.1065 24.0829 29.1087 23.4996C29.1109 22.7285 29.1043 21.9552 29.0998 21.1841C29.0998 21.0383 29.0976 20.8903 29.0976 20.7444C29.0932 19.8253 29.0887 18.9062 29.0843 17.9892C29.0799 17.1054 29.0754 16.2216 29.071 15.3401C29.0666 14.4209 29.0621 13.5018 29.0577 12.5849C29.0577 12.4589 29.0555 12.3153 29.0555 12.1606V7.00593C29.2085 7.03907 29.7563 7.1628 29.9781 7.23792Z" fill="#B6DAFF"/>
<path d="M50.2831 31.4805C50.2654 26.3876 50.2987 21.2992 50.2809 16.2086C50.2654 11.3765 50.2587 6.54435 50.2366 1.71224C50.2343 0.797515 49.722 0.0352437 49.0965 0.0175679C48.7284 0.00652055 48.3513 -0.00894307 47.9698 0.00652324C47.3665 0.0330369 46.9296 0.759952 46.9252 1.64153C46.9185 2.51206 46.9363 3.36934 46.934 4.22662C46.9318 5.36229 46.9385 6.49574 46.9429 7.63141V7.62921V20.9015C46.9474 22.32 46.9518 24.3306 46.9518 24.3306L46.9429 28.48V29.925C46.5814 29.8587 46.1533 29.7748 46.0225 29.7306C44.6984 29.2887 43.5029 28.6015 42.3762 27.7951C40.2292 26.2551 38.375 24.4168 36.767 22.3288C35.5982 20.8131 34.5491 19.2201 33.5909 17.5652C33.4202 17.2713 33.2361 16.9841 32.9477 16.5157C32.9411 16.5069 32.9256 16.5091 32.9256 16.5201C32.5507 20.1591 34.2142 25.3735 38.4416 29.1649C40.9368 31.4031 44.6784 32.7995 47.402 33.2237C47.4131 33.2259 47.4242 33.2282 47.4353 33.2282C47.4508 33.2304 47.4664 33.2326 47.4797 33.2348V33.2326C48.5465 33.4071 49.5179 33.374 50.3075 33.1354C50.312 33.1332 50.3164 33.1265 50.3164 33.1177C50.3231 32.594 50.2853 32.035 50.2831 31.4805Z" fill="#B6DAFF"/>
<path d="M11.3048 42.75V56.2256H10.1271L1.43057 45.2909V56.2256H0V42.75H1.17773L9.89199 53.6847V42.75H11.3048Z" fill="#B6DAFF"/>
<path d="M15.6633 42.75H17.0939V56.2256H15.6633V42.75Z" fill="#B6DAFF"/>
<path d="M24.3597 43.9829H19.6067V42.75H30.5433V43.9829H25.788V56.2256H24.3575V43.9829H24.3597Z" fill="#B6DAFF"/>
<path d="M33.0542 42.75H34.4847V56.2256H33.0542V42.75Z" fill="#B6DAFF"/>
<path d="M39.8766 55.8587C38.9562 55.5383 38.2442 55.1141 37.7407 54.5883L38.3019 53.4902C38.792 53.9784 39.4419 54.3717 40.2537 54.6744C41.0654 54.9771 41.9016 55.1274 42.7666 55.1274C43.9776 55.1274 44.8847 54.9064 45.4924 54.4623C46.1002 54.0182 46.4018 53.446 46.4018 52.7389C46.4018 52.1998 46.2377 51.7712 45.9094 51.4486C45.5812 51.1282 45.1775 50.8808 44.7006 50.7084C44.2238 50.5361 43.5606 50.3461 42.7111 50.1406C41.6931 49.8843 40.8813 49.6368 40.2758 49.4004C39.6703 49.164 39.1513 48.8017 38.7211 48.3134C38.2886 47.8251 38.0734 47.1644 38.0734 46.3315C38.0734 45.6509 38.2531 45.0323 38.6146 44.4733C38.9761 43.9143 39.5284 43.4702 40.2758 43.1344C41.0233 42.8007 41.9504 42.6328 43.0593 42.6328C43.8334 42.6328 44.5897 42.7389 45.3305 42.951C46.0713 43.1631 46.7123 43.4547 47.2535 43.8259L46.77 44.9616C46.2022 44.5904 45.5967 44.3098 44.9535 44.1242C44.3081 43.9386 43.6782 43.8458 43.0593 43.8458C41.875 43.8458 40.9811 44.0734 40.3823 44.5285C39.7835 44.9837 39.484 45.5714 39.484 46.2895C39.484 46.8286 39.6482 47.2617 39.9764 47.5887C40.3047 47.9157 40.7172 48.1653 41.214 48.3399C41.7109 48.5122 42.3762 48.7022 43.2146 48.9077C44.206 49.1507 45.0089 49.3916 45.6211 49.6302C46.2332 49.8688 46.7522 50.2268 47.1759 50.7084C47.6017 51.1901 47.8146 51.8419 47.8146 52.6616C47.8146 53.3421 47.6305 53.9608 47.2646 54.5198C46.8964 55.0788 46.333 55.5207 45.5745 55.8477C44.8137 56.1747 43.88 56.3382 42.7732 56.3382C41.7596 56.3404 40.7971 56.1813 39.8766 55.8587Z" fill="#B6DAFF"/>
<path d="M60.1393 43.9812C61.1174 44.8031 61.6076 45.9322 61.6076 47.3683C61.6076 48.8067 61.1174 49.9313 60.1393 50.7466C59.1589 51.5619 57.8082 51.9684 56.0804 51.9684H52.4474V56.2217H51.0168V42.7461H56.0804C57.8082 42.7483 59.1612 43.1593 60.1393 43.9812ZM59.1146 49.8429C59.8221 49.2596 60.177 48.4355 60.177 47.3683C60.177 46.2768 59.8221 45.4394 59.1146 44.8561C58.4048 44.2728 57.3824 43.9812 56.0427 43.9812H52.4474V50.7201H56.0427C57.3824 50.7179 58.4071 50.4262 59.1146 49.8429Z" fill="#B6DAFF"/>
<path d="M75.2749 50.421C75.7584 50.9933 76.0002 51.7268 76.0002 52.6261C76.0002 53.7816 75.5721 54.6699 74.716 55.2929C73.8599 55.916 72.5934 56.2275 70.9189 56.2275H64.6953V42.752H70.5307C72.0389 42.752 73.2078 43.0546 74.0373 43.6578C74.869 44.261 75.2838 45.1139 75.2838 46.2186C75.2838 46.9632 75.0997 47.5951 74.7337 48.1143C74.3678 48.6336 73.8599 49.0224 73.2167 49.2787C74.1061 49.4687 74.7914 49.851 75.2749 50.421ZM66.1237 43.923V48.8125H70.4331C71.5288 48.8125 72.3716 48.6048 72.9638 48.1873C73.556 47.7697 73.8532 47.1643 73.8532 46.3689C73.8532 45.5734 73.556 44.9658 72.9638 44.5505C72.3716 44.1329 71.5266 43.9252 70.4331 43.9252H66.1237V43.923ZM73.6425 54.4356C74.2613 54.0247 74.5696 53.3839 74.5696 52.5112C74.5696 50.8298 73.3453 49.9902 70.8989 49.9902H66.1259V55.0521H70.8989C72.1077 55.0521 73.0237 54.8466 73.6425 54.4356Z" fill="#B6DAFF"/>
</svg>
