<svg width="31" height="22" viewBox="0 0 31 22" fill="none" xmlns="http://www.w3.org/2000/svg">
<path d="M22.73 1.90593L22.73 1.90593C22.2896 3.47982 21.4584 4.98249 20.4488 6.13432C19.7022 6.98601 18.8987 7.60141 18.1286 7.93956V2.2C18.1286 1.59249 17.6361 1.1 17.0286 1.1H13.0776C12.4701 1.1 11.9776 1.59249 11.9776 2.2V13.1099C9.98478 11.9193 7.68942 8.76778 7.52489 2.17646C7.51046 1.59817 7.04049 1.1 6.42451 1.1H2.20394C1.5775 1.1 1.08958 1.6194 1.10487 2.22849C1.24757 7.91173 2.66294 12.5784 5.32428 15.8417C8.00799 19.1324 11.8817 20.9 16.7058 20.9H17.0286C17.6361 20.9 18.1286 20.4075 18.1286 19.8V14.6757C19.1859 14.9839 20.1745 15.5423 21.0184 16.3198C22.0966 17.3132 22.8919 18.6215 23.3034 20.0933C23.4342 20.5612 23.8614 20.9 24.3649 20.9H28.743C29.4553 20.9 29.9959 20.2243 29.8032 19.5154C29.2709 17.5563 28.371 15.7286 27.1544 14.1441C26.1758 12.8697 25.009 11.7744 23.7006 10.9008C24.8379 9.98485 25.835 8.88549 26.6556 7.64167C27.694 6.06757 28.4289 4.2935 28.8213 2.42208C28.9664 1.72963 28.4324 1.1 27.746 1.1H23.791C23.2897 1.1 22.8613 1.43655 22.73 1.90593Z" stroke="#195EA6" stroke-width="1.8"/>
</svg>
