<svg width="31" height="22" viewBox="0 0 31 22" fill="none" xmlns="http://www.w3.org/2000/svg">
<path d="M22.7781 1.9194L22.7781 1.91941C22.3357 3.50058 21.5009 5.00988 20.4864 6.16728C19.7143 7.04802 18.8789 7.68042 18.0786 8.01541V2.2C18.0786 1.6201 17.6085 1.15 17.0286 1.15H13.0776C12.4977 1.15 12.0276 1.6201 12.0276 2.2V13.1973C9.99797 12.0303 7.64176 8.86211 7.47491 2.17771C7.46112 1.62549 7.01232 1.15 6.42451 1.15H2.20394C1.60608 1.15 1.14026 1.64576 1.15486 2.22724C1.29738 7.90362 2.71096 12.5581 5.36303 15.8101C8.03622 19.0879 11.8951 20.85 16.7058 20.85H17.0286C17.6085 20.85 18.0786 20.3799 18.0786 19.8V14.6094C19.1676 14.9157 20.1859 15.4848 21.0523 16.2831C22.1376 17.2829 22.9376 18.5994 23.3515 20.0799C23.4764 20.5266 23.8843 20.85 24.3649 20.85H28.743C29.4229 20.85 29.9388 20.205 29.755 19.5285C29.2243 17.5756 28.3273 15.7537 27.1147 14.1746C26.1252 12.8859 24.9428 11.7812 23.6159 10.9046C24.7713 9.98347 25.7833 8.87312 26.6138 7.61414C27.6487 6.04538 28.3812 4.2772 28.7723 2.41182C28.9109 1.75101 28.4012 1.15 27.746 1.15H23.791C23.3125 1.15 22.9035 1.47124 22.7781 1.9194Z" stroke="white" stroke-width="1.7"/>
</svg>
