<svg width="31" height="22" viewBox="0 0 31 22" fill="none" xmlns="http://www.w3.org/2000/svg">
<path fill-rule="evenodd" clip-rule="evenodd" d="M24.365 19.9998C24.2741 19.9998 24.1948 19.9384 24.1703 19.8508C23.7153 18.2236 22.8337 16.7682 21.6284 15.6577C20.8306 14.9227 19.9138 14.3598 18.9288 13.9931C18.9246 13.9916 18.9205 13.99 18.9163 13.9885C18.7224 13.9167 18.5259 13.8525 18.3272 13.7961C18.0407 13.7148 17.7496 13.6496 17.455 13.6012C17.3355 13.5815 17.2288 13.675 17.2288 13.7961V19.7998C17.2288 19.9103 17.1392 19.9998 17.0288 19.9998H16.706C7.53757 19.9998 2.28395 13.3255 2.00476 2.20571C2.00195 2.09376 2.09212 1.9998 2.2041 1.9998H6.42467C6.53369 1.9998 6.62262 2.08973 6.62534 2.19872C6.78628 8.64643 8.95175 12.1455 11.1777 13.6682C11.2052 13.6869 11.2326 13.7054 11.26 13.7235C11.5548 13.9186 11.8502 14.0793 12.1417 14.2078C12.3054 14.28 12.4678 14.342 12.6281 14.3943C12.7531 14.435 12.8777 14.3393 12.8777 14.2078V2.1998C12.8777 2.08935 12.9673 1.9998 13.0777 1.9998H17.0288C17.1392 1.9998 17.2288 2.08935 17.2288 2.1998V8.89261C17.2288 9.01212 17.3329 9.10533 17.4506 9.08474C17.6894 9.04297 17.9288 8.97831 18.1674 8.89261C18.4103 8.8054 18.6523 8.6964 18.892 8.5676C18.9043 8.56101 18.9165 8.55438 18.9288 8.54768C20.9641 7.43576 22.8269 4.89983 23.5968 2.14825C23.6213 2.06086 23.7005 1.9998 23.7912 1.9998H27.7462C27.8718 1.9998 27.9664 2.11427 27.9406 2.23721C27.8834 2.50981 27.8186 2.78014 27.7462 3.04787C27.688 3.26297 27.6249 3.47638 27.5571 3.68793C27.5558 3.69189 27.5545 3.69585 27.5532 3.6998C27.1596 4.92312 26.6052 6.08371 25.9045 7.14588C25.2347 8.16112 24.4408 9.07209 23.5459 9.85562C23.5345 9.86558 23.5231 9.87552 23.5117 9.88543C23.2528 10.1105 22.9855 10.325 22.7104 10.5283C22.5922 10.6156 22.4726 10.7008 22.3517 10.784C22.2259 10.8704 22.2343 11.0611 22.3671 11.1361C22.4949 11.2083 22.6215 11.2826 22.7468 11.3591C23.039 11.5374 23.3245 11.7272 23.6026 11.9281C23.615 11.9371 23.6273 11.946 23.6396 11.955C24.6882 12.718 25.6321 13.639 26.4407 14.692C27.279 15.7838 27.9586 17.0002 28.4595 18.2998C28.4627 18.3082 28.466 18.3165 28.4692 18.3249C28.5675 18.5814 28.6589 18.8411 28.7432 19.1037C28.8118 19.3177 28.8757 19.5336 28.9349 19.7512C28.9691 19.877 28.8735 19.9998 28.7432 19.9998H24.365ZM24.9895 10.8426C26.032 11.6485 26.9732 12.5941 27.7891 13.6567C29.0705 15.3256 30.0163 17.248 30.5754 19.3054C30.9089 20.5326 29.9727 21.6998 28.7432 21.6998H24.365C23.4948 21.6998 22.7584 21.1144 22.5331 20.3086C22.1602 18.9749 21.4417 17.7972 20.4765 16.908C20.004 16.4727 19.4825 16.1156 18.9288 15.8424V19.7998C18.9288 20.8491 18.0781 21.6998 17.0288 21.6998H16.706C11.6687 21.6998 7.5565 19.8442 4.70448 16.3471C1.8947 12.9018 0.450738 8.04126 0.305292 2.24838C0.278903 1.19737 1.12037 0.299805 2.2041 0.299805H6.42467C7.49128 0.299805 8.29996 1.16086 8.32481 2.1563C8.4485 7.11181 9.79512 9.92619 11.1777 11.4191V2.1998C11.1777 1.15046 12.0284 0.299805 13.0777 0.299805H17.0288C18.0781 0.299805 18.9288 1.15047 18.9288 2.1998V6.50084C19.232 6.25382 19.5408 5.95643 19.8473 5.60679C20.779 4.54392 21.552 3.14751 21.9597 1.69018C22.1861 0.881229 22.9249 0.299805 23.7912 0.299805H27.7462C28.931 0.299805 29.8557 1.38737 29.6044 2.58604C29.1918 4.55414 28.4185 6.42226 27.3235 8.08201C26.6525 9.09915 25.8687 10.0259 24.9895 10.8426Z" fill="white"/>
</svg>
