<svg width="31" height="22" viewBox="0 0 31 22" fill="none" xmlns="http://www.w3.org/2000/svg">
<path fill-rule="evenodd" clip-rule="evenodd" d="M24.3649 19.9998C24.2739 19.9998 24.1947 19.9384 24.1702 19.8508C23.7152 18.2236 22.8336 16.7682 21.6283 15.6577C20.8305 14.9227 19.9136 14.3598 18.9286 13.9931C18.9245 13.9916 18.9203 13.99 18.9162 13.9885C18.7223 13.9167 18.5258 13.8525 18.327 13.7961C18.0406 13.7148 17.7494 13.6496 17.4548 13.6012C17.3354 13.5815 17.2286 13.675 17.2286 13.7961V19.7998C17.2286 19.9103 17.1391 19.9998 17.0286 19.9998H16.7058C7.53741 19.9998 2.2838 13.3255 2.0046 2.20571C2.00179 2.09376 2.09197 1.9998 2.20395 1.9998H6.42452C6.53354 1.9998 6.62246 2.08973 6.62518 2.19872C6.78613 8.64643 8.9516 12.1455 11.1776 13.6682C11.205 13.6869 11.2324 13.7054 11.2599 13.7235C11.5546 13.9186 11.85 14.0793 12.1416 14.2078C12.3052 14.28 12.4676 14.342 12.628 14.3943C12.753 14.435 12.8776 14.3393 12.8776 14.2078V2.1998C12.8776 2.08935 12.9671 1.9998 13.0776 1.9998H17.0286C17.1391 1.9998 17.2286 2.08935 17.2286 2.1998V8.89261C17.2286 9.01212 17.3327 9.10533 17.4505 9.08474C17.6892 9.04297 17.9286 8.97831 18.1673 8.89261C18.4101 8.8054 18.6521 8.6964 18.8919 8.5676C18.9041 8.56101 18.9164 8.55438 18.9286 8.54768C20.964 7.43576 22.8268 4.89983 23.5967 2.14825C23.6211 2.06086 23.7003 1.9998 23.7911 1.9998H27.746C27.8716 1.9998 27.9662 2.11427 27.9404 2.23721C27.8833 2.50981 27.8184 2.78014 27.746 3.04787C27.6878 3.26297 27.6248 3.47638 27.5569 3.68793C27.5556 3.69189 27.5544 3.69585 27.5531 3.6998C27.1594 4.92312 26.6051 6.08371 25.9043 7.14588C25.2346 8.16112 24.4406 9.07209 23.5457 9.85562C23.5344 9.86558 23.523 9.87552 23.5116 9.88543C23.2526 10.1105 22.9854 10.325 22.7102 10.5283C22.5921 10.6156 22.4725 10.7008 22.3515 10.784C22.2258 10.8704 22.2341 11.0611 22.3669 11.1361C22.4947 11.2083 22.6213 11.2826 22.7467 11.3591C23.0389 11.5374 23.3243 11.7272 23.6025 11.9281C23.6148 11.9371 23.6272 11.946 23.6395 11.955C24.6881 12.718 25.6319 13.639 26.4405 14.692C27.2788 15.7838 27.9584 17.0002 28.4594 18.2998C28.4626 18.3082 28.4658 18.3165 28.469 18.3249C28.5673 18.5814 28.6587 18.8411 28.743 19.1037C28.8117 19.3177 28.8756 19.5336 28.9347 19.7512C28.9689 19.877 28.8734 19.9998 28.743 19.9998H24.3649ZM24.9894 10.8426C26.0319 11.6485 26.973 12.5941 27.7889 13.6567C29.0703 15.3256 30.0161 17.248 30.5752 19.3054C30.9087 20.5326 29.9725 21.6998 28.743 21.6998H24.3649C23.4947 21.6998 22.7583 21.1144 22.533 20.3086C22.1601 18.9749 21.4416 17.7972 20.4764 16.908C20.0039 16.4727 19.4824 16.1156 18.9286 15.8424V19.7998C18.9286 20.8491 18.078 21.6998 17.0286 21.6998H16.7058C11.6685 21.6998 7.55634 19.8442 4.70432 16.3471C1.89455 12.9018 0.450585 8.04126 0.305139 2.24838C0.27875 1.19737 1.12022 0.299805 2.20395 0.299805H6.42452C7.49113 0.299805 8.29981 1.16086 8.32465 2.1563C8.44835 7.11181 9.79496 9.92619 11.1776 11.4191V2.1998C11.1776 1.15046 12.0283 0.299805 13.0776 0.299805H17.0286C18.078 0.299805 18.9286 1.15047 18.9286 2.1998V6.50084C19.2318 6.25382 19.5407 5.95643 19.8472 5.60679C20.7788 4.54392 21.5518 3.14751 21.9596 1.69018C22.1859 0.881229 22.9247 0.299805 23.7911 0.299805H27.746C28.9308 0.299805 29.8556 1.38737 29.6043 2.58604C29.1916 4.55414 28.4183 6.42226 27.3234 8.08201C26.6524 9.09915 25.8685 10.0259 24.9894 10.8426Z" fill="#195EA6"/>
</svg>
