<svg width="31" height="22" viewBox="0 0 31 22" fill="none" xmlns="http://www.w3.org/2000/svg">
<path fill-rule="evenodd" clip-rule="evenodd" d="M24.3649 20.0002C24.2739 20.0002 24.1946 19.9388 24.1702 19.8512C23.7152 18.224 22.8336 16.7686 21.6283 15.6581C20.8575 14.948 19.9757 14.3986 19.0286 14.0315C19.0231 14.0294 19.0176 14.0273 19.0121 14.0251C18.7872 13.9385 18.5586 13.8622 18.327 13.7965C18.0406 13.7152 17.7494 13.65 17.4548 13.6016C17.3354 13.5819 17.2286 13.6754 17.2286 13.7965V19.8002C17.2286 19.9107 17.1391 20.0002 17.0286 20.0002H16.7058C7.53741 20.0002 2.28379 13.3259 2.0046 2.2061C2.00179 2.09415 2.09196 2.0002 2.20394 2.0002H6.42451C6.53354 2.0002 6.62246 2.09012 6.62518 2.19911C6.78371 8.55022 8.88716 12.0404 11.0776 13.5988C11.1098 13.6217 11.1421 13.6442 11.1743 13.6663C11.4974 13.8876 11.8218 14.0673 12.1416 14.2082C12.3052 14.2804 12.4676 14.3424 12.628 14.3946C12.7529 14.4354 12.8776 14.3397 12.8776 14.2082V2.2002C12.8776 2.08974 12.9671 2.0002 13.0776 2.0002H17.0286C17.1391 2.0002 17.2286 2.08974 17.2286 2.2002V8.893C17.2286 9.01251 17.3327 9.10572 17.4504 9.08513C17.6892 9.04336 17.9286 8.9787 18.1673 8.893C18.4408 8.79476 18.7134 8.66887 18.9827 8.51815C18.998 8.50958 19.0133 8.50094 19.0286 8.49222C21.0248 7.35291 22.8394 4.8551 23.5967 2.14864C23.6211 2.06125 23.7003 2.0002 23.7911 2.0002H27.746C27.8716 2.0002 27.9662 2.11466 27.9404 2.2376C27.8833 2.5102 27.8184 2.78053 27.746 3.04826C27.6789 3.29619 27.6054 3.54187 27.5255 3.78504C27.5238 3.79009 27.5222 3.79514 27.5205 3.8002C27.1291 4.98678 26.5859 6.11308 25.9043 7.14627C25.2543 8.13168 24.4872 9.01886 23.6243 9.78662C23.6119 9.79765 23.5995 9.80866 23.5871 9.81965C23.3047 10.069 23.0122 10.3056 22.7102 10.5287C22.5921 10.616 22.4725 10.7012 22.3515 10.7844C22.2258 10.8707 22.2341 11.0615 22.3669 11.1365C22.4947 11.2087 22.6213 11.283 22.7467 11.3595C23.0674 11.5552 23.3799 11.7648 23.6836 11.9876C23.6971 11.9975 23.7106 12.0075 23.7241 12.0174C24.7389 12.7681 25.6537 13.6677 26.4405 14.6924C27.2573 15.7562 27.9234 16.9381 28.4204 18.2002C28.4244 18.2103 28.4283 18.2204 28.4323 18.2305C28.5447 18.5177 28.6483 18.8091 28.743 19.1041C28.8116 19.3181 28.8756 19.534 28.9347 19.7516C28.9689 19.8774 28.8734 20.0002 28.743 20.0002H24.3649ZM25.1431 10.8361C26.1557 11.6314 27.0714 12.5584 27.8682 13.5962C29.1578 15.2756 30.1093 17.2099 30.6717 19.2796C31.0228 20.5716 30.0372 21.8002 28.743 21.8002H24.3649C23.4489 21.8002 22.6738 21.184 22.4366 20.3359C22.0686 19.0195 21.3597 17.8581 20.4086 16.9819C19.9844 16.5911 19.5202 16.2643 19.0286 16.0059V19.8002C19.0286 20.9048 18.1332 21.8002 17.0286 21.8002H16.7058C11.6419 21.8002 7.49988 19.9336 4.62682 16.4107C1.79849 12.9426 0.350955 8.05786 0.205165 2.25128C0.177389 1.14503 1.06305 0.200195 2.20394 0.200195H6.42451C7.54745 0.200195 8.39847 1.10661 8.42462 2.1542C8.54268 6.88399 9.77692 9.63976 11.0776 11.1565V2.2002C11.0776 1.09562 11.973 0.200195 13.0776 0.200195H17.0286C18.1332 0.200195 19.0286 1.09563 19.0286 2.2002V6.28629C19.2743 6.0725 19.5236 5.82463 19.772 5.54126C20.6939 4.48951 21.4596 3.10638 21.8633 1.66362C22.1015 0.81223 22.8791 0.200195 23.7911 0.200195H27.746C28.9931 0.200195 29.9667 1.34501 29.7021 2.60695C29.287 4.58713 28.5088 6.46701 27.4068 8.13746C26.7534 9.12802 25.9935 10.0336 25.1431 10.8361Z" fill="#195EA6"/>
</svg>
