<svg width="78" height="17" viewBox="0 0 78 17" fill="none" xmlns="http://www.w3.org/2000/svg">
<path fill-rule="evenodd" clip-rule="evenodd" d="M9.37674 0.0467649C7.62319 -0.137151 5.85547 0.224219 4.31655 1.0812C2.77764 1.93819 1.54308 3.24872 0.782563 4.83266C0.0220489 6.41661 -0.227085 8.1962 0.0694058 9.92684C0.365897 11.6575 1.19346 13.2542 2.43834 14.4976C3.68322 15.7409 5.28431 16.5698 7.02153 16.8704C8.75875 17.1709 10.5468 16.9284 12.14 16.1761C13.7331 15.4237 15.0532 14.1986 15.9186 12.669C16.7841 11.1393 17.1525 9.38038 16.9732 7.63384C16.7759 5.69245 15.9128 3.87804 14.5292 2.49613C13.1455 1.11422 11.3259 0.249211 9.37674 0.0467649ZM9.10018 12.995C8.15707 13.121 7.19802 12.9496 6.35781 12.5048C5.51761 12.0601 4.8385 11.3643 4.41592 10.5154C3.99334 9.66654 3.84853 8.70713 4.00186 7.77206C4.15519 6.83699 4.59893 5.97326 5.27073 5.30227C5.94254 4.63127 6.80862 4.18674 7.74726 4.03115C8.68591 3.87556 9.64992 4.01674 10.5038 4.43483C11.3577 4.85293 12.0586 5.52693 12.5079 6.36211C12.9572 7.19729 13.1324 8.15166 13.0088 9.09108C12.8791 10.0792 12.4259 10.9972 11.7193 11.7029C11.0127 12.4087 10.0922 12.8628 9.10018 12.995ZM21.5381 0.382952C21.2421 0.383658 20.95 0.450062 20.683 0.577334C20.416 0.704606 20.1808 0.889543 19.9947 1.11869C19.8085 1.34784 19.676 1.61542 19.6067 1.90199C19.5375 2.18855 19.5333 2.48688 19.5944 2.77526C19.7817 3.70952 20.6581 4.34787 21.6129 4.34787H27.1535L18.531 15.7092C18.4673 15.7931 18.4282 15.893 18.4183 15.9977C18.4083 16.1025 18.4279 16.2079 18.4748 16.3022C18.5216 16.3965 18.5939 16.4759 18.6836 16.5316C18.7732 16.5872 18.8767 16.6169 18.9823 16.6173H32.5075C33.4616 16.6173 34.3387 15.9791 34.5259 15.0447C34.5871 14.7564 34.5829 14.4581 34.5138 14.1716C34.4446 13.885 34.3121 13.6175 34.126 13.3883C33.94 13.1591 33.7049 12.9742 33.438 12.8468C33.1711 12.7195 32.879 12.6529 32.5831 12.6521H25.8323L34.4481 1.29956C34.5125 1.21487 34.5519 1.11399 34.5619 1.00824C34.572 0.902488 34.5522 0.796047 34.5048 0.70086C34.4575 0.605673 34.3844 0.525505 34.2939 0.469351C34.2033 0.413197 34.0988 0.383278 33.9922 0.382952H21.5381ZM75.5838 0.428686C75.136 0.534703 74.738 0.789702 74.4555 1.15152C74.173 1.51334 74.023 1.96031 74.0303 2.41853V9.01999L63.2871 0.507638C63.2028 0.441051 63.1014 0.399497 62.9945 0.387756C62.8876 0.376016 62.7795 0.394565 62.6827 0.441272C62.5859 0.487978 62.5043 0.560944 62.4473 0.651774C62.3903 0.742605 62.3602 0.84761 62.3605 0.954711V14.5853C62.3532 15.0435 62.5032 15.4905 62.7857 15.8523C63.0682 16.2142 63.4662 16.4692 63.914 16.5751C64.2048 16.6388 64.5062 16.6367 64.796 16.569C65.0859 16.5012 65.3568 16.3695 65.5887 16.1836C65.8206 15.9977 66.0076 15.7624 66.136 15.4949C66.2644 15.2274 66.3308 14.9347 66.3304 14.6383V7.97966L77.0738 16.4922C77.158 16.5587 77.2594 16.6003 77.3663 16.612C77.4732 16.6237 77.5812 16.6052 77.6779 16.5585C77.7747 16.5118 77.8563 16.4389 77.9132 16.3481C77.9702 16.2573 78.0003 16.1523 78 16.0453V2.36493C78.0003 2.06856 77.9339 1.7759 77.8054 1.50852C77.677 1.24115 77.49 1.00588 77.2581 0.820058C77.0262 0.634238 76.7554 0.502607 76.4656 0.434872C76.1759 0.367136 75.8745 0.365022 75.5838 0.428686ZM47.6113 3.96836C52.1554 3.96836 55.5507 6.35938 55.5507 8.49814C55.5507 10.6369 52.1554 13.0279 47.6113 13.0279C43.0672 13.0279 39.6719 10.6369 39.6719 8.49814C39.6719 6.35938 43.0672 3.96836 47.6113 3.96836ZM47.6113 0.00359816C41.0339 0.00359816 35.702 3.80677 35.702 8.49814C35.702 13.1895 41.0339 16.9927 47.6113 16.9927C54.1887 16.9927 59.5204 13.1895 59.5204 8.49814C59.5204 3.80677 54.1885 0.00359816 47.6113 0.00359816Z" fill="white"/>
</svg>
