<svg width="73" height="55" viewBox="0 0 73 55" fill="none" xmlns="http://www.w3.org/2000/svg">
<path d="M28.7947 6.95257C30.0665 7.37702 31.2148 8.03705 32.297 8.81167C34.3592 10.2909 36.1402 12.0566 37.6848 14.0621C38.8075 15.518 39.8152 17.0481 40.7355 18.6377C40.8995 18.92 41.0763 19.1959 41.3533 19.6458C41.3597 19.6543 41.3746 19.6522 41.3746 19.6415C41.7346 16.1462 40.1368 11.1377 36.0763 7.49588C33.6562 5.32481 30.5309 4.08329 27.9084 3.68855C26.6792 3.50391 25.5607 3.50391 24.6788 3.68642C24.6745 3.68855 24.6702 3.69279 24.6702 3.69703C24.6617 4.04296 24.6979 4.40799 24.7001 4.77089C24.7171 8.09647 24.6852 11.422 24.7022 14.7476C24.7171 17.9034 24.7235 21.0613 24.7448 24.2171C24.7469 24.8156 25.2391 25.3122 25.8398 25.3228C26.1935 25.3292 26.5556 25.3398 26.9221 25.3292C27.5015 25.3122 27.9617 24.8389 27.9681 24.2617C27.9745 23.6929 27.9574 23.1326 27.9596 22.5724C27.9617 21.8317 27.9553 21.0889 27.951 20.3483C27.951 20.2082 27.9489 20.066 27.9489 19.9259C27.9446 19.0431 27.9404 18.1602 27.9361 17.2795C27.9319 16.4306 27.9276 15.5817 27.9233 14.7349C27.9191 13.852 27.9148 12.9692 27.9106 12.0884C27.9106 11.9675 27.9084 11.8295 27.9084 11.681V6.72974C28.0554 6.76157 28.5816 6.88042 28.7947 6.95257Z" fill="white"/>
<path d="M48.2988 30.2378C48.2818 25.346 48.3137 20.4584 48.2967 15.5688C48.2818 10.9274 48.2754 6.28602 48.2541 1.64465C48.2519 0.766033 47.7598 0.0338525 47.1591 0.0168744C46.8054 0.00626315 46.4432 -0.00859004 46.0768 0.00626574C45.4973 0.0317328 45.0777 0.729953 45.0734 1.57673C45.067 2.4129 45.0841 3.23634 45.0819 4.05977C45.0798 5.15061 45.0862 6.23933 45.0904 7.33016V7.32805V20.0764C45.0947 21.4389 45.099 23.3702 45.099 23.3702L45.0904 27.3558V28.7437C44.7432 28.6801 44.332 28.5994 44.2063 28.557C42.9345 28.1325 41.7862 27.4725 40.704 26.6979C38.6418 25.2187 36.8608 23.4529 35.3162 21.4474C34.1935 19.9915 33.1859 18.4614 32.2655 16.8718C32.1015 16.5896 31.9247 16.3137 31.6477 15.8638C31.6413 15.8553 31.6264 15.8574 31.6264 15.868C31.2664 19.3634 32.8642 24.3719 36.9247 28.0137C39.3214 30.1635 42.9153 31.5048 45.5314 31.9122C45.5421 31.9144 45.5527 31.9165 45.5634 31.9165C45.5783 31.9186 45.5932 31.9207 45.606 31.9229V31.9207C46.6307 32.0884 47.5638 32.0566 48.3222 31.8274C48.3265 31.8252 48.3308 31.8189 48.3308 31.8104C48.3372 31.3074 48.3009 30.7705 48.2988 30.2378Z" fill="white"/>
<path d="M10.8586 41.0635V54.0071H9.72733L1.3741 43.5041V54.0071H0V41.0635H1.13124L9.50151 51.5665V41.0635H10.8586Z" fill="white"/>
<path d="M15.0449 41.0635H16.419V54.0071H15.0449V41.0635Z" fill="white"/>
<path d="M23.3974 42.2477H18.832V41.0635H29.3369V42.2477H24.7694V54.0071H23.3953V42.2477H23.3974Z" fill="white"/>
<path d="M31.749 41.0635H33.123V54.0071H31.749V41.0635Z" fill="white"/>
<path d="M38.3025 53.654C37.4184 53.3463 36.7346 52.9388 36.251 52.4337L36.79 51.3789C37.2608 51.848 37.885 52.2257 38.6647 52.5165C39.4444 52.8072 40.2476 52.9515 41.0785 52.9515C42.2416 52.9515 43.113 52.7393 43.6967 52.3127C44.2804 51.8862 44.5702 51.3365 44.5702 50.6574C44.5702 50.1396 44.4125 49.7278 44.0972 49.418C43.7819 49.1103 43.3942 48.8726 42.9361 48.707C42.4781 48.5415 41.8411 48.359 41.0252 48.1616C40.0473 47.9154 39.2676 47.6777 38.686 47.4507C38.1044 47.2236 37.6059 46.8755 37.1926 46.4065C36.7772 45.9375 36.5705 45.3029 36.5705 44.5028C36.5705 43.8492 36.7431 43.255 37.0904 42.718C37.4376 42.1811 37.9681 41.7545 38.686 41.4319C39.404 41.1115 40.2945 40.9502 41.3597 40.9502C42.1032 40.9502 42.8296 41.0521 43.5412 41.2558C44.2527 41.4595 44.8684 41.7397 45.3882 42.0962L44.9238 43.187C44.3784 42.8305 43.7968 42.561 43.179 42.3827C42.5591 42.2044 41.954 42.1153 41.3597 42.1153C40.222 42.1153 39.3635 42.3339 38.7883 42.7711C38.2131 43.2083 37.9255 43.7728 37.9255 44.4625C37.9255 44.9804 38.0831 45.3963 38.3984 45.7104C38.7137 46.0245 39.11 46.2643 39.5872 46.432C40.0644 46.5975 40.7035 46.78 41.5088 46.9774C42.4611 47.2108 43.2323 47.4422 43.8203 47.6714C44.4083 47.9006 44.9068 48.2444 45.3137 48.707C45.7227 49.1697 45.9272 49.7957 45.9272 50.5831C45.9272 51.2368 45.7504 51.831 45.3989 52.3679C45.0452 52.9049 44.5041 53.3293 43.7755 53.6434C43.0448 53.9575 42.1479 54.1145 41.0848 54.1145C40.1112 54.1167 39.1867 53.9639 38.3025 53.654Z" fill="white"/>
<path d="M57.7662 42.2459C58.7057 43.0354 59.1766 44.1199 59.1766 45.4993C59.1766 46.8809 58.7057 47.9612 57.7662 48.7443C56.8246 49.5274 55.5272 49.9179 53.8676 49.9179H50.378V54.0032H49.0039V41.0596H53.8676C55.5272 41.0617 56.8267 41.4564 57.7662 42.2459ZM56.782 47.8763C57.4616 47.316 57.8025 46.5244 57.8025 45.4993C57.8025 44.4509 57.4616 43.6466 56.782 43.0863C56.1003 42.526 55.1182 42.2459 53.8314 42.2459H50.378V48.7188H53.8314C55.1182 48.7167 56.1024 48.4365 56.782 47.8763Z" fill="white"/>
<path d="M72.3036 48.4318C72.768 48.9814 73.0002 49.686 73.0002 50.5498C73.0002 51.6597 72.5891 52.5129 71.7667 53.1114C70.9444 53.7098 69.7279 54.0091 68.1195 54.0091H62.1416V41.0654H67.7467C69.1953 41.0654 70.3181 41.3562 71.1148 41.9355C71.9137 42.5149 72.3121 43.3341 72.3121 44.3952C72.3121 45.1104 72.1353 45.7174 71.7838 46.2161C71.4323 46.7149 70.9444 47.0884 70.3266 47.3346C71.1809 47.5171 71.8391 47.8842 72.3036 48.4318ZM63.5136 42.1902V46.8868H67.6529C68.7053 46.8868 69.5149 46.6873 70.0837 46.2862C70.6525 45.8851 70.938 45.3036 70.938 44.5396C70.938 43.7755 70.6525 43.1919 70.0837 42.7929C69.5149 42.3918 68.7032 42.1923 67.6529 42.1923H63.5136V42.1902ZM70.7356 52.2879C71.33 51.8932 71.6261 51.2777 71.6261 50.4394C71.6261 48.8244 70.4501 48.0179 68.1003 48.0179H63.5157V52.88H68.1003C69.2614 52.88 70.1412 52.6827 70.7356 52.2879Z" fill="white"/>
</svg>
