<svg width="110" height="33" viewBox="0 0 110 33" fill="none" xmlns="http://www.w3.org/2000/svg">
<path d="M4.12572 6.95257C5.39756 7.37702 6.54584 8.03705 7.62808 8.81167C9.69029 10.2909 11.4713 12.0566 13.0158 14.0621C14.1385 15.518 15.1462 17.0481 16.0665 18.6377C16.2306 18.92 16.4074 19.1959 16.6844 19.6458C16.6907 19.6543 16.7057 19.6522 16.7057 19.6415C17.0657 16.1462 15.4679 11.1377 11.4074 7.49588C8.98726 5.32481 5.86199 4.08329 3.23949 3.68855C2.01025 3.50391 0.891793 3.50391 0.00981259 3.68642C0.00555182 3.68855 0.00129573 3.69279 0.00129573 3.69703C-0.00722582 4.04296 0.0289939 4.40799 0.0311243 4.77089C0.0481674 8.09647 0.0162136 11.422 0.0332567 14.7476C0.0481694 17.9034 0.0545502 21.0613 0.0758541 24.2171C0.0779844 24.8156 0.570107 25.3122 1.17088 25.3228C1.52452 25.3292 1.88669 25.3398 2.25312 25.3292C2.83258 25.3122 3.29274 24.8389 3.29913 24.2617C3.30552 23.6929 3.28848 23.1326 3.29061 22.5724C3.29274 21.8317 3.28636 21.0889 3.2821 20.3483C3.2821 20.2082 3.27996 20.066 3.27996 19.9259C3.2757 19.0431 3.27144 18.1602 3.26718 17.2795C3.26292 16.4306 3.25866 15.5817 3.2544 14.7349C3.25014 13.852 3.24588 12.9692 3.24162 12.0884C3.24162 11.9675 3.23949 11.8295 3.23949 11.681V6.72974C3.38648 6.76157 3.91268 6.88042 4.12572 6.95257Z" fill="white"/>
<path d="M23.6299 30.2378C23.6128 25.346 23.6448 20.4584 23.6277 15.5688C23.6128 10.9274 23.6064 6.28602 23.5851 1.64465C23.583 0.766033 23.0909 0.0338525 22.4901 0.0168744C22.1365 0.00626315 21.7743 -0.00859005 21.4079 0.00626574C20.8284 0.0317328 20.4087 0.729953 20.4045 1.57673C20.3981 2.4129 20.4151 3.23634 20.413 4.05977C20.4109 5.15061 20.4172 6.23933 20.4215 7.33016V7.32805V20.0764C20.4258 21.4389 20.43 23.3702 20.43 23.3702L20.4215 27.3558V28.7437C20.0742 28.6801 19.6631 28.5994 19.5374 28.557C18.2656 28.1325 17.1173 27.4725 16.035 26.6979C13.9728 25.2187 12.1918 23.4529 10.6473 21.4474C9.52458 19.9915 8.51692 18.4614 7.59659 16.8718C7.43255 16.5896 7.25572 16.3137 6.97877 15.8638C6.97238 15.8553 6.95747 15.8574 6.95747 15.868C6.59744 19.3634 8.19523 24.3719 12.2557 28.0137C14.6524 30.1635 18.2464 31.5048 20.8625 31.9122C20.8731 31.9144 20.8838 31.9165 20.8945 31.9165C20.9094 31.9186 20.9243 31.9207 20.9371 31.9229V31.9207C21.9618 32.0884 22.8949 32.0566 23.6533 31.8274C23.6576 31.8252 23.6618 31.8189 23.6618 31.8104C23.6682 31.3074 23.632 30.7705 23.6299 30.2378Z" fill="white"/>
<path d="M47.8586 10.0635V23.0071H46.7273L38.3741 12.5041V23.0071H37V10.0635H38.1312L46.5015 20.5665V10.0635H47.8586Z" fill="white"/>
<path d="M52.0449 10.0635H53.419V23.0071H52.0449V10.0635Z" fill="white"/>
<path d="M60.3974 11.2477H55.832V10.0635H66.3369V11.2477H61.7694V23.0071H60.3953V11.2477H60.3974Z" fill="white"/>
<path d="M68.749 10.0635H70.123V23.0071H68.749V10.0635Z" fill="white"/>
<path d="M75.3024 22.654C74.4183 22.3463 73.7345 21.9388 73.2509 21.4337L73.7898 20.3789C74.2607 20.848 74.8849 21.2257 75.6646 21.5165C76.4443 21.8072 77.2475 21.9515 78.0783 21.9515C79.2415 21.9515 80.1128 21.7393 80.6966 21.3127C81.2803 20.8862 81.57 20.3365 81.57 19.6574C81.57 19.1396 81.4124 18.7278 81.0971 18.418C80.7818 18.1103 80.3941 17.8726 79.936 17.707C79.478 17.5415 78.841 17.359 78.0251 17.1616C77.0472 16.9154 76.2675 16.6777 75.6859 16.4507C75.1043 16.2236 74.6058 15.8755 74.1925 15.4065C73.7771 14.9375 73.5704 14.3029 73.5704 13.5028C73.5704 12.8492 73.743 12.255 74.0902 11.718C74.4375 11.1811 74.9679 10.7545 75.6859 10.4319C76.4038 10.1115 77.2943 9.9502 78.3595 9.9502C79.103 9.9502 79.8295 10.0521 80.5411 10.2558C81.2526 10.4595 81.8683 10.7397 82.3881 11.0962L81.9237 12.187C81.3783 11.8305 80.7967 11.561 80.1789 11.3827C79.5589 11.2044 78.9539 11.1153 78.3595 11.1153C77.2219 11.1153 76.3634 11.3339 75.7882 11.7711C75.213 12.2083 74.9253 12.7728 74.9253 13.4625C74.9253 13.9804 75.083 14.3963 75.3983 14.7104C75.7136 15.0245 76.1098 15.2643 76.5871 15.432C77.0643 15.5975 77.7034 15.78 78.5087 15.9774C79.4609 16.2108 80.2322 16.4422 80.8201 16.6714C81.4081 16.9006 81.9066 17.2444 82.3136 17.707C82.7226 18.1697 82.9271 18.7957 82.9271 19.5831C82.9271 20.2368 82.7503 20.831 82.3988 21.3679C82.0451 21.9049 81.504 22.3293 80.7754 22.6434C80.0447 22.9575 79.1478 23.1145 78.0847 23.1145C77.1111 23.1167 76.1865 22.9639 75.3024 22.654Z" fill="white"/>
<path d="M94.7662 11.2459C95.7057 12.0354 96.1766 13.1199 96.1766 14.4993C96.1766 15.8809 95.7057 16.9612 94.7662 17.7443C93.8246 18.5274 92.5272 18.9179 90.8676 18.9179H87.378V23.0032H86.0039V10.0596H90.8676C92.5272 10.0617 93.8267 10.4564 94.7662 11.2459ZM93.782 16.8763C94.4616 16.316 94.8025 15.5244 94.8025 14.4993C94.8025 13.4509 94.4616 12.6466 93.782 12.0863C93.1003 11.526 92.1182 11.2459 90.8314 11.2459H87.378V17.7188H90.8314C92.1182 17.7167 93.1024 17.4365 93.782 16.8763Z" fill="white"/>
<path d="M109.303 17.4318C109.768 17.9814 110 18.686 110 19.5498C110 20.6597 109.589 21.5129 108.767 22.1114C107.944 22.7098 106.728 23.0091 105.119 23.0091H99.1415V10.0654H104.747C106.195 10.0654 107.318 10.3562 108.115 10.9355C108.914 11.5149 109.312 12.3341 109.312 13.3952C109.312 14.1104 109.135 14.7174 108.784 15.2161C108.432 15.7149 107.944 16.0884 107.326 16.3346C108.181 16.5171 108.839 16.8842 109.303 17.4318ZM100.513 11.1902V15.8868H104.653C105.705 15.8868 106.515 15.6873 107.084 15.2862C107.652 14.8851 107.938 14.3036 107.938 13.5396C107.938 12.7755 107.652 12.1919 107.084 11.7929C106.515 11.3918 105.703 11.1923 104.653 11.1923H100.513V11.1902ZM107.735 21.2879C108.33 20.8932 108.626 20.2777 108.626 19.4394C108.626 17.8244 107.45 17.0179 105.1 17.0179H100.516V21.88H105.1C106.261 21.88 107.141 21.6827 107.735 21.2879Z" fill="white"/>
</svg>
