<svg width="150" height="65" fill="none" xmlns="http://www.w3.org/2000/svg">
    <path d="M36.56 0c.188.469.656.39.999.422 2.418.203 4.648 1.047 6.863 1.922 1.84.734 3.619 1.656 5.226 2.797 2.277 1.609 4.46 3.328 6.286 5.5 1.076 1.296 2.121 2.625 3.041 4.03 1.061 1.61 2.06 3.298 2.699 5.11a53.313 53.313 0 0 1 1.669 5.703c.499 2.172.624 4.36.64 6.532 0 1.453.093 2.968-.266 4.406-.514 2.062-.858 4.156-1.606 6.172-.515 1.406-1.123 2.765-1.685 4.14-.546 1.297-1.373 2.47-2.168 3.657-1.357 2.03-3.058 3.734-4.805 5.406-1.263 1.219-2.698 2.25-4.164 3.25a25.383 25.383 0 0 1-3.526 1.984 37.26 37.26 0 0 1-3.93 1.532c-1.186.374-2.402.562-3.588.921-1.326.422-2.714.438-4.055.532-2.761.203-5.553.14-8.283-.438a38.596 38.596 0 0 1-5.382-1.594c-2.199-.812-4.211-1.89-6.192-3.109a19.625 19.625 0 0 1-3.26-2.5c-1.747-1.656-3.525-3.297-4.898-5.313-.998-1.453-2.012-2.906-2.777-4.468-.873-1.797-1.622-3.657-2.152-5.625-.468-1.766-.749-3.547-1.108-5.313-.171-.86-.062-1.718-.093-2.562-.125-2.938-.016-5.875.67-8.735a32.333 32.333 0 0 1 1.638-4.906c.687-1.625 1.435-3.203 2.387-4.672.811-1.25 1.747-2.437 2.667-3.61 1.544-1.983 3.479-3.546 5.444-5.077a24.476 24.476 0 0 1 4.461-2.782c1.638-.796 3.276-1.671 5.054-2.093 1.42-.344 2.776-1.016 4.305-.907.203.016.343-.078.375-.296C30.212 0 33.394 0 36.56 0Zm17.112 34.14c0 4.094 0 8.172.016 12.266 0 .563-.172.907-.671 1.188-.78.437-1.607.86-2.324 1.36-2.855 1.983-6.037 3.405-8.891 5.39-.25.172-.515.25-.812.078-.717-.422-1.45-.813-2.137-1.25-.561-.375-.514-.672.094-1.031.874-.516 1.747-1.016 2.62-1.532 2.684-1.578 5.35-3.172 8.05-4.718.701-.407 1.029-.844 1.013-1.703-.031-1.766.031-3.532.016-5.297-.094-5.078-.031-10.157-.047-15.235 0-1.14.156-2.281 0-3.422-.094-.687.28-1.125.796-1.39 1.31-.672 2.62-1.375 3.9-2.094.451-.25.795-.516.56-1-.264-.547-.764-.313-1.138-.078-1.373.844-2.839 1.5-4.227 2.312-.796.47-1.139.97-1.139 1.907.031 7.734.016 15.468.047 23.203 0 .89-.265 1.437-1.092 1.843-.827.422-1.607.938-2.418 1.407-2.105 1.218-4.18 2.5-6.27 3.75-2.2 1.312-4.415 2.61-6.598 3.953-.484.297-.858.375-1.326.016-.374-.282-.811-.454-1.232-.657-.281-.14-.609-.218-.609-.625 0-.36.25-.547.53-.703 1.794-1.078 3.604-2.156 5.382-3.266 3.198-1.968 6.364-3.984 9.577-5.906.796-.468 1.046-.984 1.046-1.86-.032-7.765-.016-15.515-.032-23.28 0-.625.219-1.032.749-1.313.593-.312 1.17-.656 1.763-1 1.388-.797 2.792-1.578 4.149-2.406.561-.344.483-.797-.094-1.14-.64-.376-1.123.093-1.575.343-1.888 1.031-3.728 2.14-5.6 3.203-.593.344-.89.766-.89 1.485.016 7.89.016 15.78.032 23.671 0 .735-.296 1.141-.89 1.5-1.31.782-2.588 1.61-3.883 2.422-1.466.907-2.901 1.907-4.43 2.719-2.137 1.125-4.102 2.516-6.192 3.688-1.872 1.046-3.65 2.25-5.476 3.39-.218.125-.436.203-.67.078a36.562 36.562 0 0 1-1.716-.937c-.437-.25-.452-.61-.016-.828.577-.297 1.077-.75 1.638-1.047 2.153-1.14 4.165-2.516 6.224-3.797 2.59-1.625 5.038-3.438 7.721-4.906 1.03-.563 2.121-1.094 3.01-1.907.234-.203.437-.547.703-.578.904-.156.967-.765.967-1.5-.016-7.937 0-15.89-.032-23.828 0-.734.281-1.156.89-1.5 2.183-1.203 4.351-2.422 6.52-3.61.545-.296.592-.64.124-1.015-1.622-1.312-3.416-2.328-5.303-3.203-1.529-.703-3.12-1.25-4.742-1.703-1.591-.453-3.229-.844-4.867-.922-2.48-.11-4.96-.14-7.44.39-1.45.313-2.886.641-4.274 1.11-2.277.766-4.445 1.844-6.473 3.14-.53.329-1.03.688-1.513 1.094-.624.516-.546.907.202 1.266.25.125.53.219.78.344 1.888 1 3.728 2.062 5.647 2.984.889.422 1.217.969 1.217 1.922-.016 7.89-.016 15.781-.016 23.672 0 .547.11.922.655 1.266 1.498.906 3.104 1.609 4.54 2.64.92.656 1.965 1.14 2.932 1.75.577.36.546.688-.032 1.047a38.94 38.94 0 0 1-1.762.984c-.359.188-.78.25-1.108 0-.78-.578-1.653-.953-2.464-1.468-1.607-1.032-3.323-1.86-4.93-2.907-.748-.5-1.138-.968-1.138-1.828.016-1.672 0-3.328 0-5V17.406c0-.562-.015-1.172-.561-1.453-.905-.469-1.607-1.203-2.496-1.672-.796-.422-1.591-.875-2.387-1.297-.67-.359-1.341-.703-2.027-1.015-.406-.172-.796-.063-.999.344-.187.39.094.64.39.828.219.14.453.25.687.375 1.887 1.015 3.774 2.046 5.662 3.046.452.235.592.594.592 1.079-.015 1.484-.015 2.968-.015 4.453v19.14c0 .594.062 1.172.624 1.516 1.59.969 3.213 1.89 4.804 2.844.92.547 1.825 1.093 2.714 1.656.281.188.64.469.25.797-.624.5-1.31.937-2.028 1.297-.328.172-.749.125-1.123-.094-2.511-1.5-5.007-3.016-7.534-4.484-.546-.328-.842-.797-.764-1.328.218-1.297 0-2.594.015-3.876.094-6.687.047-13.39.047-20.078 0-.53-.203-.906-.655-1.14-1.763-.89-3.525-1.766-5.241-2.735-.359-.203-.858-.296-1.092.188-.218.453.172.734.515.922.982.515 2.027.937 2.995 1.484 1.934 1.094 2.09.5 2.074 3-.031 7.61-.015 15.203-.031 22.813 0 .656.047 1.25.702 1.609.733.406 1.466.781 2.184 1.203 1.825 1.047 3.619 2.125 5.444 3.172.608.344.499.64 0 .969-.437.281-.89.531-1.31.828-.64.469-1.249.516-1.935.094-2.262-1.313-4.54-2.594-6.8-3.907-.843-.484-1.264-1.125-1.249-2.203.078-3.937.032-7.86.032-11.797 0-3.984 0-7.968.015-11.953 0-.578-.11-1.078-.686-1.375-1.014-.515-2.012-1.062-3.026-1.593-.655-.344-1.014-.172-1.31.53-1.046 2.5-1.841 5.048-2.34 7.72-.468 2.546-.39 5.093-.188 7.609.203 2.5.874 4.937 1.763 7.312 1.123 2.97 2.636 5.703 4.664 8.141 2.246 2.703 4.851 4.953 7.924 6.688 2.043 1.14 4.165 2.14 6.427 2.718 1.637.422 3.306.782 5.022.953 2.652.25 5.272.203 7.893-.203 2.152-.328 4.227-1 6.255-1.797a23.338 23.338 0 0 0 6.208-3.64c2.87-2.328 5.335-5.078 7.222-8.313 1.03-1.781 1.981-3.61 2.605-5.562.717-2.25 1.326-4.516 1.435-6.907.11-2.578.203-5.124-.437-7.656-.28-1.125-.468-2.265-.795-3.39-.375-1.266-.89-2.47-1.404-3.688-.11-.265-.343-.578-.733-.422-.796.313-1.576.64-2.168 1.282-.14.156-.281.328-.515.312-.827-.031-.967.469-.967 1.172.03 4.047.03 8.125.03 12.219Z" fill="#fff"/>
    <path d="M37.543 28.515v2.422c0 .485-.234.625-.64.407l-7.346-3.891c-.578-.297-1.14-.625-1.716-.922-.406-.203-.655-.5-.655-.969a239.477 239.477 0 0 1 0-4.734c0-.547.374-.688.857-.422 2.637 1.438 5.242 2.922 7.924 4.266 1.186.593 1.857 1.281 1.607 2.672-.094.39-.031.78-.031 1.171ZM27.17 35.078v-2.422c-.016-.703.28-1.156.936-1.453.577-.265 1.107-.656 1.653-1.015.67-.438 1.28-.454 2.012 0 1.28.78 2.652 1.421 3.978 2.14.655.344.686.719.062 1.125-2.277 1.438-4.57 2.86-6.863 4.281-.328.203-.593.5-.983.625-.53.188-.81.063-.81-.53.03-.938.015-1.845.015-2.75ZM37.543 14.64c-.265 1.438.078 2.938 0 4.438-.031.703-.327 1.156-.951 1.469-.64.328-1.295.64-1.872 1.11-.359.296-.78.374-1.232.124-1.435-.812-2.886-1.625-4.321-2.437-.203-.11-.453-.188-.468-.47-.016-.312.234-.421.452-.562 2.527-1.53 5.054-3.062 7.566-4.593.187-.11.374-.22.577-.079.374.235.202.61.25 1ZM80.998 55l.066-1.635c.022-1.077.33-1.365 1.565-1.365h65.407c1.675 0 1.896.192 1.896 1.654 0 .442.044.884.066 1.327-22.993.019-46.007.019-69 .019ZM113.934 29.568c0 6.278-.02 12.533.021 18.81 0 .913-.188 1.492-1.148 1.58-1.545.134-1.9 0-2.046-1.268-.272-2.315-.209-4.652-.021-6.99.167-2.114.042-4.23.083-6.344 0-.223-.041-.49-.313-.467-.271 0-.271.267-.313.49-.626 4.474-1.274 8.948-1.858 13.445-.105.845-.46 1.135-1.211 1.135-2.026.022-2.13-.067-2.13-2.204V10.58c0-1.335.355-1.58 2.213-1.58 1.065 0 1.128.69 1.128 1.558-.021 4.074 0 8.17 0 12.243 0 .601-.063 1.603.48 1.603.647-.022.334-.98.355-1.514.104-1.914.376-3.806.605-5.72.251-1.982.46-3.94.648-5.922.167-1.825.605-2.226 2.296-2.248.961 0 1.295.445 1.274 1.425-.021 3.227-.021 6.455-.021 9.683-.042 3.16-.042 6.322-.042 9.46ZM80.998 28.874V10.668c0-1.514.139-1.645 1.713-1.645 2.269 0 4.56.022 6.829-.022 1.041-.022 1.458.373 1.458 1.36a9740.03 9740.03 0 0 0 0 36.742c0 2.084-1.597 2.128-3.01 1.645-.647-.22-.74-.746-.74-1.338.023-2.084 0-4.168 0-6.252v-26.98c0-.264.023-.527-.023-.768-.116-.592-.486-1.053-1.134-1.031-.648 0-1.042.439-1.135 1.053-.046.285-.023.592-.023.877v32.904c0 1.71-.07 1.754-2.037 1.754-1.55 0-1.898-.329-1.898-1.776.023-6.099.023-12.219 0-18.317.023 0 .023 0 0 0ZM116.02 30.31c0-5.327-.042-10.676.021-16.003.021-1.381-.021-2.74-.042-4.122-.021-.701.36-1.118.911-1.096 1.781.066 3.583-.263 5.364.044 2.12.373 2.438 1.162 2.586 3.64.254 4.45.064 8.9.085 13.372 0 .351-.085.636-.297.899-.509.614-.488 1.272-.064 1.907.34.526.382 1.075.382 1.666 0 4.648.085 9.274-.021 13.921-.085 3.727-1.251 4.078-4.07 4.407-.976.11-1.972.022-2.968.022-1.421 0-1.845-.395-1.845-1.886-.021-1.973 0-3.946 0-5.919-.042-3.617-.042-7.234-.042-10.851Zm5.724-11.114c0-1.71-.021-3.42.021-5.152.021-.965-.233-1.535-1.293-1.49-1.145.043-1.42.262-1.42 1.49-.022 3.53 0 7.08 0 10.61 0 .855.169 1.645 1.229 1.689.996.043 1.463-.483 1.484-1.667-.021-1.841-.021-3.66-.021-5.48Zm-.191 12.43v-.329c.021-.833.042-1.666-1.124-1.644-.996.022-1.208.285-1.208 1.688 0 3.573-.021 7.147 0 10.72 0 .79-.212 1.557-.042 2.368.148.701.445 1.008 1.123 1.008.636 0 1.018-.175 1.251-.877.276-.833-.042-1.578-.042-2.367.042-3.53.042-7.037.042-10.567ZM143.971 48.978h-4.563c-1.147-.022-1.568-.466-1.358-1.53.141-.73.187-1.55.96-2.038.444-.288.421-.776.398-1.22-.117-2.393.023-4.83.327-7.158.562-4.255.328-8.532.679-12.765.374-4.61.772-9.22.866-13.852.023-.953.327-1.529 1.521-1.396.889.089 1.802 0 2.691.022.936.022 1.451.488 1.451 1.374.023 1.33.047 2.66 0 3.99-.117 3.169 0 6.36.327 9.485.539 4.81.515 9.618.866 14.406.141 1.906.422 3.79.468 5.718.024.62.211 1.307.726 1.706.749.598.678 1.352.655 2.128 0 .775-.421 1.152-1.24 1.152-1.592-.022-3.183-.022-4.774-.022Zm.608-22.384v-1.22c0-.354.094-.841-.398-.908-.561-.088-.491.443-.585.776-.468 1.618-.234 3.302-.351 4.942-.234 3.457-.07 6.915-.304 10.394-.07 1.13-.117 2.283-.398 3.391-.117.488-.163.997.351 1.285.632.355 1.381.289 2.036.09.492-.156.679-.621.585-1.087-.374-1.795-.093-3.612-.257-5.407-.375-4.1-.234-8.2-.679-12.256ZM128.004 28.878c0-5.355-.023-10.688.023-16.043 0-1.239.068-2.5 1.251-3.363.774-.576 5.623-.664 6.351-.045.888.753 1.412 1.616 1.366 2.877-.091 2.921-.022 5.82-.022 8.74v24.74c0 2.103-.365 2.546-2.482 3.01-1.707.354-3.437.266-5.03-.376-1.321-.531-1.412-1.947-1.412-3.142-.045-3.873-.022-7.745-.022-11.618-.023-1.593-.023-3.186-.023-4.78Zm3.232.045v15.246c0 .797 0 1.638 1.184 1.616 1.252-.022 1.73-.487 1.73-1.66V13.831c0-1.173-.501-1.615-1.753-1.638-1.184-.022-1.184.753-1.184 1.572.023 5.067.023 10.112.023 15.158ZM102.974 21.297v8.636c0 1.278-.237 2.4-1.516 3.14-.427.246-.782.426-1.28.426-.9.022-1.8.022-2.701.134-.948.135-1.138.516-1.138 1.324.024 4.374.024 8.747.024 13.121 0 1.548-1.209 2.333-2.701 1.705-.57-.224-.664-.673-.664-1.211.024-1.638 0-3.297 0-4.935v-32.95c0-1.547.142-1.704 1.754-1.681 1.73.044 3.46-.113 5.19.157 1.99.314 3.032 1.278 3.056 3.23-.024 3.005-.047 5.966-.024 8.904Zm-6.658.09c0 2.467.023 4.934 0 7.402 0 .852.284 1.3 1.28 1.345.995.045 1.516-.314 1.516-1.256 0-5.002.023-10.003-.024-15.005 0-.606 0-1.436-1.066-1.436-1.114.023-1.683.516-1.706 1.548v7.402Z" fill="#fff"/>
</svg>
