<svg width="127" height="60" fill="none" xmlns="http://www.w3.org/2000/svg">
    <path fill-rule="evenodd" clip-rule="evenodd" d="M50.702 60C25.449 57.944 7.096 49.967 7.096 40.424c0-7.561 11.82-14.853 29.34-18.67C15.146 24.617 0 31.566 0 40.424 0 50.824 21.974 59.07 50.702 60ZM76.15 59.976c25.277-2.056 43.605-10.033 43.605-19.576 0-7.561-11.819-14.853-29.339-18.67 21.289 2.862 36.436 9.812 36.436 18.67.024 10.4-21.974 18.646-50.702 19.576Z" fill="#fff"/>
    <path d="M63.426 31.003c3.013 0 5.456-2.147 5.456-4.796 0-2.649-2.443-4.796-5.456-4.796-3.014 0-5.457 2.147-5.457 4.796 0 2.649 2.443 4.796 5.457 4.796Z" fill="#fff"/>
    <path fill-rule="evenodd" clip-rule="evenodd" d="M66.118 3.254C65.188 1.468 64.503 0 63.426 0c-1.052 0-1.738 1.468-2.692 3.254-.93 1.787-1.713 3.916-1.713 5.213 0 2.128 1.958 3.866 4.405 3.866 2.422 0 4.38-1.738 4.38-3.866.024-1.297-.759-3.426-1.688-5.213ZM42.333 12.822c-2.227-.171-4.013-.391-4.552.416-.538.808.563 2.056 1.86 3.67 1.297 1.616 2.985 3.255 4.282 3.916 2.105 1.077 4.796.44 5.995-1.42 1.224-1.859.49-4.208-1.615-5.285-1.272-.636-3.743-1.1-5.97-1.297ZM87.235 16.909c1.297-1.615 2.398-2.863 1.86-3.67-.539-.808-2.325-.588-4.552-.417-2.227.172-4.698.637-5.995 1.297-2.104 1.077-2.814 3.426-1.615 5.286 1.224 1.86 3.89 2.471 5.995 1.419 1.297-.636 3.01-2.3 4.307-3.915ZM74.144 19.233c.905-1.37 1.541-3.988 1.786-6.362.244-2.373.538-4.258-.563-4.82-1.101-.563-2.839.611-5.04 1.982-2.203 1.37-4.479 3.18-5.384 4.551-1.468 2.227-.587 5.09 1.933 6.362 2.545 1.273 5.8.514 7.267-1.713ZM61.909 14.56c-.906-1.37-3.157-3.181-5.36-4.552-2.202-1.37-3.914-2.545-5.04-1.982-1.101.563-.832 2.447-.563 4.82.245 2.374.881 4.993 1.786 6.363 1.469 2.227 4.699 2.985 7.243 1.713 2.52-1.273 3.402-4.136 1.934-6.362ZM51.215 21.533c-1.786 0-4.698.832-7.17 1.811-2.446 1.003-4.477 1.713-4.477 2.839 0 1.125 2.006 1.86 4.478 2.863 2.447 1.003 5.359 1.835 7.17 1.835v-.025c2.936 0 5.31-2.08 5.31-4.673-.025-2.545-2.399-4.65-5.31-4.65ZM75.66 30.88c1.787 0 4.699-.831 7.17-1.81 2.447-1.003 4.454-1.713 4.454-2.838 0-1.126-2.007-1.86-4.478-2.839-2.447-1.003-5.359-1.835-7.17-1.835-2.936 0-5.31 2.08-5.31 4.674.025 2.569 2.398 4.649 5.335 4.649ZM27.626 40.106c0-2.056-.807-4.16-3.01-4.16-2.25 0-2.985 2.08-2.985 4.16 0 2.104.783 4.086 3.01 4.086 2.251 0 2.985-1.982 2.985-4.086Zm-9.347 10.4V34.184c0-.587.563-.563.563-.563h2.153s.563 0 .563.563v1.053c0 .024.024.024.024.024.025 0 .025-.025.05-.025.831-1.345 2.177-1.982 3.719-1.982 3.94 0 5.726 3.28 5.726 6.95 0 3.45-1.86 6.68-5.53 6.68-1.518 0-2.937-.66-3.769-1.933 0 0 0-.025-.024-.025h-.025s-.024 0-.024.025v5.53c0 .587-.563.587-.563.587h-2.3s-.563 0-.563-.562ZM39.715 40.228c0-.024-.025 0-.025 0-.587.514-1.786.539-2.838.734-1.077.22-2.056.588-2.056 1.909 0 1.321 1.003 1.64 2.129 1.64 2.692 0 2.79-2.203 2.79-2.961v-1.322Zm-4.968-2.642H32.3c-.563 0-.538-.392-.49-.588.49-2.863 3.206-3.744 5.85-3.744 2.495 0 5.53.563 5.53 3.67v6.73c0 .856.073 1.688.22 2.3.049.22.22.563-.343.563h-2.52c-.416 0-.514-.392-.563-.563a6.136 6.136 0 0 1-.098-.66c0-.025-.025 0-.025 0-1.1 1.15-2.691 1.566-4.208 1.566-2.374 0-4.283-1.224-4.283-3.867 0-2.912 2.154-3.621 4.283-3.915 2.129-.318 4.086-.245 4.086-1.688 0-1.517-1.028-1.738-2.227-1.738-1.125 0-1.908.392-2.178 1.37-.073.148-.146.564-.587.564ZM81.68 40.228c0-.024-.024 0-.024 0-.588.514-1.787.539-2.839.734-1.076.22-2.055.588-2.055 1.909 0 1.321 1.003 1.64 2.129 1.64 2.691 0 2.79-2.203 2.79-2.961v-1.322Zm-4.967-2.642h-2.447c-.563 0-.538-.392-.49-.588.49-2.863 3.206-3.744 5.849-3.744 2.496 0 5.53.563 5.53 3.67v6.73c0 .856.073 1.688.22 2.3.05.22.22.563-.342.563h-2.52c-.417 0-.515-.392-.564-.563a6.136 6.136 0 0 1-.097-.66c0-.025-.025 0-.025 0-1.101 1.15-2.692 1.566-4.209 1.566-2.373 0-4.282-1.224-4.282-3.867 0-2.912 2.129-3.621 4.282-3.915 2.13-.318 4.087-.245 4.087-1.688 0-1.517-1.028-1.738-2.227-1.738-1.126 0-1.909.392-2.178 1.37-.073.148-.147.564-.587.564ZM99.2 40.228c0-.024-.024 0-.024 0-.587.514-1.786.539-2.838.734-1.077.22-2.056.588-2.056 1.909 0 1.321 1.004 1.64 2.105 1.64 2.691 0 2.79-2.203 2.79-2.961v-1.322h.024Zm-4.967-2.642h-2.447c-.563 0-.538-.392-.49-.588.49-2.863 3.206-3.744 5.85-3.744 2.495 0 5.529.563 5.529 3.67v6.73c0 .856.074 1.688.221 2.3.049.22.22.563-.343.563h-2.52c-.416 0-.514-.392-.563-.563a6.162 6.162 0 0 1-.098-.66c0-.025-.025 0-.025 0-1.1 1.15-2.691 1.566-4.208 1.566-2.374 0-4.283-1.224-4.283-3.867 0-2.912 2.154-3.621 4.283-3.915 2.129-.318 4.086-.245 4.086-1.688 0-1.517-1.028-1.738-2.251-1.738-1.126 0-1.909.392-2.178 1.37-.073.148-.122.564-.563.564ZM44.34 45.954v-11.77c0-.587.562-.587.562-.587h2.178s.563 0 .563.587v1.787c0 .024.024.024.024.024.025 0 .025-.024.025-.024.636-1.615 2.324-2.717 4.013-2.717h.196c.195.025.562.123.562.588v2.25c0 .588-.342.515-.563.49-.22-.024-.464-.024-.685-.024-2.52 0-3.4 1.884-3.4 4.135v5.237c0 .563-.564.563-.564.563h-2.324c-.025.024-.588.024-.588-.539ZM53.369 45.954v-11.77c0-.587.563-.562.563-.562h2.128s.563 0 .563.587v1.15c0 .024.025.024.025.024.024 0 .048-.024.048-.024.906-1.297 2.203-2.056 3.818-2.056 1.59 0 2.985.612 3.67 2.154.734-1.126 2.056-2.154 3.793-2.154 2.667 0 4.6 1.273 4.6 4.625v8.075c0 .588-.562.563-.562.563H69.69s-.563 0-.563-.563V39.25c0-1.713-.147-3.157-2.129-3.157-1.957 0-2.3 1.64-2.3 3.279v6.607c0 .587-.563.563-.563.563h-2.324s-.563 0-.563-.563v-6.68c0-1.493.098-3.23-2.08-3.23-.685 0-2.325.44-2.325 2.985v6.925c0 .563-.562.563-.562.563h-2.325c-.025-.025-.587-.025-.587-.588ZM86.476 45.954V30.318s0-.587.563-.587h2.325c.563 0 .563.587.563.587v15.636c0 .563-.563.563-.563.563h-2.325s-.563 0-.563-.563ZM108.426 30.318v2.716s0 .587.563.587h1.419c.563 0 .563.563.563.563v1.224c0 .587-.563.587-.563.587h-1.419s-.563 0-.563.563v5.824c0 1.199.293 1.492 1.468 1.492.171 0 .343 0 .514-.024.514-.05.563-.074.563.563v1.615s0 .514-.563.587c-.465.049-.979.049-1.468.049-2.129 0-3.965-.49-3.965-3.083v-7.048s.001-.562-.562-.562h-.979s-.563 0-.563-.588V34.16s0-.563.563-.563h.979c.563 0 .562-.587.562-.587v-2.716s0-.588.563-.588h2.325c.587.025.563.612.563.612ZM101.697 30.49v1.492h.244v-.587h.196c.147 0 .245.024.294.049.098.049.146.171.146.342V32.007h.245v-.025s0-.049-.024-.073v-.245a.395.395 0 0 0-.074-.22c-.049-.074-.122-.123-.244-.147.097-.025.171-.05.22-.073.098-.05.147-.147.147-.294 0-.196-.074-.318-.221-.392a1.38 1.38 0 0 0-.391-.049h-.538Zm.88.464c0 .123-.048.196-.146.22-.049.025-.147.025-.245.025h-.245v-.538h.22c.147 0 .245.024.319.049a.315.315 0 0 1 .097.244Zm.979.294c0 .367-.122.685-.391.954-.269.27-.563.392-.955.392-.367 0-.685-.123-.929-.392a1.29 1.29 0 0 1-.392-.954c0-.367.122-.71.392-.954.269-.27.562-.392.929-.392s.686.122.955.392c.269.269.391.587.391.954Zm-1.346-1.175c.319 0 .588.123.808.343.22.22.342.514.342.832 0 .318-.122.612-.342.832-.22.22-.489.343-.808.343-.318 0-.587-.123-.807-.343a1.167 1.167 0 0 1-.343-.832c0-.318.098-.612.343-.832.22-.22.489-.343.807-.343Z" fill="#fff"/>
</svg>
