<svg width="164" height="60" fill="none" xmlns="http://www.w3.org/2000/svg">
    <g clip-path="url(#a)">
        <path fill-rule="evenodd" clip-rule="evenodd" d="M145.156 28.771c-.613.614-2.452 2.253-1.635 3.277.613.82 2.862-.614 3.679-1.638 1.226-1.434 1.84-3.687 1.84-3.687s-2.453.819-3.884 2.048Zm-12.263.614c-1.431 1.23-2.248 2.663-1.635 3.278.817.614 2.657-.615 3.679-1.844 1.226-1.843 1.635-3.482 1.635-3.482s-1.227.41-3.679 2.049Zm-16.76-11.06c3.679-2.254 13.081-11.676 10.832-13.929-2.452-1.024-8.993 9.422-10.832 13.929ZM68.51 34.506c-1.43 2.049-3.066 5.326-1.84 6.145 1.227 1.024 4.497-1.843 5.519-3.277 2.044-2.458 3.475-5.94 2.248-6.555-1.84-1.024-4.905 2.458-5.927 3.687Zm-29.228 5.121c4.701-1.434 12.264-2.663 14.92-2.867 2.249-3.483 9.198-15.363-.817-19.05L39.282 39.627ZM19.252 54.99c2.248 2.663 20.848-.204 33.316-15.771-8.79 1.433-13.899 3.277-15.738 3.891-4.088 6.76-5.723 9.013-7.358 8.808-1.84-.205 1.226-3.687 2.861-7.17-6.95 2.05-15.125 7.58-13.081 10.242Zm-7.154-39.737c11.855-4.301 25.14-7.169 38.834-5.326l1.227-2.458c2.861-.41 5.723-.819 8.584-1.024L56.86 12.18c3.679 1.638 6.745 5.53 7.153 9.627 0 5.53-2.452 10.037-5.314 14.338l4.088-.41c2.861-4.506 10.628-10.037 13.694-5.94l1.227-1.434s4.905-.819 5.11-.819c-4.497 8.398-6.95 10.651-6.337 11.47.613.82 8.993-6.35 12.06-12.494l4.904-.41-2.86 4.916c5.109-4.097 6.744-6.76 9.605-5.735 3.679 1.638-4.7 10.651-3.679 11.266.818.41 7.563-4.507 10.833-9.423l-4.701.615 1.635-2.868 4.497-.614c4.905-9.218 17.986-26.628 22.074-24.17 3.475 2.458-5.314 13.928-16.964 22.326l-.614 1.23 10.015-1.025c.205 0 .205.41 0 .615-3.27 2.662-9.606 9.422-6.131 11.675 2.861 1.024 7.562-5.94 7.971-7.17-2.657-.819-.613-8.192 3.066-7.168 2.657.82.613 4.301 0 5.735 4.905-.614 9.197-5.53 9.197-5.53 0-3.892 2.453-7.989 5.315-6.965 1.839 1.024.204 3.687-2.658 6.965-.408.41-.204 1.843-.408 3.687 3.27-1.025 6.949-2.663 10.015-4.097.204-3.892 2.044-8.398 5.11-7.374 2.248.614 0 5.326-2.862 7.579 0 4.916.818 8.398-.409 10.856-1.43 3.072-6.54 5.53-9.606 3.892-3.066-1.844-.409-5.94 1.635-7.374 1.635-1.434 5.927-3.482 5.927-3.482s.205-1.64.205-2.458c-1.635 1.024-9.811 4.096-9.811 4.096-.409 2.868-.204 4.097-1.635 6.76-1.84 3.482-7.562 4.71-9.606 2.867-1.227-1.229-.818-4.506 1.839-6.76 2.248-1.638 6.541-3.481 6.541-3.481s.408-1.639.408-2.458c-2.861 2.458-6.131 4.916-10.424 5.12-2.452 5.121-9.197 12.086-14.102 8.808-4.497-2.867 2.861-10.856 3.679-11.47-1.636 0-4.701.819-4.701.819l-8.176 15.158h.204s27.797-3.278 53.346-3.278l-3.066 2.868c1.431 1.024 2.862 2.048 4.497 2.868 0 0-26.571-1.23-57.025 1.229l-4.496 8.398-5.519.41 4.701-8.399s-13.694.41-44.148 4.507c.409-.615.409-.615.817-1.434 27.184-5.326 45.58-6.555 45.58-6.555l4.087-7.374c-2.861 2.253-8.584 7.17-11.037 4.711-1.84-2.253 4.292-9.422 3.68-9.832-.614-.614-7.972 7.17-10.63 11.266-1.634 0-4.496.41-4.496.41l2.249-4.097c-2.453 1.844-4.906 3.892-7.767 4.916-.614.41-2.453.41-3.27-1.639 0 0-5.315 4.916-8.994 3.073-2.044-1.024-1.226-4.711-.817-5.53l-4.292.41C38.26 60.314 13.734 62.772 10.668 58.061c-3.066-5.12 8.175-12.085 23.505-17.001 0 0 13.49-24.58 13.285-24.785C28.654 13.41 5.354 27.952 5.354 27.952l6.744-12.7Z" fill="#fff"/>
    </g>
    <defs>
        <clipPath id="a">
            <path fill="#fff" d="M0 0h164v60H0z"/>
        </clipPath>
    </defs>
</svg>
