<svg width="132" height="60" fill="none" xmlns="http://www.w3.org/2000/svg">
    <g clip-path="url(#a)" fill="#fff">
        <path d="M6.602 26.68c1.824.292 3.65.886 5.308 1.838 1.652.954 3.116 2.262 4.302 3.74.6.734 1.12 1.518 1.596 2.318.12.206.222.394.326.58l.32.596c.208.392.41.786.6 1.186.12.24.228.482.34.73-.918-4.37-2.066-8.284-3.486-11.924-1.526-3.9-4.158-8.688-7.82-14.22a92.054 92.054 0 0 0-.87-1.3C3.318 14.74.742 20.436.12 26.706c.342-.058.688-.11 1.03-.154a19.347 19.347 0 0 1 5.452.128ZM19.334 24.698c1.154 4.178 1.962 8.642 2.464 13.644.146 1.29.268 2.604.372 3.966.02-1.294.02-2.538 0-3.76-.078-5.332-.508-10.102-1.316-14.586-.854-4.68-2.222-9.47-4.2-14.65a117.489 117.489 0 0 0-2.138-5.214 30.588 30.588 0 0 0-3.08 2.112 116.856 116.856 0 0 1 2.21 4.128c2.542 5.024 4.404 9.724 5.688 14.36Z"/>
        <path d="M16.902 24.842c1.31 3.402 2.294 6.504 3.018 9.496a87.006 87.006 0 0 1 1.274 6.498 95.54 95.54 0 0 0-.16-1.812l-.058-.584c-.046-.42-.098-.824-.146-1.232-.33-2.518-.812-5.142-1.482-8.02-.564-2.424-4.672-14.992-6.44-18.48A109.63 109.63 0 0 0 10.78 6.73a29.78 29.78 0 0 0-3.002 2.854c.34.502.672.99.998 1.486 1.76 2.66 7.038 10.96 8.126 13.772ZM21.656 23.818c.802 4.418 1.234 9.108 1.33 14.332.042-1.942.16-13.842.16-13.842l-.098-1.128c-.436-4.738-1.336-9.652-2.738-15.012a137.664 137.664 0 0 0-1.75-6.078c-1.15.466-2.258.998-3.33 1.596a115.988 115.988 0 0 1 2.192 5.332c1.996 5.226 3.378 10.07 4.234 14.8ZM34.382 14.342a970.814 970.814 0 0 1-1.538 6.214A270.276 270.276 0 0 1 28.21 36.99a295.531 295.531 0 0 1-3.282 9.75c.01-.026.022-.046.036-.072a242.871 242.871 0 0 0 3.07-6.406c1.626-3.526 6.26-11.914 7.038-13.51 1.05-2.154 2.092-4.308 3.158-6.474a187.943 187.943 0 0 1 8.312-15.152 29.624 29.624 0 0 0-8.838-4.116 1113.742 1113.742 0 0 0-3.16 12.662l-.162.67ZM27.748 20.476c-.156 3.284-.456 6.72-.9 10.206-.084.808-.176 1.632-.274 2.454-.294 2.51-.618 4.718-.988 6.746-.348 1.93-.768 3.946-1.28 6.152a284.506 284.506 0 0 0 3.116-9.29A273.897 273.897 0 0 0 32.05 20.36c.548-2.21 1.094-4.422 1.642-6.64l.052-.224c1.03-4.18 2.072-8.43 3.164-12.698a29.757 29.757 0 0 0-7.178-.876c-.802 0-1.596.04-2.386.108.104 1.372.188 2.704.264 4.014.334 5.984.38 11.362.14 16.432ZM35.894 26.946l-.078.164c-3.19 6.562-6.466 13.294-9.982 19.998.078-.108.154-.212.224-.322 1.466-2.15 2.88-4.252 4.198-6.25 1.682-2.568 11.154-15.244 12.836-17.532 2.956-4.018 6.24-8.048 9.788-12.018A29.89 29.89 0 0 0 47.214 5.6a188.43 188.43 0 0 0-8.244 15.038c-1.024 2.086-2.046 4.194-3.076 6.308ZM33.378 38.088c-1.754 2.506-3.526 5.04-5.332 7.59 1.548-1.832 3.082-3.644 4.582-5.432l.052-.058c3.21-3.812 6.53-7.752 9.896-11.626A233.025 233.025 0 0 1 54.098 16.29c.48-.47.954-.942 1.444-1.418a30.086 30.086 0 0 0-2.144-3.226 160.452 160.452 0 0 0-9.642 11.848c-3.538 4.814-7.016 9.788-10.378 14.594ZM41.146 36.56c-1.688 1.512-3.388 3.05-5.076 4.582 7.338-6.064 14.876-12.204 22.588-18.04l.078-.058a32.1 32.1 0 0 0-.28-1.15 435.846 435.846 0 0 0-7.494 6.158 409.79 409.79 0 0 0-9.816 8.508ZM41.968 33.478c-2.764 2.802-5.552 5.682-8.248 8.466l-.27.28c-.508.524-1.016 1.05-1.528 1.576.03-.026.056-.048.088-.072 2.782-2.542 5.666-5.164 8.59-7.782a401.557 401.557 0 0 1 9.834-8.524 438.837 438.837 0 0 1 7.776-6.394c-.222-.74-.48-1.466-.762-2.184a332.276 332.276 0 0 0-5.07 4.588 305.557 305.557 0 0 0-10.41 10.046ZM43.2 29.1c-3.292 3.784-6.536 7.634-9.678 11.362.208-.222.418-.45.632-.678l.482-.524c3.848-4.152 15.186-14.596 17.18-16.434a362.54 362.54 0 0 1 5.304-4.794 27.71 27.71 0 0 0-1.16-2.42c-.43.424-.858.84-1.278 1.258A229.714 229.714 0 0 0 43.2 29.1Z"/>
        <path d="M23.87 23.102c.436 4.682.488 9.62.17 15.106-.13 2.326-.332 4.738-.61 7.362a194.165 194.165 0 0 0 1.688-8.768c.352-2.112.656-4.204.91-6.22.156-1.424.286-2.852.424-4.272l.032-.352.052.006c.176-1.86.302-3.718.392-5.526.242-5.042.196-10.396-.144-16.356A180.53 180.53 0 0 0 26.526.09a29.42 29.42 0 0 0-7.198 1.702c.672 2.148 1.264 4.2 1.78 6.166 1.416 5.408 2.318 10.366 2.762 15.144Z"/>
        <path d="M49.854 43.638c-3.24.172-6.446.632-9.58 1.372-3.134.74-6.184 1.782-9.17 3.008a67.37 67.37 0 0 0-8.74 4.372l-.71.42.136-.674v-.004c-.136-1.652-.476-3.314-.912-4.924a34.75 34.75 0 0 0-1.668-4.706 32.637 32.637 0 0 0-2.334-4.36 24.505 24.505 0 0 0-.684-1.02l-.346-.492c-.13-.17-.254-.342-.372-.488a11.33 11.33 0 0 0-1.596-1.648c-1.172-.988-2.496-1.714-3.864-2.32a34.248 34.248 0 0 0-4.288-1.57c-1.832-.534-3.754-.928-5.752-1.284 0 .12-.006.238-.006.358 0 .156.01.312.01.47h.006l.154 2.528h-.02c1.502 15.028 14.184 26.76 29.61 26.76 10.01 0 18.864-4.944 24.258-12.52l.156-.066s1.14-1.72 1.968-3.24a60.986 60.986 0 0 0-6.256.028Z"/>
        <path d="M59.486 29.678a30.1 30.1 0 0 0-.558-5.748c-8.528 6.466-16.84 13.296-24.912 19.982a40.224 40.224 0 0 1 15.83-2.496c2.32.104 4.634.404 6.888.912a.323.323 0 0 0-.006-.124 29.64 29.64 0 0 0 2.758-12.526ZM79.1 19.104h-6.244v6.038h7.24v1.778H70.51V10.09h9.508v1.802h-7.162v5.422H79.1v1.79ZM93.404 26.92h-2.326l-6.386-12.518-.072.026V26.92h-2.346V10.09h2.346L91 22.574l.078-.02V10.09h2.326v16.83ZM107.814 26.92h-2.326v-7.422h-6.452v7.422h-2.354V10.09h2.354v7.616h6.452V10.09h2.326v16.83ZM119.676 19.104h-6.238v6.038h7.234v1.778h-9.586V10.09h9.514v1.802h-7.162v5.422h6.238v1.79ZM125.202 25.142h6.562v1.778h-8.908V10.09h2.346v15.052ZM74.414 38.192c-.926-.068-1.648.15-2.184.648-.444.45-.672 1.068-.672 1.85 0 .73.214 1.482.646 2.252.378-1.104 1.024-2.526 1.962-4.278l.248-.472Zm-1.356 5.798c.822.786 1.734 1.252 2.75 1.402.136-.182.268-.362.392-.538a2.85 2.85 0 0 0 .306-.538c.554-1.114.828-2.15.828-3.098 0-1.43-.548-2.342-1.648-2.728-.352.586-.69 1.186-1.01 1.806a28.803 28.803 0 0 0-.912 1.87 14.707 14.707 0 0 0-.706 1.824Zm4.152 1.378c1.35-.218 2.582-.902 3.702-2.05.11-.084.196-.128.248-.128.098 0 .15.058.15.172 0 .15-.084.286-.248.404-1.42 1.264-2.848 1.988-4.302 2.17-.998 1.07-2.06 1.604-3.174 1.604-1.284 0-1.93-.658-1.93-1.974 0-.436.078-.942.228-1.524-.912-1.016-1.376-2.166-1.376-3.448 0-.854.242-1.558.724-2.124.554-.602 1.298-.902 2.256-.902.176 0 .372.014.574.036.202.026.398.058.6.092 2.066-3.832 3.8-6.426 5.2-7.774.162-.15.41-.228.724-.228.6 0 .9.144.9.43 0 .082-.046.162-.124.248-1.356 1.284-3.168 3.842-5.456 7.674 1.72.798 2.58 2.108 2.58 3.926 0 1.112-.43 2.242-1.276 3.396Zm-1.878.548c-.88-.114-1.714-.46-2.502-1.024a3.956 3.956 0 0 0-.098.896c0 .818.26 1.226.776 1.226.522 0 1.126-.366 1.824-1.098Z"/>
        <path d="M85.01 41.366c.312-.532.476-.994.476-1.372 0-.302-.104-.454-.306-.454-.346 0-.828.41-1.446 1.222-.6.834-1.076 1.668-1.428 2.502 1.324-.414 2.216-1.048 2.704-1.898Zm4.596 2.35c-.6.734-1.544 1.434-2.848 2.098-1.434.75-2.686 1.128-3.748 1.128-1.55 0-2.326-.85-2.326-2.552 0-.616.216-1.35.626-2.2.418-.9.944-1.648 1.578-2.248.71-.684 1.388-1.026 2.02-1.026.834 0 1.252.41 1.252 1.226 0 .498-.216 1.034-.652 1.6-.762.948-1.876 1.61-3.35 1.974a3.966 3.966 0 0 0-.098.9c0 1.134.522 1.7 1.576 1.7.834 0 1.864-.342 3.096-1.024a14.91 14.91 0 0 0 1.48-.938c.418-.31.762-.622 1.05-.938.312-.332.47-.352.47-.052a.699.699 0 0 1-.126.352Z"/>
        <path d="M93.88 40.418c-1.382-.032-2.574.932-3.572 2.9-.286.528-.424 1.004-.424 1.42 0 .45.156.678.47.678.3 0 .698-.202 1.172-.6.874-.736 1.434-1.466 1.708-2.202.112-.834.328-1.564.646-2.196Zm6.224 3.298c-1.948 2.066-3.604 3.024-4.972 2.874-.45-.046-.866-.322-1.252-.822-.384-.57-.618-1.278-.698-2.128-.32.434-.638.83-.964 1.186a9.28 9.28 0 0 1-1.036.988c-.664.534-1.212.802-1.648.802-.62 0-.926-.392-.926-1.174 0-.668.234-1.362.704-2.078 1.082-1.65 2.294-2.79 3.65-3.422.58-.268 1.122-.402 1.616-.402.144 0 .28.024.444.062.156.042.3.102.45.176.136.076.254.164.352.264.084.098.13.216.13.348 0 .052-.026.098-.084.136a.622.622 0 0 1-.196.098c-.078.03-.15.056-.214.092-.066.032-.104.058-.104.072-.612 1.118-.926 2.184-.926 3.2 0 1.268.496 1.9 1.48 1.9 1.03 0 2.326-.824 3.872-2.474.118-.15.234-.224.352-.224.084 0 .124.058.124.172a.517.517 0 0 1-.154.354Z"/>
        <path d="M107.084 40.242c-.972 1.916-1.46 3.408-1.46 4.47 0 .838.332 1.252 1.004 1.252 1.05 0 2.372-.858 3.976-2.574.15-.15.274-.222.378-.222.078 0 .124.058.124.176 0 .13-.058.248-.176.346-1.936 2.066-3.584 3.034-4.954 2.9-.352-.016-.672-.206-.972-.574-.352-.398-.528-.91-.528-1.526 0-.266.046-.584.13-.952-1.218 1.454-2.158 2.334-2.828 2.652-.398.182-.75.274-1.05.274-.762 0-1.148-.434-1.148-1.3 0-.932.462-2.238 1.394-3.926.17-.3.522-.45 1.056-.45.312 0 .424.118.346.352-.13.268-.274.528-.41.776-.144.248-.28.508-.41.776-.482.964-.73 1.698-.73 2.196 0 .618.15.926.45.926.704 0 1.532-.658 2.502-1.974.866-1.166 1.532-2.366 1.994-3.598.182-.234.508-.352.978-.352.254 0 .378.068.378.202a.457.457 0 0 1-.044.15Z"/>
        <path d="M110.728 39.668h.364c.124 0 .254-.01.392-.026a1.57 1.57 0 0 1 .306-.026h.392c.11-.214.28-.524.502-.922.208-.4.488-.902.822-1.502.182-.332.398-.69.652-1.076.248-.384.528-.808.848-1.278.332-.33.782-.496 1.356-.496.476 0 .716.124.716.374 0 .05-.02.108-.072.176a57.766 57.766 0 0 0-1.324 1.9c-.534.778-1.16 1.73-1.876 2.848h3.904c.248.084.372.19.372.326 0 .248-.3.404-.9.476-.104.014-.47.026-1.102.026-.632 0-1.552.006-2.75.02-.814 1.532-1.224 2.786-1.224 3.754 0 1.082.47 1.624 1.402 1.624.462 0 .964-.15 1.498-.45.366-.218.75-.488 1.14-.814.392-.32.802-.72 1.232-1.186.17-.166.306-.242.404-.224.084 0 .124.058.124.176 0 .102-.04.208-.124.322-1.884 1.982-3.506 2.95-4.848 2.904-1.068-.036-1.708-.584-1.93-1.652a4.666 4.666 0 0 1-.072-.502 4.1 4.1 0 0 1-.026-.496c0-1.02.28-2.17.854-3.454-.372.02-.632.026-.788.026-.162 0-.208.01-.144.026-.378-.052-.586-.216-.626-.502-.048-.248.128-.372.526-.372Z"/>
        <path d="M122.902 39.868c.098-.268.332-.4.698-.4.372 0 .554.134.554.4.032 1.15-.294 3.144-.978 5.972.646-.098 1.2-.118 1.65-.052 1.252.15 1.876.57 1.876 1.252 0 .42-.248.86-.75 1.326-.066.068-.13.098-.196.098-.104 0-.15-.04-.15-.124 0-.068.026-.134.098-.198.346-.316.522-.618.522-.9 0-.55-.548-.824-1.65-.824-.182.014-.404.036-.678.062-.268.022-.574.066-.926.114-.984 3.732-2.6 6.73-4.868 8.998a14.92 14.92 0 0 1-4.276 3.072c-1.734.864-3.428 1.3-5.076 1.3-1.252 0-2.242-.312-2.978-.938-.724-.626-1.094-1.436-1.094-2.438 0-1.166.586-2.356 1.752-3.572 1.278-1.352 3.148-2.574 5.604-3.676 2.458-1.102 5.656-2.15 9.594-3.148.13-.55.28-1.232.456-2.052.176-.814.378-1.772.612-2.874-1.18 2.248-2.43 3.852-3.748 4.8-.404.302-.762.45-1.076.45-.534 0-.802-.342-.802-1.026 0-.944.612-2.532 1.824-4.748.084-.146.248-.296.488-.436s.45-.212.612-.212c.13 0 .202.048.202.15 0 .016-.02.076-.052.176a18.98 18.98 0 0 0-.658 1.262c-.26.524-.566 1.164-.918 1.912-.234.616-.346 1.114-.346 1.498 0 .352.11.528.32.528.254 0 .664-.286 1.226-.854.726-.718 1.762-2.35 3.132-4.898Zm-1.422 7.022c-1.806.502-3.18.9-4.126 1.2-.998.32-1.93.632-2.776.938-.854.31-1.636.628-2.352.962-1.016.47-1.916.972-2.698 1.512-.782.544-1.44 1.13-1.974 1.766-.932 1.118-1.402 2.19-1.402 3.224 0 .9.306 1.596.932 2.086.612.492 1.428.74 2.444.74 2.13 0 4.288-.968 6.452-2.904 2.548-2.316 4.38-5.49 5.5-9.524Z"/>
    </g>
    <defs>
        <clipPath id="a">
            <path fill="#fff" d="M0 0h131.8v60H0z"/>
        </clipPath>
    </defs>
</svg>
