<svg width="104" height="60" fill="none" xmlns="http://www.w3.org/2000/svg">
    <path d="M84.143 27.813a12.589 12.589 0 0 1-3.069-.647 10.219 10.219 0 0 1-3.575-2.097 9.952 9.952 0 0 1-2.385-3.395 11.557 11.557 0 0 1-.887-4.632V.077h-9.084V18.1c0 .494.035 1.126.111 1.904.097.912.275 1.814.531 2.694.31 1.067.713 2.105 1.205 3.101a15.939 15.939 0 0 0 2.173 3.284 19.783 19.783 0 0 0 3.311 3.064 21.15 21.15 0 0 0 4.76 2.603l.141.047c1.952.56 3.944.968 5.958 1.222 1.127.138 2.26.203 3.395.192.546 0 1.092 0 1.645-.02l.805-.012 4.138-.434V.076h-9.173v27.736ZM103.696 27.432h-8.434v14.003h8.434V27.432ZM60.704 31.901a42.066 42.066 0 0 0-1.045-3.047 47.897 47.897 0 0 0-1.582-3.649 28.234 28.234 0 0 0-2.242-3.815 23.374 23.374 0 0 0-2.963-3.457 10.752 10.752 0 0 0-.69-.607 23.35 23.35 0 0 0 2.685-3.153 28.11 28.11 0 0 0 2.222-3.817 45.737 45.737 0 0 0 2.627-6.694c.262-.889.435-1.516.528-1.914l.302-1.671h-9.383l-.111 1.069a23.882 23.882 0 0 1-1.408 4.592 16.42 16.42 0 0 1-2.432 4.094 12.056 12.056 0 0 1-3.355 2.852 7.148 7.148 0 0 1-1.637.674V.077h-9v35.528h9.007v-13.58c.92.12 1.81.415 2.617.871a12.059 12.059 0 0 1 3.356 2.845 16.42 16.42 0 0 1 2.43 4.094 23.881 23.881 0 0 1 1.407 4.592l.227 1.18h9.383l-.413-1.782a45.795 45.795 0 0 0-.53-1.924ZM18.916 8.27V0H0v7.914h9.711v27.659h9.215V8.269h-.01ZM28.928 0H20.98v7.914h7.948V0Z" fill="#fff"/>
    <path fill-rule="evenodd" clip-rule="evenodd" d="M0 41.481h103.951V60H0V41.481Zm17.53 11.035h-1.248l.015-6.837H13.94v6.793h-3.43v-6.793H8.148v8.54h7.277v3.065h2.106v-4.767Zm8.599 1.797a4.385 4.385 0 0 1-3.225-1.142 4.306 4.306 0 0 1-1.166-3.228 4.747 4.747 0 0 1 1.077-3.327 3.828 3.828 0 0 1 2.99-1.177 3.758 3.758 0 0 1 2.82 1.032 3.902 3.902 0 0 1 .997 2.859v1.132h-5.537c-.01.575.2 1.132.589 1.556a2.076 2.076 0 0 0 1.544.56c.492.002.982-.053 1.46-.165a7.109 7.109 0 0 0 1.436-.5v1.806c-.414.207-.853.36-1.306.454a8.225 8.225 0 0 1-1.68.14Zm-.33-7.213h-.01a1.533 1.533 0 0 1 1.177.474c.31.372.47.847.448 1.332H24.14c.013-.487.188-.956.499-1.332a1.495 1.495 0 0 1 1.15-.474h-.01.02Zm11.07 1.808v-3.229h-2.301v8.395h2.326v-3.459h3.25v3.459h2.325v-8.395h-2.35v3.229h-3.25Zm18.44-3.229v1.722h-2.872v6.673h-2.395v-6.673H47.16v-1.722h8.149Zm7.997 8.442c.433.192.907.282 1.383.262a3.136 3.136 0 0 0 1.806-.508c.55-.392.97-.93 1.204-1.549.307-.775.457-1.6.44-2.43a5.325 5.325 0 0 0-.895-3.279 2.904 2.904 0 0 0-1.091-.892 3.032 3.032 0 0 0-1.4-.29 2.94 2.94 0 0 0-1.457.309 2.802 2.802 0 0 0-1.093.974h-.11l-.346-1.122h-1.994v12.429h2.45v-3.496c0-.11-.042-.528-.126-1.252h.126c.292.362.67.651 1.103.844Zm-.074-6.667c.23-.093.48-.131.73-.112v-.02c.257-.013.512.044.737.163.226.12.413.296.54.51.306.593.445 1.252.403 1.912 0 1.74-.548 2.61-1.644 2.61a1.594 1.594 0 0 1-.765-.13 1.527 1.527 0 0 1-.6-.473 3.556 3.556 0 0 1-.43-2.012v-.252a3 3 0 0 1 .434-1.775c.161-.184.365-.328.595-.42Zm8.373-1.775h2.548l1.613 4.826c.153.487.248.99.283 1.499h.045c.054-.51.165-1.013.329-1.499l1.582-4.826h2.489l-3.608 9.682a4.211 4.211 0 0 1-1.419 1.998 3.559 3.559 0 0 1-2.15.665 5.217 5.217 0 0 1-1.184-.13V56.04c.3.068.607.102.915.1.395.005.78-.129 1.085-.38.343-.307.593-.705.722-1.148l.134-.42-3.384-8.513Zm22.002 8.395h2.195v-8.37h-3.204l-1.537 3.673c-.11.274-.216.578-.312.905a31.71 31.71 0 0 0-.396 1.62c-.062-.434-.15-.864-.266-1.287-.114-.45-.257-.893-.427-1.326l-1.487-3.61h-3.235v8.395h2.21v-6.59l.146.49c.187.786.424 1.56.708 2.318l1.552 3.782h1.673l1.507-3.752a20.49 20.49 0 0 0 .748-2.398l.126-.464v6.614Z" fill="#fff"/>
</svg>
