<svg width="225" height="60" fill="none" xmlns="http://www.w3.org/2000/svg">
    <path d="M46.8 14.5v-.3l.1-.2-.2-.3-.2-.1v.3l-.1.2-.1.4.4.1.1-.1Z" fill="#fff"/>
    <path d="M58.1 21.8c-.3-1-.6-1.9-.9-2.8v-.2c-1.4-3.6-3.4-6.9-6.1-9.7H51c-2.8-2.8-6.1-5.1-9.7-6.7C37.6.8 33.7 0 29.7 0s-7.9.8-11.6 2.3C14.5 3.9 11.2 6.2 8.4 9h-.1c-2.7 2.9-4.9 6.2-6.3 9.9v.1c-.1.1-.1.1-.1.2-.3.9-.6 1.7-.8 2.6-1.5 5.5-1.4 11.3.3 16.7v.1c1.8 5.9 5.5 11 10.4 14.7 5.1 3.8 11.2 5.9 17.6 5.9 6.4 0 12.6-2 17.7-5.8 4.9-3.6 8.5-8.6 10.5-14.4 1.8-5.5 2-11.4.5-17.2ZM25.5 1.3h.3l-.1-.2c.3 0 .5-.1.8-.1l.2.1 1-.1 1.4.2h.1V2c-1.1 0-2.2.1-3.2.3l-.3-.3v-.3l-.3-.1.1-.3ZM29.1 4v.5l-.6-.1v-.3l.1-.2h.3l.2.1Zm-3.7-.5.9-.2.1-.3c.3 0 .6-.1.9-.1l.2.1-.3.6v.6l-.2.4h-.4l-.2-.1.2-.2-.2-.1v-.3l-.2-.2-.3.1-.2.3-.3-.3v-.3Zm0 2 .3.2.4-.1.6.4.9.2.2-.2.7-.1.2.1.4-.1v.2h-.4l-.8.1-.4.3.3.4.2.2-.4.4V8l-.7-.3-.8-.4-1.1.5-.4-.2c-.9-1.1-1.8-2.2-2.8-3.2.3-.1.5-.2.8-.3l-.2.6.1.3.4-.2 1.1.3.8.4h.6ZM12 22.6l-.4.5-.2.1c-.1-.4-.1-.7-.2-1.1l.7-.2 1.2.3.3-.2h.4l.3.3-.3.6-1-.3H12Zm.4 3c-.1 0-.1.1-.2.1-.1-.1-.1-.1-.1-.2l.3.1Zm-4.9-2.2-.1-1.2.2-.5-.7-1.6-.6-.1-.1-.5.6-.1h.4l.1-.3c1-.4 2.1-.8 3.2-1.1-.1.3-.1.6-.1.9l-.3.2-.6.3-.2.6.5 1-.4.2-.4-.3-.1-.3-.2-.1-.3 1.1-.3.3.4 1.2.6.3.7-.4.2.2.6-.1c.1.4.2.7.3 1.1l-.1.1.1.1c.1.2.1.4.2.6l-.4-.5-.4.3-.1.4-.4-.1.1-.4-.3-.1-.4.1-.3.3-.4.3v.6l-.2.2-.3-.6v-.7l.1-.1v-.5l-.6-.8Zm9.4-13.9-.1.1c-.7-.2-1.3-.4-2-.5.6-.7 1.3-1.3 2-1.9l.1 1-.1.6.1.7Zm0 .9.2 1 1.4.1.6.6.6-.1.6.2.3.3.6-.1 1.5.6.5.6.7-.3.2-.2c1.3.6 2.5 1.1 3.8 1.7-5.6 0-11.2.6-16.7 1.9.5-2.5 1.6-4.9 3.2-6.9.8.1 1.6.4 2.5.6Zm2.7-5c.4-.3.8-.5 1.3-.7.5.6 1.1 1.2 1.8 2h-.5l-.4-.5h-.7l-.2-.5-.4-.2h-.6l-.3-.1Zm3.1 1.3c.2.2.3.4.5.6l-.2-.1-.3-.5Zm3.1 4.6.2-.1.1-.1c.7 1 1.4 2 2.2 3.1-1-.5-2-1-3-1.4l.6-.7.1-.3-.2-.5Zm1.9 4.2c-3.5 1.8-6.9 3.9-10.2 6.1l.1-.5-.5-.6-1.1-.7-1.5-.4-2.1-.2-.6-.3-.5-.5-.4-.2h-.1c0-.2.1-.5.1-.7 5.5-1.3 11.1-2 16.8-2Zm-10.9 6.8c-.6.4-1.2.9-1.8 1.3l.3-.5 1.1-1 .4.2Zm-2.4 1.6c-.1.1-.2.1-.3.2l.1-.1.2-.1Zm-4.6 3.4 1-1.3.5-.3.1-.1c.1.2.1.4.2.6l-1.8 1.5v-.4Zm18.5-11.2c-3.6 5.7-6.9 11.6-9.6 16.9-2.6-1.6-4.8-3.9-6.2-6.7 5-3.9 10.3-7.3 15.8-10.2Zm.8.4v19.6c-3.4 0-6.8-.9-9.7-2.6 2.9-5.6 6.3-11.7 9.7-17Zm-2.4-6 .1-.1v.1l.6.3 1.3-.3.4-.3v3.7c-.9-1.2-1.6-2.4-2.4-3.4ZM21 3.1l1 .1.1-.2.9-.5.4.4.5-.1h.1c-.5.1-.9.2-1.4.4l-.3.1c-.4.2-.8.3-1.2.5-.3-.3-.6-.5-.8-.7h.7Zm-4 .6.4-.1.2-.1h.3l.6-.1.5-.1.2-.1c.4.3.7.6 1.1.9-.8.3-1.5.7-2.2 1.2h-.5l-.5.4-.6.2-.4.4.3.3c-.9.7-1.7 1.5-2.4 2.4-1.4-.3-2.9-.4-4.3-.3 2.2-2.1 4.7-3.8 7.3-5Zm-8.3 6c1.5-.4 3.1-.4 4.7 0-1.7 2.1-2.8 4.6-3.2 7.3-.8.2-1.6.5-2.3.7l.3-.3.4-.2.5-.1.1-.6.4.3.2-.8-.4-.2h-.5l-.3.2-.3-.1.1-.3-.5-.5-.4.2-.3-.2-.2.6v.6l.4.2.4-.4v.6l-.3.3-.3-.4-.2-.1-.3.3-.4-.2-.2.4.1.2-.1.4v.3h-.3v-.6l-.4.3-.3.7-.4.6-.6.3.5-2.1v-.7l-.5.6-.3.1-.5.5c1.4-2.9 3.2-5.6 5.4-7.9ZM3 18.3v.2h-.1c0-.1 0-.1.1-.2Zm-.3 15.6-.2-1.1-.3-1-.3-.2-.3-1.8.1-.4v-2.5l.3-.2v-.2l.2-.5-.1-1 .1-3.2.3-.5H3v.4l.2.4.2-.2v.4l-.1.9.3.7v.7L3 25.9l-.2 1.6h-.4v-.7l-.3.2v1.6h.4l.5.4.3-.2.1-.5.1-.6.3-1.5.2-.4.1-.5.2.1v.4l-.1.4-.1 1.7-.2 1.1-.5.7-.4 1.5.2 1.1.5-.4.4.9-.3 1c-.3.4-.6.7-.8 1.1l-.3-1Zm1.8 3 .5.5.5.1-.2.5-.8.3-.3-.4-.4-1-.5-.7-.1-.3c.2-.4.4-.7.7-1.1l.1.2.3.3.2.4 1 1.3-.1.3-.5-.4-.1-.4-.4-.4v.5l.1.3Zm3.5-.5-.1.3.2.6-.5.2-.6-.7-1-2.3-.7-.6-.2-.7c.4-.4.8-.9 1.2-1.3h.3l.1.4.2.7.3.1.2.4.1.3v-.1l.5.2.2.3.6.2.1-.1.2.1.5-.1.4-.2-.4-.8-.4-1.2v-.7l.3-.6-.5-.6.6-.7.2-.5c.7-.7 1.5-1.3 2.3-2 1.5 2.8 3.8 5.2 6.5 6.9-.8 1.7-1.6 3.3-2.3 4.9l-.2-.3-.6-.4H15l-.9-1.5-.5-.4h-1l-.3.3-.7-.1-.4.2.1.6.2.2v.9l.3.3.5.1.2.3.4.3-.1.3-.2.3-.6-.5-.2.3-.3.3v.6l.2.6v.1l-.2.2v.6l-.2.3v.4l.3.4-.2.7-1.1-.9-.5-.8v-.5l.8-.4-.3-1.1-.1-.1v.1h-.4l-.1-.2-.6-1.6-.2-.1-.3-.8-.6-1.1Zm9.1 2.7-.2.2-.2-.1c0-.2.1-.3.2-.5l.2.4Zm-5.5 13.1c-.9-.8-1.8-1.6-2.7-2.5h.6l.2-.1.6-.1.6.5.3.1.3.2.3.1c-.1.6-.2 1.2-.2 1.8Zm.5-3.1-.2-.2-.3-.8-.9-.2-.9-.8-.2-.6-.4-.2V46l-.2-.4.6.6v.1l.4.4 1.4 1.1.3.1c.1 0 .1.1.2.1v.5l.3.3c0 .1-.1.3-.1.3Zm17.1 9.2c-6-.1-11.9-2-16.7-5.6-.1-.7-.1-1.5.1-2.2h.6v-.2l-.2-.2-.3-.4c0-.1.1-.2.1-.3l2.6 1.7.9.4.6.6 1 .7.6.7 1.1.3.1.4.4.7 1.9 1.3 1.6.3.2.2 1 .2.2-.1-1-.5-.2-.3H25l2.4-.4.4-.3h1.4v3ZM29 43.4l-.7.1-.2-.4h-.6l-.9-1-.7.1-.9-.2-1.2-2.5-1 .2-1.2-1.5-.7-.4-.4.1-1.3-.1-1.5-.5-.1.7-.4.1c0-.1.1-.1.1-.2.5-1.2 1.2-2.4 1.8-3.7 3 1.7 6.5 2.7 10 2.7l.2 6.4-.3.1Zm27.1-8.3c-2.4-3.4-5.4-6.3-8.7-8.8 1.2-2.6 1.7-5.5 1.4-8.4 4.1 1.1 6.9 2.6 8.3 4.1.8 4.4.5 8.9-1 13.1Zm-13.8 4.5-.4.7-1 .3-1.6 1-.3.3-1 .3-.8-.4-1.4.5-.7-.1-.2-.5-1.5-.2-.4.7.2.3-.4.5-1.1-.1-.3-.3-.9-.2-.6.3v-5.8c3.5 0 6.9-1 10-2.7.5 1.1 1 2.2 1.5 3.2.3.6.6 1.1.8 1.7v.2l.1.3Zm-12.4-3.5V16.5c3.6 5.5 6.8 11.1 9.7 17-3 1.6-6.3 2.6-9.7 2.6Zm.8-19.9c5.5 3 10.8 6.4 15.8 10.3-1.5 2.7-3.6 5-6.2 6.6-2.9-5.8-6.1-11.5-9.6-16.9Zm.4-.7c5.7.1 11.4.7 16.9 2.1.4 2.8 0 5.6-1.2 8.1-4.9-3.8-10.2-7.2-15.7-10.2Zm25.2 3.8c.2.4.3.8.4 1.2-2.5-1.7-5.2-2.9-8.1-3.6-.2-1.1-.5-2.2-.9-3.2l.2-.5-.4-.4.1-.2-.1-.4h.4l-.1-.3-.3-.4.1-.4 2.2 2.3.2-.1-.4-.6-1.2-1.4-.7-.6-.2-.1-.1-.6-.7-.5c1.3-.1 2.5 0 3.7.3 2.6 2.8 4.7 6 5.9 9.5ZM42.8 4.2c.1 0 .2.1.3.2v-.1l.1.1c2.2 1.2 4.3 2.7 6.2 4.5-1.4-.2-2.8-.1-4.1.1l-.1-.2-.2-.2-.2.1-.2-.2-.3-.7-.3-.3-.4-.6-.4-.8-.6-.5.1-.2-.3-1.3.4.1Zm3.8 5.2v.2l-.2.1-.5-.1c.3 0 .5 0 .7-.2Zm-5.3 2v.2l.9.7h.3l.3.2.2.4.5.2.4-.7.2.2.9 1 .5-.4v-.4l-.2-.4.2-.2.3.2.2.4.7.3c.6 1.2 1 2.4 1.2 3.7-5.5-1.3-11.1-2-16.7-2 3.1-1.5 6.3-2.8 9.6-3.9v.3l.5.2Zm-5.7-5.9.4.2c-.1.2-.3.3-.4.5l-.1-.4.1-.3Zm-.1 2.4v-.5l1-.4-.2-.6.3-.3.1.1 1.3 1 1 .4.5.5.3.8.3.2.4.9.1.1c-3.4 1.1-6.8 2.5-10 4.1 1.7-2.5 3.3-4.6 4.7-6.4l.2.1ZM30 1.3h.2l.5.6-.4.2H30v-.8Zm-.1 3.4.3.6-.3.4v-1Zm-.2 1.4v-.3l.2.1.2.5.3.1.2-.3-.1-.3.4-.1.3.2.6-.3.1-.2-.4-.4-.8-.1.2-.5.4.1.2-.2v-.5l.6.1.1.2-.3.5.4.4v.6l-.1.5.3.1 1-.2.3.4h.3l.3.7.3.2c-.1.2-.3.3-.4.5h-.1l-.2-.1.3-.3-.3-.2-.2-.4-.4-.1-1.2-.1-.2.2-.1.3.3.1v.3l.2.2.3-.2h.2l.4.4-.3.5.6.1h.1c-1.2 1.5-2.5 3.3-3.8 5.3V9.6l.1-.1.3-.6v-.2l-.1-.2-.1-.4h.3v-.5l-.1-.3V7l-.1-.2-.4-.2-.1-.5Zm16.7 46.7c-4.8 3.5-10.6 5.4-16.5 5.5v-3.1l.5-.1.1.2.6.3.5.6h.9l1-.3.5.5-1.7.5v.3l4.4-.8-.1-.3-.9.2-.5-.1.8-.2 1.3-.1h.5l1.4-.6.9-.4-.1-.5-.8.1-.2-.5.7-.4.7-.2.1.1-.6.4.5.2.5-.3.5-.5-.3-.2 1.5-.9h.2l1.6-1.2 1.1-1.2.5-.9c0 .2.1.3.1.5l-.5.7.1.2.3.1.3-.2c0 .2.1.4.1.5l-.2.1-.3.2-.2.3-.3.3v.2l-.3.3.1.6 1.3-.7c0 .3 0 .6-.1.8Zm-2.7-7.4.4-.3.2-.5.2-.1c.1.3.2.6.3.8l-.2.3-.4-.1-.4.2-.1-.3Zm1.2 1.1.2-.3c0 .1.1.3.2.5h-.1l-.3-.2Zm1-.6c-.1-.1-.1-.3-.2-.5l.3-.3-.1-.1-.3.2c-.1-.2-.1-.3-.2-.5l.2-.2.7-.9.4.2-.1.5.4.1.2-.2.5.5v.3l.2.3.4-.4.6-.8.1-.4-.4-.7-.8-.2-.1-.1.6-1.2-.2-.3.1-.5.1-.2-.2-.3.2-.2-.5-.9.6-.8-.3-2.2-.6 1.1-.5.5-.9-.4-.7.3-1.4-1.2-1.4.5-.3.4c0-.1-.1-.2-.1-.3-.4-1-1-2.1-1.5-3.2 2.8-1.7 5-4.1 6.5-6.9 4.9 4 7.5 6.9 8.7 9-1.9 4.7-5.2 8.8-9.4 11.7-.2-.5-.4-1.1-.6-1.7Zm1.3 6.3c.1-.3 0-.6 0-.9l.7-.7-.1-.2-.6.2c-.1-.7-.3-1.5-.5-2.2 4.2-2.9 7.5-6.9 9.6-11.6.3.6.4 1.3.5 2-1.8 5.3-5.1 10-9.6 13.4Zm11.1-23.6v1c0 2.6-.3 5.2-1 7.7-.1-.5-.4-1-.6-1.4.9-2.3 1.4-4.8 1.6-7.3Z" fill="#fff"/>
    <path d="m51 42.1.4-.2.3-1 .8-1.4-.1-1.1-.2-.3.1-.7-.7-.7-.1-.4.6-.3.3-1.5-.5-.5-.5.9h-.7l.4 1.2-.3.4.1.6.7 1.1-.3 1.9-.3.1-.1 1.1-1 1.1-1 2 .5.4.4-.2 1.2-2.5ZM32.5 8.6l.4-.3-.2-.3h-.4l-.4.4.3.3.3-.1ZM20.9 17.4v.6l.6.3.5-.4 1-.1.2-.8-1.2-1.1-1.5.9-.4.5.1.3.7-.2ZM43.3 5.1l.2.1.1-.2-.1-.1-.1-.3-.2-.2c-.1 0-.1-.1-.2-.1l-.2.3.5.5ZM2.9 25.2l.4-.5.1-.6h-.2L3 24l-.2.5-.3.3-.1.3.1.5.4-.4ZM30.8 7.8v.6l.6.4.3-.6-.6-.3-.3-.1ZM13.2 11.9v1l.3.3.8-.3.4-1.1v-.3l.5-.3.1-.4-.5-.4-.8.4-.8 1.1ZM31.1 7.4l.4-.1.1-.5-.5-.4-.2.1-.3.6.2.3h.3ZM154.5 24.5c1.8.1 3.7-.3 5.3-1 1.6-.7 3-1.7 4.2-3.1l-2.4-2.5c-.8 1-1.9 1.7-3.1 2.2-1.2.5-2.5.8-3.8.7-1.1.1-2.2-.1-3.2-.5s-2-.9-2.7-1.7c-.8-.7-1.4-1.6-1.8-2.6-.4-1-.6-2-.5-3.1 0-4.7 3.2-7.8 8.1-7.8 1.2 0 2.4.2 3.5.6 1.1.5 2.1 1.1 2.9 2l2.7-2.4c-1.6-2.3-5-3.9-9.3-3.9-1.6-.1-3.2.2-4.7.8-1.5.6-2.9 1.4-4 2.5s-2 2.4-2.6 3.8c-.6 1.4-.9 3-.8 4.5 0 7 4.7 11.5 12.2 11.5ZM81.4 1.8h-9.6v22.5h4.1v-7.7h5.5c7.4 0 9.9-3.7 9.9-7.4 0-3.6-1.9-7.4-9.9-7.4Zm-.1 11.1h-5.4V5.4h5.6c4.1 0 5.5 1.5 5.5 3.7 0 2.4-1.7 3.8-5.7 3.8ZM183.3 8.7v15.6h4.1V1.8h-3.5l-13 15.6V1.8h-4.1v22.5h3.4l13.1-15.6ZM206.7 24.3h4.1V1.8h-9.7c-6.5 0-9.6 3.2-9.6 7.3 0 3.4 2.1 5.7 5.7 6.6l-7.3 8.6h4.9l6.7-7.9h5.2v7.9Zm-6.2-11.6c-2.9-.1-4.7-1.6-4.6-3.6 0-2.2 1.4-3.7 5-3.7h5.9v7.3h-6.3ZM131.8 24.6c1.8.1 3.7-.3 5.3-1 1.7-.7 3.1-1.8 4.3-3.2l-2.4-2.5c-.8 1-1.9 1.7-3.1 2.2-1.2.5-2.5.8-3.8.7-1.1.1-2.2-.1-3.2-.5s-2-.9-2.7-1.7c-.8-.7-1.4-1.6-1.8-2.6-.4-1-.6-2-.5-3.1 0-4.7 3.2-7.8 8.1-7.8 1.2 0 2.4.2 3.5.6 1.1.5 2.1 1.1 2.9 2l2.7-2.4c-1.6-2.3-5-3.9-9.3-3.9-1.6-.1-3.2.2-4.7.8-1.5.6-2.9 1.4-4 2.5s-2 2.4-2.6 3.8c-.6 1.4-.9 3-.8 4.5-.1 7 4.7 11.6 12.1 11.6ZM113.9 4.8c-2.3-2.2-5.4-3.4-8.6-3.4-3.2 0-6.3 1.2-8.6 3.4s-3.6 5.1-3.6 8.2c0 3.1 1.3 6 3.6 8.2 2.3 2.2 5.4 3.4 8.6 3.4 3.2 0 6.3-1.2 8.6-3.4s3.6-5.1 3.6-8.2c0-3.1-1.3-6-3.6-8.2ZM112.7 16c-.4.9-1 1.8-1.7 2.5s-1.6 1.3-2.6 1.7c-1 .4-2 .6-3.1.6s-2.1-.2-3.1-.6c-1-.4-1.9-1-2.6-1.7-.8-.7-1.3-1.6-1.7-2.5-.4-1-.5-2-.5-3-.1-1 .1-2 .5-3 .4-.9 1-1.8 1.7-2.5s1.6-1.3 2.6-1.7c1-.4 2-.6 3.1-.6s2.1.2 3.1.6c1 .4 1.9 1 2.6 1.7.8.7 1.3 1.6 1.7 2.5.4 1 .5 2 .5 3s-.1 2.1-.5 3ZM214.9 33c-6.5 0-9.6 3.2-9.6 7.3 0 3.4 2.1 5.7 5.7 6.6l-7.3 8.6h4.9l6.7-7.9h5.3v7.9h4.1V33h-9.8Zm5.7 10.9h-6.3c-2.8-.1-4.6-1.6-4.6-3.6 0-2.2 1.4-3.7 5-3.7h5.9v7.3ZM98.2 45.8h12.6v-3.5H98.2v-5.7h13.5v-3.7H94.1v22.6H112v-3.7H98.2v-6ZM129.3 32.9h-13.4v22.6h4.1V36.6h9.3v-3.7ZM85.7 51.2c-1.2.5-2.5.8-3.8.7-1.1.1-2.2-.1-3.2-.5s-2-.9-2.7-1.7c-.8-.7-1.4-1.6-1.8-2.6-.4-1-.6-2-.5-3.1 0-4.7 3.2-7.8 8.1-7.8 1.2 0 2.4.2 3.5.6 1.1.5 2.1 1.1 2.9 2l2.7-2.4c-1.6-2.3-5-3.9-9.3-3.9-1.6-.1-3.2.2-4.7.8-1.5.6-2.9 1.4-4 2.5s-2 2.4-2.6 3.8c-.6 1.4-.9 3-.8 4.5-.1 7.1 4.7 11.6 12.1 11.6 1.8.1 3.7-.3 5.3-1 1.7-.7 3.1-1.8 4.3-3.2L88.8 49c-.8 1-1.9 1.7-3.1 2.2ZM175 51.9V33h-16.8v3.3c0 10-1 13.4-2.6 15.6h-2.5v7.6h4v-4H174v4h4v-7.6h-3Zm-4.1-.1h-11c1.5-2.6 2.3-6.8 2.3-13.8v-1.4h8.7v15.2ZM149.8 36.2c-2.3-2.2-5.4-3.4-8.6-3.4-3.2 0-6.3 1.2-8.6 3.4-2.3 2.1-3.6 5-3.6 8.1 0 3 1.3 5.9 3.6 8.1 2.3 2.2 5.4 3.4 8.6 3.4 3.2 0 6.3-1.2 8.6-3.4 2.3-2.1 3.6-5 3.6-8.1 0-3.1-1.3-6-3.6-8.1Zm-1.2 11.1c-.4.9-1 1.8-1.7 2.5s-1.6 1.3-2.6 1.7c-1 .4-2 .6-3.1.6s-2.1-.2-3.1-.6c-1-.4-1.9-1-2.6-1.7-.8-.7-1.3-1.6-1.7-2.5-.4-1-.5-2-.5-3 0-1.1.1-2.1.5-3 .4-.9 1-1.8 1.7-2.5s1.6-1.3 2.6-1.7c1-.4 2-.6 3.1-.6s2.1.2 3.1.6c1 .4 1.9 1 2.6 1.7.8.7 1.3 1.6 1.7 2.5.4 1 .5 2 .5 3 .1 1-.1 2-.5 3ZM197.2 42.3h-12.4V33h-4.1v22.5h4.1v-9.6h12.4v9.6h4.1V33h-4.1v9.3Z" fill="#fff"/>
</svg>
