<svg width="181" height="60" fill="none" xmlns="http://www.w3.org/2000/svg">
    <g clip-path="url(#a)" fill="#fff">
        <path d="M180.2 13.3c-.8-3.4-3.9-6.2-9.3-8.4-5.2-2.1-12.3-3.6-21.1-4.4C131.7-1 108.5.6 84.5 5 64 8.8 45.1 14.1 30.2 20.3h-.8s-3.6.2-4.9 2.2c0 0-.1.1-.2.4-.6.3-1.2.6-1.8.8C14.7 27.5 8.8 31.3 5 35.1c-4 4-5.6 7.8-4.8 11.3.8 3.4 4 6.3 9.7 8.6 5.4 2.2 12.7 3.6 21.8 4.4 4.7.4 9.7.6 14.9.6 15.5 0 33.3-1.7 51.4-5 20.2-3.7 38.8-9.2 53.5-15.6h.6c3-.3 3.9-1.3 3.9-1.3.6-.4.8-.9 1-1.2.7-.3 1.3-.6 2-1 7.4-3.8 13.1-7.7 16.8-11.5 3.6-4 5.1-7.7 4.4-11.1Zm-5.3 10.3c-3.6 3.8-9.2 7.6-16.5 11.3l-1.2.6c.1-.5.1-1.1.1-1.1v-5.6h-6.1v2.7h1.3v2.8c0 1.4-1.2 1.4-1.2 1.4-1.4 0-1.4-1.3-1.4-1.3v-9.9c0-1 1.3-1.1 1.3-1.1 1.2 0 1.2 1.2 1.2 1.2v1.5h4.7c.2-2.9-.4-3.6-.4-3.6-1-2.3-4.6-2.5-5.4-2.5h-.2c-6.8 0-6.1 5.3-6.1 5.3v9.5c.1 2.9 2.4 3.9 4.3 4.2-14.3 6.1-32.2 11.2-51.6 14.8-24.1 4.4-47.6 6-66 4.5-9-.8-16.2-2.2-21.5-4.3-5.3-2.1-8.3-4.8-9-7.9-.7-3.1.8-6.5 4.5-10.2 3.8-3.7 9.5-7.5 17.2-11.2.4-.2.7-.3 1.1-.5v2.3s-.1 1.6.8 2.7c0 0 .5.7 1.6 1.4 0 0 2.4 1.3 3.8 2 0 0 1.4.8 1.2 2.1 0 0-.1 1.3-1.5 1.3 0 0-1.3-.1-1.3-1.4V33h-5v2.2s-.1 4.3 6.3 4.3c0 0 6.2.1 6.5-4.4v-1.8s.2-2.8-2.2-4.2c0 0-1.3-.8-2.1-1.1 0 0-2.5-1.1-3-1.7 0 0-1-.9-.4-2 0 0 .2-.7 1.2-.7 0 0 1.3.1 1.3 1.2v1.5h4.7V24s.3-2.9-3.7-3.7C46.8 14.7 65 9.6 84.7 6c17.9-3.3 35.3-5 50.5-5 5.1 0 10 .2 14.5.6 8.7.8 15.7 2.2 20.8 4.3 5.1 2.1 8 4.7 8.7 7.7.7 3-.8 6.4-4.3 10Z"/>
        <path d="M96.3 29.1s-1.3-.8-2.1-1.1c0 0-2.5-1.1-3-1.7 0 0-1-.9-.4-2 0 0 .2-.7 1.3-.7 0 0 1.3.1 1.3 1.2v1.5h4.7V24s.4-3.7-5.6-3.9h-.8c-1.4 0-4.3.3-5.3 2.2 0 0-.5.6-.5 2.5v1.4s-.1 1.6.8 2.7c0 0 .5.7 1.6 1.4 0 0 2.4 1.3 3.8 2 0 0 1.4.8 1.2 2.1 0 0-.1 1.3-1.5 1.3 0 0-1.3-.1-1.3-1.4V33h-5v2.2s-.1 4.3 6.3 4.3c0 0 6.2.1 6.5-4.4v-1.8c.2 0 .4-2.7-2-4.2ZM44.2 20.9l-3.1 18h5l1.9-14h.4l1.8 14h5.1l-3.1-18h-8ZM72.1 20.8l-1.6 9.9h-.4l-1.5-9.8h-7.9l-.4 18H65V25.3h.4l2.5 13.6h4.9l2.5-13.6h.3l.1 13.6h4.7l-.5-18.1h-7.8ZM134.3 31.8h-.2l-4.8-11h-5.8v18.1h4.7l-.3-11h.2l5 11h5.6V20.8h-4.8l.4 11ZM112 34.4s.1 1.5-1.3 1.5c0 0-1.4.1-1.4-1.4V20.9h-5.1v13.5s-.5 5.1 6.7 5.1c0 0 6.3.1 6.3-4.9V20.8h-5v13.6h-.2Z"/>
    </g>
    <defs>
        <clipPath id="a">
            <path fill="#fff" d="M0 0h180.4v60H0z"/>
        </clipPath>
    </defs>
</svg>
