<svg width="233" height="60" fill="none" xmlns="http://www.w3.org/2000/svg">
    <g clip-path="url(#a)" fill="#fff">
        <path d="M32.32 7.069c.134-1.819.7-3.58 1.65-5.132.25-.428.528-.803.794-1.232a28.527 28.527 0 0 1 6.87 2.46 8.054 8.054 0 0 0-1.542 3.583 8.233 8.233 0 0 0 .477 4.225 10.02 10.02 0 0 0 2.444 3.423 14.348 14.348 0 0 0 3.348 2.299 20.982 20.982 0 0 0 7.535 2.093c.528.052 1.06.052 1.593.052.105.321.266.695.371 1.07-.987.126-1.98.196-2.976.214-3.72.107-7.492-.373-10.945-1.605-3.455-1.292-6.643-3.376-8.337-6.424a8.387 8.387 0 0 1-1.282-5.026Zm19.073 25.506c-6.056-.321-12.114-1.603-17.64-4.225a31.727 31.727 0 0 1-7.758-5.013c-2.336-2.098-4.356-4.61-5.578-7.553a17.215 17.215 0 0 1-1.223-9.35c.28-1.8.817-3.55 1.594-5.192a27.443 27.443 0 0 0-9.245 4.653c-.052.43-.106.91-.158 1.338a18.294 18.294 0 0 0 2.126 10.055c1.594 3.043 4.03 5.713 6.791 7.854a38.145 38.145 0 0 0 9.245 5.13c6.642 2.62 13.867 3.692 21.044 3.638a60.327 60.327 0 0 0 6.216-.374c.052-.32.107-.642.16-1.012a38.454 38.454 0 0 1-5.57.05h-.004ZM28.44 20.332a29.367 29.367 0 0 0 7.014 3.955c5.05 1.978 10.575 2.833 16.063 2.727a48.802 48.802 0 0 0 5.631-.374 1.045 1.045 0 0 0-.053-.426c0-.163-.053-.322-.053-.484-1.436.054-2.87.054-4.304 0a34.55 34.55 0 0 1-12.61-3.102 25.12 25.12 0 0 1-5.521-3.588 17.059 17.059 0 0 1-4.094-5.4 11.912 11.912 0 0 1-.956-6.792 13.846 13.846 0 0 1 2.54-6.089c.093-.136.2-.262.32-.375A26.64 26.64 0 0 0 26.21.171c-.851.054-1.646.213-2.445.32a16.71 16.71 0 0 0-1.858 6.257c-.26 2.62.258 5.26 1.488 7.582 1.115 2.365 2.93 4.397 5.046 6.002Zm22.055 19.21c-7.76-.323-15.518-1.928-22.639-5.135a40.752 40.752 0 0 1-9.989-6.268c-3.03-2.568-5.635-5.67-7.334-9.351A21.87 21.87 0 0 1 8.526 8.574 28.75 28.75 0 0 0 .5 25.382a28.831 28.831 0 0 0 3.94 18.223 28.518 28.518 0 0 0 14.24 11.926 28.284 28.284 0 0 0 18.512.581 28.417 28.417 0 0 0 10.818-6.26 28.666 28.666 0 0 0 7.12-10.317c-1.55.049-3.095.047-4.635-.007v.013ZM43.533 4.233a6.057 6.057 0 0 0-.753 2.781 4.31 4.31 0 0 0 .753 2.458c.956 1.497 2.657 2.512 4.518 3.102 1.516.458 3.091.68 4.674.652a30.162 30.162 0 0 0-9.192-8.993ZM98.918 52.824a10.266 10.266 0 0 1-4.154-3.971 10.808 10.808 0 0 1-1.498-5.666 10.809 10.809 0 0 1 1.496-5.665 10.914 10.914 0 0 1 4.156-3.968 12.34 12.34 0 0 1 5.989-1.45 12.002 12.002 0 0 1 5.941 1.452A10.59 10.59 0 0 1 115 37.524a11.167 11.167 0 0 1 0 11.332 10.937 10.937 0 0 1-4.152 3.97 12.13 12.13 0 0 1-5.941 1.452 13.391 13.391 0 0 1-5.99-1.454Zm9.368-3.681a6.32 6.32 0 0 0 2.368-2.419 7.625 7.625 0 0 0 0-7.068 6.334 6.334 0 0 0-2.368-2.422 7.188 7.188 0 0 0-6.858 0 6.352 6.352 0 0 0-2.364 2.42 7.625 7.625 0 0 0 0 7.07 6.336 6.336 0 0 0 2.368 2.422 6.822 6.822 0 0 0 3.418.873 6.693 6.693 0 0 0 3.436-.876ZM86.454 7.226c-.724-1.162-1.786-2.034-3.19-2.664-1.404-.63-3.045-.914-4.927-.914h-9.22v21.304h4.927v-5.915h4.298c1.882 0 3.526-.29 4.928-.914a7.189 7.189 0 0 0 3.189-2.661 7.721 7.721 0 0 0 1.112-4.112 7.586 7.586 0 0 0-1.117-4.127v.003Zm-3.814 4.165c0 1.16-.385 2.081-1.16 2.71-.775.627-1.931.968-3.38.968H74.09V7.66H78.1c1.496 0 2.607.338 3.38.967.771.628 1.16 1.55 1.16 2.762v.002Zm12.508-7.75h-4.876v21.352h4.635l10.143-13.897v13.897h4.879V3.642h-4.637L95.148 17.537V3.642Zm33.616 16.753h-9.9l-1.884 4.599h-5.07l9.513-21.351h4.879l9.515 21.35h-5.168l-1.885-4.598Zm-1.593-3.728-3.383-8.184-3.379 8.184h6.762ZM88.626 53.889V32.537h-4.922v8.424h-9.66v-8.424h-4.928V53.89h4.928v-8.763h9.66v8.763h4.922Zm51.246-6.004c0-1.307-.337-2.374-1.013-3.244a6.008 6.008 0 0 0-2.947-1.89 4.951 4.951 0 0 0 2.22-1.883 4.952 4.952 0 0 0 .774-2.812c0-1.742-.683-3.1-2.077-4.068-1.392-.97-3.329-1.45-5.793-1.45h-9.901v21.35h10.483c2.658 0 4.684-.532 6.135-1.6 1.397-1.015 2.122-2.515 2.122-4.404l-.003.001Zm-9.273-6.536h-4.586v-5.228h4.589c1.062 0 1.834.24 2.415.684a2.475 2.475 0 0 1 .821 1.936c0 .873-.289 1.5-.821 1.937-.53.436-1.353.671-2.415.671h-.003Zm.821 3.426c2.317 0 3.477.873 3.477 2.665 0 1.84-1.16 2.76-3.477 2.76h-5.409v-5.415l5.409-.01Zm17.292 8.041a10.264 10.264 0 0 1-4.155-3.971 10.815 10.815 0 0 1-1.496-5.666 10.815 10.815 0 0 1 1.496-5.667 10.904 10.904 0 0 1 4.155-3.968 12.312 12.312 0 0 1 5.99-1.44 11.988 11.988 0 0 1 5.94 1.452 10.588 10.588 0 0 1 4.154 3.968 11.157 11.157 0 0 1 1.544 5.666c0 1.994-.533 3.952-1.544 5.666a10.911 10.911 0 0 1-4.154 3.97 12.127 12.127 0 0 1-5.94 1.454 13.542 13.542 0 0 1-5.988-1.458l-.002-.006Zm9.375-3.672a6.329 6.329 0 0 0 2.368-2.423 7.622 7.622 0 0 0 0-7.067 6.343 6.343 0 0 0-2.368-2.423 7.192 7.192 0 0 0-6.859 0 6.347 6.347 0 0 0-2.366 2.423 7.625 7.625 0 0 0 0 7.068 6.32 6.32 0 0 0 2.366 2.422 6.824 6.824 0 0 0 3.418.872 6.695 6.695 0 0 0 3.441-.872Zm12.85-.242c1.022 1.648 2.453 3 4.151 3.922 1.786.968 3.72 1.402 5.941 1.402a12.884 12.884 0 0 0 5.014-.968 9.987 9.987 0 0 0 3.766-2.856l-3.19-2.905c-1.449 1.695-3.235 2.512-5.362 2.512a7.051 7.051 0 0 1-3.526-.873 6.47 6.47 0 0 1-2.415-2.42 7.616 7.616 0 0 1 0-7.07 6.474 6.474 0 0 1 2.415-2.42 7.05 7.05 0 0 1 3.526-.871c2.127 0 3.913.87 5.362 2.513l3.19-2.906a9.901 9.901 0 0 0-3.766-2.807 12.925 12.925 0 0 0-5.014-.97c-2.221 0-4.202.438-5.941 1.405a10.134 10.134 0 0 0-4.151 3.92c-1.015 1.648-1.498 3.538-1.498 5.667s.478 4.078 1.493 5.725h.005Zm38.879-12.336h-6.811v17.332h-4.877V36.556h-6.769v-4.019h18.46l-.003 4.029Zm8.742-4.019h-4.878v21.351h4.636l10.141-13.896v13.896h4.879v-21.36H228.7l-10.142 13.895V32.546Z"/>
    </g>
    <defs>
        <clipPath id="a">
            <path fill="#fff" d="M0 0h233v60H0z"/>
        </clipPath>
    </defs>
</svg>
