<svg width="172" height="60" fill="none" xmlns="http://www.w3.org/2000/svg">
    <mask id="a" style="mask-type:alpha" maskUnits="userSpaceOnUse" x="0" y="32" width="172" height="13">
        <path d="M171.254 44.123c-24.13-6.466-53.659-10.271-85.553-10.271-31.895 0-61.423 3.805-85.553 10.272 49.539-15.383 121.567-15.383 171.106 0" fill="#fff"/>
    </mask>
    <g mask="url(#a)">
        <path fill-rule="evenodd" clip-rule="evenodd" d="M171.254 44.123c-24.13-6.466-53.659-10.271-85.553-10.271-31.895 0-61.423 3.805-85.553 10.272 49.539-15.383 121.567-15.383 171.106 0" fill="#fff"/>
    </g>
    <path fill-rule="evenodd" clip-rule="evenodd" d="M31.811 45.97c-1.52 0-2.282.55-2.282 2.594 0 2.081.756 2.667 2.282 2.667 1.52 0 2.277-.586 2.277-2.666 0-2.045-.757-2.595-2.277-2.595Zm75.598 12.643c-.737-1.618-1.06-1.85-1.41-1.994.186-.152.653-.73 1.327-1.684h-1.011a28.8 28.8 0 0 1-1.354 1.77v-1.77h-.853v3.677h.853v-1.705c.446.103.859.398 1.451 1.706h.997Zm2.028.101c1.128 0 1.679-.448 1.679-1.958 0-1.503-.557-1.929-1.679-1.929-1.107 0-1.664.426-1.664 1.929 0 1.51.55 1.958 1.664 1.958Zm0-3.157c.612 0 .798.16.798 1.213 0 1.02-.186 1.214-.798 1.214-.598 0-.784-.195-.784-1.214 0-1.054.186-1.213.784-1.213Zm3.356.151c.179-.072.448-.108.682-.108.605 0 .804.18.804 1.192 0 .911-.199 1.164-.798 1.164-.378 0-.688-.137-.688-.354v-1.894ZM111.94 60h.853v-1.496c.193.102.441.21.84.21.934 0 1.519-.448 1.519-1.944 0-1.502-.523-1.943-1.677-1.943-.51 0-1.156.108-1.535.275V60Zm4.897-4.284h1.376v2.897h.852v-3.677h-3.081v3.677h.853v-2.897Zm4.725 2.998c1.128 0 1.678-.448 1.678-1.958 0-1.503-.557-1.929-1.678-1.929-1.108 0-1.665.426-1.665 1.929 0 1.51.55 1.958 1.665 1.958Zm0-3.157c.612 0 .797.16.797 1.213 0 1.02-.185 1.214-.797 1.214-.599 0-.785-.195-.785-1.214 0-1.054.186-1.213.785-1.213Zm3.355.151c.18-.072.448-.108.681-.108.605 0 .806.18.806 1.192 0 .911-.201 1.164-.798 1.164-.379 0-.689-.137-.689-.354v-1.894ZM124.065 60h.852v-1.496c.193.102.441.21.84.21.935 0 1.519-.448 1.519-1.944 0-1.502-.523-1.943-1.678-1.943-.508 0-1.155.108-1.533.275V60Zm6.966-3.742c0-1.098-.474-1.432-1.512-1.432-.503 0-1.032.095-1.397.196l.159.737a3.162 3.162 0 0 1 1.058-.166c.729 0 .874.144.874.787a3.935 3.935 0 0 0-.866-.1c-.819 0-1.376.166-1.376 1.206 0 .96.372 1.228 1.478 1.228.489 0 1.142-.108 1.582-.288v-2.169Zm-.818 1.647c-.2.072-.454.123-.701.123-.516 0-.647-.08-.647-.578 0-.47.172-.528.654-.528.254 0 .502.022.694.065v.918Zm4.827-.073v-2.897h-.852v2.897h-1.375v-2.897h-.853v3.677h2.977v1.02h.688l.2-1.8h-.785Zm3.569.78h.853v-3.677h-.853c-.42.788-.948 1.713-1.422 2.341v-2.34h-.853v3.677h.853a18.475 18.475 0 0 0 1.422-2.247v2.247Zm4.079-2.015h-.977c-.282 0-.432-.145-.432-.477 0-.346.144-.462.412-.462h.997v.94Zm-1.334.426c-.489.072-.75.318-1.245 1.59h.977c.391-1.112.619-1.308 1.073-1.308h.529v1.308h.853v-3.677h-2.077c-.839 0-1.108.483-1.108 1.076 0 .52.249.983.998 1.011ZM31.811 50.371c-1.052 0-1.313-.274-1.313-1.791 0-1.526.261-1.749 1.313-1.749 1.053 0 1.314.223 1.314 1.748 0 1.518-.261 1.792-1.314 1.792Zm3.886-1.012c0-.845.138-1.084.75-1.084.55 0 .735.203.735 1.084 0 1.004-.199 1.134-.783 1.134-.475 0-.702-.245-.702-1.134Zm-.006-1.422c.082-.673.198-.991.9-1.055.543-.052.97-.11 1.272-.254v-.795c-.378.166-.811.239-1.314.282-1.244.101-1.718.484-1.718 2.89 0 1.813.563 2.226 1.547 2.226 1.155 0 1.678-.42 1.678-1.886 0-1.46-.516-1.843-1.417-1.843-.44 0-.756.16-.948.434Zm4.284.844v-1.329h-1.527v.78h.674v2.898h2.083c.716 0 1.087-.319 1.087-1.185 0-.766-.372-1.164-1.087-1.164h-1.23Zm0 1.683v-.989h1.017c.268 0 .406.13.406.484s-.13.505-.391.505h-1.032Zm5.777-.144c-.32.091-.651.142-.984.152-.612 0-.9-.16-.908-.946h2.263c.062-1.785-.42-2.183-1.527-2.183-1.018 0-1.63.455-1.63 1.93 0 1.51.687 1.958 1.699 1.958a4.226 4.226 0 0 0 1.224-.203l-.137-.708Zm-1.108-2.269c.489 0 .667.138.695.788h-1.472c.055-.607.24-.788.777-.788Zm2.91-.6c-.063.98-.227 1.951-.49 2.898h-.625l.193 1.8h.687v-1.02h2.64v1.018h.682l.2-1.798h-.675v-2.897h-2.612Zm1.76.78v2.118h-1.355c.179-.708.323-1.488.371-2.117h.983Zm4.311 2.898h.853v-3.677h-.853c-.42.787-.948 1.712-1.422 2.34v-2.34h-.853v3.678h.853a18.492 18.492 0 0 0 1.422-2.248v2.248Zm4.03-1.56v1.56h.854v-3.677h-.853v1.351H56.28v-1.351h-.853v3.678h.853v-1.56h1.376Zm4.47.751a4.057 4.057 0 0 1-.982.152c-.612 0-.901-.16-.909-.946h2.263c.062-1.785-.42-2.183-1.526-2.183-1.018 0-1.63.455-1.63 1.93 0 1.51.687 1.958 1.698 1.958a4.216 4.216 0 0 0 1.224-.203l-.137-.708Zm-1.107-2.269c.489 0 .667.138.695.788h-1.471c.055-.607.24-.788.776-.788Zm4.47 1.518v1.56h.853v-3.677h-.853v1.351h-1.374v-1.351h-.853v3.678h.853v-1.56h1.375v-.001Zm4.037 0v1.56h.853v-3.677h-.853v1.351H68.15v-1.351h-.852v3.678h.852v-1.56h1.375v-.001Zm4.732-.795c0-1.098-.474-1.43-1.513-1.43-.472.005-.941.07-1.396.194l.158.737a3.16 3.16 0 0 1 1.059-.166c.728 0 .874.146.874.788a3.95 3.95 0 0 0-.866-.102c-.819 0-1.376.167-1.376 1.207 0 .961.371 1.229 1.478 1.229.489 0 1.142-.11 1.582-.29v-2.167Zm-.819 1.648a2.145 2.145 0 0 1-.7.122c-.517 0-.647-.08-.647-.578 0-.47.171-.528.653-.528.255 0 .502.023.694.066v.917Zm4.024-1.308h-.977c-.282 0-.433-.145-.433-.477 0-.347.145-.463.413-.463h.997v.94Zm-1.335.425c-.488.073-.749.319-1.244 1.59h.977c.391-1.112.619-1.307 1.072-1.307h.53v1.307h.853v-3.677h-2.077c-.84 0-1.108.484-1.108 1.076 0 .52.248.983.997 1.011Zm-45.636 6.07c.178-.072.447-.109.68-.109.606 0 .806.181.806 1.192 0 .91-.2 1.163-.798 1.163-.378 0-.688-.137-.688-.353v-1.893Zm-.853 4.292h.853v-1.496c.193.101.44.21.84.21.934 0 1.519-.448 1.519-1.944 0-1.503-.523-1.943-1.678-1.943-.51 0-1.156.108-1.534.274v4.899Zm6.967-3.743c0-1.099-.475-1.431-1.514-1.431a5.55 5.55 0 0 0-1.395.195l.158.738c.289-.11.673-.167 1.06-.167.728 0 .873.145.873.788a3.95 3.95 0 0 0-.867-.101c-.819 0-1.376.166-1.376 1.206 0 .96.371 1.228 1.479 1.228.488 0 1.142-.108 1.582-.289v-2.167Zm-.818 1.647c-.226.08-.463.122-.702.123-.516 0-.647-.08-.647-.578 0-.47.172-.527.653-.527.255 0 .503.021.695.065v.917Zm5.047.708c-.736-1.618-1.06-1.849-1.41-1.994.186-.151.653-.73 1.328-1.683h-1.011a28.905 28.905 0 0 1-1.355 1.77v-1.77h-.853v3.677h.853v-1.705c.447.101.86.398 1.451 1.706h.997v-.001Zm3.15-.81a4.057 4.057 0 0 1-.984.152c-.612 0-.9-.158-.907-.946h2.262c.062-1.784-.42-2.181-1.526-2.181-1.018 0-1.63.454-1.63 1.928 0 1.51.687 1.958 1.698 1.958.358 0 .874-.079 1.224-.202l-.137-.708Zm-1.107-2.267c.488 0 .667.137.694.787H42.1c.055-.607.24-.787.778-.787Zm3.857.18h1.211v-.78H44.68v.78h1.203v2.897h.853v-2.897h-.001Zm3.948 1.337v1.56h.853v-3.677h-.853v1.35h-1.375v-1.35h-.853v3.677h.853v-1.56h1.375Zm3.35 1.661c1.127 0 1.677-.447 1.677-1.958 0-1.502-.557-1.928-1.677-1.928-1.108 0-1.665.426-1.665 1.928 0 1.51.55 1.958 1.665 1.958Zm0-3.157c.612 0 .797.159.797 1.214 0 1.02-.185 1.214-.797 1.214-.6 0-.785-.195-.785-1.214 0-1.054.186-1.214.785-1.214Zm2.228 1.452h1.691v-.852H56.26v.853h.001Zm5.666 1.604c-.735-1.618-1.059-1.849-1.41-1.994.186-.151.654-.73 1.328-1.683h-1.012a28.26 28.26 0 0 1-1.354 1.77v-1.77h-.853v3.677h.853v-1.705c.447.101.86.398 1.451 1.706h.997v-.001Zm2.029.101c1.128 0 1.678-.447 1.678-1.958 0-1.502-.557-1.928-1.678-1.928-1.108 0-1.664.426-1.664 1.928 0 1.51.55 1.958 1.664 1.958Zm0-3.157c.612 0 .797.159.797 1.214 0 1.02-.185 1.214-.797 1.214-.598 0-.784-.195-.784-1.214 0-1.054.186-1.214.784-1.214Zm4.986 2.203a2.14 2.14 0 0 1-.812.174c-.619 0-.914-.188-.914-1.163 0-1.02.295-1.163.914-1.163.283 0 .592.072.812.158l.192-.765c-.26-.101-.729-.173-1.066-.173-1.058 0-1.733.426-1.733 1.928 0 1.51.667 1.958 1.733 1.958.33 0 .792-.072 1.066-.188l-.192-.765Zm2.902-.635a39.048 39.048 0 0 0-.908-2.19H69.69v3.678h.845v-2.68c.31.708.681 1.741.935 2.464h.64c.255-.723.64-1.735.963-2.464v2.68h.846v-3.677h-1.19c-.324.718-.62 1.448-.887 2.189Zm5.302 1.488h.853v-3.677h-.853c-.42.788-.95 1.712-1.423 2.34v-2.34h-.853v3.677h.853a18.503 18.503 0 0 0 1.423-2.247v2.247Zm1.589-2.782c0 1.374.447 1.67 1.265 1.67.365 0 .743-.13.963-.254v1.366h.852v-3.677h-.852v1.43c0 .217-.323.326-.667.326-.468 0-.708-.152-.708-.932v-.824h-.853v.895Zm6.698 1.973c-.32.09-.65.141-.984.151-.612 0-.9-.158-.907-.946h2.262c.062-1.784-.42-2.181-1.526-2.181-1.018 0-1.63.454-1.63 1.928 0 1.51.688 1.958 1.698 1.958.358 0 .874-.079 1.224-.202l-.137-.708Zm-1.107-2.268c.488 0 .667.137.694.787h-1.472c.056-.607.241-.787.778-.787Zm4.724 2.225c-.256.11-.532.169-.811.173-.62 0-.915-.188-.915-1.163 0-1.02.296-1.163.915-1.163.283 0 .591.072.811.158l.193-.765c-.261-.101-.728-.173-1.066-.173-1.059 0-1.733.426-1.733 1.928 0 1.51.667 1.958 1.733 1.958.33 0 .791-.072 1.066-.188l-.193-.765Zm4.051.852c-.736-1.618-1.06-1.849-1.41-1.994.186-.151.653-.73 1.328-1.683h-1.011a28.905 28.905 0 0 1-1.355 1.77v-1.77H89.8v3.677h.852v-1.705c.448.101.86.398 1.452 1.706h.997v-.001Zm3.412-2.355c0-1.099-.475-1.431-1.514-1.431-.502 0-1.031.094-1.396.195l.158.738c.29-.11.674-.167 1.059-.167.728 0 .874.145.874.788a3.949 3.949 0 0 0-.866-.101c-.819 0-1.376.166-1.376 1.206 0 .96.371 1.228 1.478 1.228.489 0 1.142-.108 1.582-.289v-2.167Zm-.819 1.647c-.2.073-.454.123-.702.123-.516 0-.646-.08-.646-.578 0-.47.171-.527.653-.527.255 0 .502.021.694.065v.917h.001Zm4.023-1.307h-.977c-.282 0-.433-.145-.433-.478 0-.346.145-.463.413-.463h.997v.94Zm-1.334.426c-.489.072-.75.317-1.245 1.589h.977c.391-1.113.619-1.307 1.072-1.307h.53v1.307h.853v-3.677h-2.077c-.84 0-1.108.484-1.108 1.076 0 .52.249.983.998 1.012ZM42.94 0c-9.474 0-14.232 3.007-14.232 15.46 0 8.426 2.085 12.823 6.277 14.826a321.185 321.185 0 0 1 18.876-2.257c2.18-2.498 3.267-6.483 3.267-12.569C57.128 3.007 52.413 0 42.94 0Zm0 26.124c-6.316 0-8.517-1.437-8.517-10.575 0-9.14 2.201-10.257 8.517-10.312 6.314-.056 8.515 1.423 8.515 10.312 0 8.888-2.2 10.575-8.515 10.575Zm24.72-10.003V5.337h8.445c2.314 0 4.106 1.938 4.106 5.546 0 3.609-1.877 5.237-4.235 5.237H67.66v.001Zm0 10.981v-6.141h10.032c5.743 0 8.187-4.401 8.187-10.033C85.879 5.295 83.864.41 77.563.41h-15.56v27.033c1.884-.129 3.77-.243 5.656-.341v-.001ZM96.198.416H90.54v26.217c1.887.018 3.774.052 5.659.099V.416Zm16.246 27.365-9.399-12.834L114.759.416h-6.858l-11.66 14.477 8.775 12.316c2.484.129 4.962.393 7.428.572h.001ZM124.736.416h-5.659v27.951c1.894.172 3.78.357 5.658.558V.417l.001-.001Zm18.806 31.251-11.848-16.72L143.296.416h-6.858l-11.659 14.477 10.855 15.518c2.662.386 5.298.805 7.907 1.256h.001Z" fill="#fff"/>
</svg>
