<svg width="134" height="30" fill="none" xmlns="http://www.w3.org/2000/svg">
    <path d="M78.122 26.533c0 .25.067.384.218.384.117 0 .218-.05.335-.117L120.18 1.05c.737-.467 1.39-.717 2.395-.717h9.129c1.407 0 2.345.9 2.345 2.25V19.2c0 2-.452 3.167-2.345 4.25l-11.072 6.333a.625.625 0 0 1-.368.134c-.134 0-.251-.084-.251-.45V10.05c0-.217-.067-.383-.235-.383-.117 0-.201.05-.318.116L89.11 28.6c-.854.533-1.541.683-2.328.683H66.648c-1.39 0-2.345-.9-2.345-2.233V3.1c0-.167-.084-.317-.218-.317a.648.648 0 0 0-.334.1L43.734 14.367c-.2.116-.251.233-.251.316 0 .084.034.15.184.284L57.955 28.6c.184.183.318.333.318.467 0 .15-.2.233-.452.233H44.89c-1.005 0-1.792-.15-2.345-.667l-8.677-8.283c-.1-.1-.167-.133-.25-.133a.757.757 0 0 0-.285.083l-14.49 8.333c-.87.5-1.473.65-2.344.65H3.149c-1.407 0-2.345-.9-2.345-2.233V10.733c0-2.033.452-3.166 2.345-4.25L14.288.1a.553.553 0 0 1 .301-.083c.151 0 .252.166.252.516v21.834c0 .216.067.333.234.333.084 0 .201-.067.318-.133L53.013.983c.889-.516 1.441-.666 2.48-.666h20.25c1.407 0 2.346.9 2.346 2.233l.033 23.983Z" fill="#fff"/>
</svg>
