<svg width="99" height="40" xmlns="http://www.w3.org/2000/svg">
    <path d="M14.338.941 7.794 19.562h11.857V.942h-5.313Zm6.086 0v18.621h11.945L25.825.942h-5.401ZM7.526 20.331.945 39.06h9.529l2.706-7.608h6.471V20.33H7.526Zm12.898 0v11.12h6.56l2.639 7.608h9.596L32.637 20.33H20.424ZM41.858.941v18.621h11.149V.942h-11.15Zm11.919 0v18.621h11.64a11.49 11.49 0 0 0-3.89-2.537 8.574 8.574 0 0 0 4.41-7.496c0-4.743-3.853-8.588-8.617-8.588H53.776Zm-11.92 19.39V39.06h11.15V20.33h-11.15Zm11.92 0V39.06h3.542c6.335 0 11.469-5.108 11.469-11.413 0-2.785-1.005-5.334-2.669-7.315H53.777ZM71.692.941v18.621h11.082V.942H71.692Zm11.854 0v18.621H95.24a11.477 11.477 0 0 0-3.886-2.537c2.636-1.469 4.42-4.275 4.42-7.496 0-4.743-3.864-8.588-8.628-8.588h-3.6Zm-11.854 19.39V39.06h11.082V20.33H71.692Zm11.854 0V39.06h3.6c6.334 0 11.465-5.108 11.465-11.413 0-2.785-1.002-5.334-2.666-7.315H83.546Z" fill="#fff"/>
</svg>
