<svg width="101" height="60" fill="none" xmlns="http://www.w3.org/2000/svg">
    <g clip-path="url(#a)" fill="#fff">
        <path d="M100.43 16.71C96.486 1.87 70.927-4.227 43.335 3.105 15.743 10.437-3.43 28.404.514 43.252 4.457 58.1 30.02 64.189 57.614 56.86c27.591-7.327 46.759-25.308 42.816-40.15ZM57.224 55.386C33.54 61.68 11.312 55.41 7.583 41.377c-3.729-14.033 12.46-30.506 36.149-36.8 23.69-6.295 45.909-.016 49.632 14.017 3.722 14.033-12.45 30.506-36.14 36.792Z"/>
        <path d="m89.114 26.94-.004-6.895H68.425v20.69h6.895V26.94h13.794ZM64.93 33.84H51.136v-6.9H64.93v-6.894H44.242v20.686H64.93v-6.891ZM33.849 40.737h6.898v-20.69H20.06v20.69h6.899V26.94h6.89v13.796ZM134.917 20.928v7.853h-1.826v-6.42h-5.477v6.42h-1.826v-7.853h9.129ZM145.527 20.928a1.98 1.98 0 0 1 1.245.336 1.387 1.387 0 0 1 .457 1.187v1.747c.013.21-.017.422-.088.62-.07.199-.18.381-.323.536a2.26 2.26 0 0 1-1.354.365h-4.898v3.058h-1.823v-7.853l6.784.004Zm-4.962 1.34v2.112h4.018c.215.024.432-.018.623-.12a.58.58 0 0 0 .197-.503v-.869a.584.584 0 0 0-.197-.5 1.085 1.085 0 0 0-.623-.12h-4.018ZM150.346 22.784a2.08 2.08 0 0 1 .427-1.476 2.213 2.213 0 0 1 1.521-.38h5.78a2.216 2.216 0 0 1 1.523.38c.324.42.476.948.425 1.476v4.14a2.09 2.09 0 0 1-.425 1.475 2.214 2.214 0 0 1-1.523.378h-5.78a2.21 2.21 0 0 1-1.521-.378 2.08 2.08 0 0 1-.427-1.476v-4.139Zm7.853 4.564v-4.99h-6.024v4.99h6.024ZM173.997 20.928v7.853h-1.676v-4.853c0-.28.022-.56.064-.838-.117.292-.27.568-.455.822l-2.953 3.925h-.365l-2.95-3.94a3.156 3.156 0 0 1-.471-.807l.044.838v4.853h-1.49v-7.853h1.49l3.698 4.747 3.617-4.747h1.447ZM179.469 22.357v4.99h4.927v-1.703l1.826.38v.898a2.08 2.08 0 0 1-.428 1.476 2.204 2.204 0 0 1-1.521.378h-4.686a2.204 2.204 0 0 1-1.52-.378 2.089 2.089 0 0 1-.425-1.476v-4.139a2.089 2.089 0 0 1 .425-1.476 2.205 2.205 0 0 1 1.52-.38h4.686a2.204 2.204 0 0 1 1.521.38c.326.42.479.948.428 1.476v.776l-1.826.292v-1.492l-4.927-.002ZM194.448 28.777h-1.826v-6.42h-3.605v-1.43h9.038v1.43h-3.607v6.42ZM207.754 20.928c.441-.03.88.089 1.246.336a1.399 1.399 0 0 1 .456 1.187v1.747a1.574 1.574 0 0 1-.412 1.156 2.264 2.264 0 0 1-1.352.365h-4.9v3.058h-1.825v-7.853l6.787.004Zm-4.962 1.34v2.112h4.016a1.06 1.06 0 0 0 .623-.12.587.587 0 0 0 .2-.503v-.869a.575.575 0 0 0-.2-.5 1.074 1.074 0 0 0-.623-.12h-4.016ZM212.573 22.784a2.084 2.084 0 0 1 .427-1.476 2.206 2.206 0 0 1 1.521-.38h5.781a2.217 2.217 0 0 1 1.522.38c.324.42.477.948.426 1.476v4.14a2.089 2.089 0 0 1-.426 1.475 2.215 2.215 0 0 1-1.522.378h-5.78a2.206 2.206 0 0 1-1.521-.378 2.08 2.08 0 0 1-.427-1.476l-.001-4.139Zm7.853 4.564v-4.99h-6.022v4.99h6.022ZM227.803 26.723l6.54-5.795h1.521v7.853h-1.825v-5.795l-6.54 5.795h-1.521v-7.853h1.825v5.795ZM250.826 20.928v1.43h-5.566v6.42h-1.826v-7.854l7.392.004ZM260.539 20.928a1.98 1.98 0 0 1 1.247.336 1.382 1.382 0 0 1 .459 1.187v1.747a1.573 1.573 0 0 1-.412 1.156c-.402.262-.876.39-1.354.365h-4.898v3.058h-1.827v-7.853l6.785.004Zm-4.958 1.34v2.112h4.02c.215.024.433-.018.623-.12a.58.58 0 0 0 .196-.503v-.869a.584.584 0 0 0-.196-.5 1.08 1.08 0 0 0-.623-.12h-4.02ZM267.122 24.32h5.417v-3.392h1.841v6.208c.022.46-.13.91-.427 1.262-.382.268-.842.4-1.308.378h-5.463a2.12 2.12 0 0 1-1.4-.378 2.089 2.089 0 0 1-.426-1.476v-.248l1.765-.333v1.003h5.417v-1.75h-5.416c-.474.026-.944-.101-1.34-.365a2.098 2.098 0 0 1-.426-1.49v-2.815h1.765l.001 3.396ZM287.326 20.928v7.853h-1.831v-6.42h-5.471v6.42h-1.826v-7.853h9.128Z"/>
        <path d="m229.325 23.427 2.496-2.498h-2.496v2.498ZM127.368 34.212v-.49a.353.353 0 0 0-.102-.28.36.36 0 0 0-.279-.106.39.39 0 0 0-.412.441v2.069a.388.388 0 0 0 .412.441.36.36 0 0 0 .381-.387v-.608h.97v.657a1.228 1.228 0 0 1-.436.853 1.23 1.23 0 0 1-.915.284 1.266 1.266 0 0 1-1.421-1.216v-2.117a1.26 1.26 0 0 1 1.421-1.216 1.233 1.233 0 0 1 1.351 1.137v.537h-.97ZM136.446 32.648v.767h-.999v3.544h-.97v-3.544h-.997v-.767h2.966ZM142.659 32.649v.483a.88.88 0 0 1 .828-.593 1.077 1.077 0 0 1 1.131 1.207v2.129a1.105 1.105 0 0 1-1.131 1.216.87.87 0 0 1-.828-.586V38.4h-.971v-5.749l.971-.003Zm0 1.209v1.94a.472.472 0 0 0 .284.484c.062.027.128.04.195.04a.456.456 0 0 0 .45-.313c.02-.063.027-.128.02-.193v-1.97a.468.468 0 0 0-.02-.194.454.454 0 0 0-.45-.312.471.471 0 0 0-.479.518ZM153.128 33.943v1.738a1.327 1.327 0 0 1-.423 1.073 1.317 1.317 0 0 1-1.103.334c-1.153 0-1.53-.657-1.53-1.407v-1.738c0-.75.377-1.405 1.53-1.405a1.32 1.32 0 0 1 1.437.82c.073.186.104.386.089.585Zm-2.046-.127v1.992a.45.45 0 0 0 .131.387.463.463 0 0 0 .389.126c.318 0 .517-.111.517-.513v-1.992c0-.401-.199-.512-.517-.512a.455.455 0 0 0-.52.512ZM159.567 32.648v2.574l1.043-2.574h.942v4.311h-.948v-2.542l-1.037 2.542h-.941v-4.311h.941ZM169.732 32.648v.767h-.994v3.544h-.971v-3.544h-.997v-.767h2.962ZM175.904 34.904v.939a.442.442 0 0 0 .313.46c.064.02.132.026.198.016a.454.454 0 0 0 .481-.28.466.466 0 0 0 .033-.196v-.244h.97v.119c0 .97-.626 1.367-1.487 1.367-.86 0-1.483-.387-1.483-1.367v-1.816c0-.979.626-1.367 1.483-1.367.858 0 1.487.395 1.487 1.367v1.002h-1.995Zm1.025-.71v-.418a.463.463 0 0 0-.146-.358.46.46 0 0 0-.368-.115c-.315 0-.511.156-.511.473v.422l1.025-.004ZM186.469 32.648v4.311h-.971v-3.544h-.799v1.728c0 1.524-.423 1.896-1.002 1.896a1.822 1.822 0 0 1-.558-.08v-.71c.069.015.14.022.21.023.365 0 .405-.15.405-1.981v-1.644h2.715ZM192.971 34.292h.625a1.262 1.262 0 0 1 1.303 1.323 1.269 1.269 0 0 1-.361.953 1.28 1.28 0 0 1-.942.39h-1.598v-4.312h.971l.002 1.646Zm0 1.903h.317c.314 0 .599-.094.599-.577 0-.427-.278-.561-.599-.561h-.317v1.138ZM201.364 34.292h.931v-1.644h.971v4.311h-.971v-1.903h-.931v1.903h-.97v-4.311h.97v1.644ZM209.772 34.292h.625a1.268 1.268 0 0 1 1.223.812c.062.163.09.337.082.511a1.29 1.29 0 0 1-.362.954 1.28 1.28 0 0 1-.943.388H208.8v-4.31h.971l.001 1.645Zm0 1.903h.318c.314 0 .599-.094.599-.577 0-.427-.278-.561-.599-.561h-.318v1.138Zm3.529.764h-.971v-4.311h.971v4.311ZM219.779 32.648v2.574l1.041-2.574h.94v4.311h-.947v-2.542l-1.034 2.542h-.953v-4.311h.953Zm0-1.39c0 .372.218.403.504.403.309 0 .529-.047.529-.403h.52c0 .633-.325.97-1.034.97a.92.92 0 0 1-.736-.246.922.922 0 0 1-.282-.724h.499ZM234.728 32.648l.491 1.193.492-1.193h1.072l-1.072 2.156 1.125 2.155h-1.125l-.492-1.235-.491 1.235h-1.129l1.127-2.155-1.072-2.156h1.074ZM245.032 33.943v1.738a1.327 1.327 0 0 1-.935 1.366 1.326 1.326 0 0 1-.59.041c-1.154 0-1.532-.657-1.532-1.407v-1.738c0-.75.377-1.405 1.532-1.405a1.32 1.32 0 0 1 1.436.821c.074.186.104.385.089.584Zm-2.044-.127v1.992a.45.45 0 0 0 .131.387.456.456 0 0 0 .388.126c.317 0 .514-.111.514-.513v-1.992c0-.401-.197-.512-.514-.512a.448.448 0 0 0-.389.125.454.454 0 0 0-.13.387ZM253.596 32.648v4.311h-.97v-3.544h-.794v1.728c0 1.524-.428 1.896-1.005 1.896a1.856 1.856 0 0 1-.56-.08v-.71c.071.015.142.022.215.023.361 0 .401-.15.401-1.981v-1.644h2.713ZM259.58 34.077v-1.43h2.685v3.547h.353v1.807h-.915v-1.043h-1.857v1.043h-.915v-1.807h.274c.314-.659.443-1.39.375-2.117Zm1.715-.662h-.785v.99a3.551 3.551 0 0 1-.321 1.786h1.106v-2.776ZM268.906 32.648v2.574l1.041-2.574h.941v4.311h-.95v-2.542l-1.033 2.542h-.948v-4.311h.949ZM277.392 34.292h.931v-1.644h.971v4.311h-.971v-1.903h-.931v1.903h-.97v-4.311h.97v1.644ZM287.358 32.648v.767h-1.556v3.544h-.97v-4.311h2.526Z"/>
    </g>
    <defs>
        <clipPath id="a">
            <path fill="#fff" d="M0 0h101v60H0z"/>
        </clipPath>
    </defs>
</svg>
