<?xml version="1.0" encoding="utf-8"?><svg viewBox="0 0 78 55" xmlns="http://www.w3.org/2000/svg" xmlns:xlink="http://www.w3.org/1999/xlink"><style>:root>svg{display:none}:root>svg:target{display:block}</style><svg viewBox="0 0 24 24" id="icon-cart" xmlns="http://www.w3.org/2000/svg"><path d="M17 18a2 2 0 11-2 2c0-1.11.89-2 2-2zM1 2h3.27l.94 2H20a1 1 0 011 1c0 .17-.05.34-.12.5l-3.58 6.47c-.34.61-1 1.03-1.75 1.03H8.1l-.9 1.63-.03.12a.25.25 0 00.25.25H19v2H7a2 2 0 01-2-2c0-.35.09-.68.24-.96l1.36-2.45L3 4H1V2zm6 16a2 2 0 11-2 2c0-1.11.89-2 2-2zm9-7l2.78-5H6.14l2.36 5H16z"/></svg><svg viewBox="0 0 40 40" id="icon-close" xmlns="http://www.w3.org/2000/svg"><path d="M20.943 20.059L31.77 9.23a.625.625 0 00-.884-.884L20.06 19.175 9.23 8.347a.625.625 0 10-.884.884l10.828 10.828L8.347 30.886a.625.625 0 10.884.884L20.06 20.942 30.886 31.77a.623.623 0 00.884 0 .625.625 0 000-.884L20.943 20.06z"/></svg><svg viewBox="0 0 16 16" id="icon-geo" xmlns="http://www.w3.org/2000/svg"><g clip-path="url(#ca)"><path d="M8 1.333A4.663 4.663 0 003.335 6c0 3.5 4.667 8.666 4.667 8.666S12.667 9.5 12.667 6a4.663 4.663 0 00-4.666-4.667zm0 6.333a1.667 1.667 0 11.002-3.334A1.667 1.667 0 018 7.666z"/></g><defs><clipPath id="ca"><path d="M0 0h16v16H0z"/></clipPath></defs></svg><svg viewBox="0 0 24 24" id="icon-heart" xmlns="http://www.w3.org/2000/svg"><path d="M12.1 18.55l-.1.1-.11-.1C7.14 14.24 4 11.39 4 8.5 4 6.5 5.5 5 7.5 5c1.54 0 3.04 1 3.57 2.36h1.86C13.46 6 14.96 5 16.5 5c2 0 3.5 1.5 3.5 3.5 0 2.89-3.14 5.74-7.9 10.05zM16.5 3c-1.74 0-3.41.81-4.5 2.08C10.91 3.81 9.24 3 7.5 3 4.42 3 2 5.41 2 8.5c0 3.77 3.4 6.86 8.55 11.53L12 21.35l1.45-1.32C18.6 15.36 22 12.27 22 8.5 22 5.41 19.58 3 16.5 3z"/></svg><svg viewBox="0 0 24 24" id="icon-insta" xmlns="http://www.w3.org/2000/svg"><path d="M12 0C8.74 0 8.333.015 7.053.072 5.775.132 4.905.333 4.14.63a5.876 5.876 0 00-2.126 1.384A5.855 5.855 0 00.63 4.14C.333 4.905.131 5.775.072 7.053.012 8.333 0 8.74 0 12s.015 3.667.072 4.947c.06 1.277.261 2.148.558 2.913a5.885 5.885 0 001.384 2.126A5.868 5.868 0 004.14 23.37c.766.296 1.636.499 2.913.558C8.333 23.988 8.74 24 12 24s3.667-.015 4.947-.072c1.277-.06 2.148-.262 2.913-.558a5.898 5.898 0 002.126-1.384 5.86 5.86 0 001.384-2.126c.296-.765.499-1.636.558-2.913.06-1.28.072-1.687.072-4.947s-.015-3.667-.072-4.947c-.06-1.277-.262-2.149-.558-2.913a5.89 5.89 0 00-1.384-2.126A5.847 5.847 0 0019.86.63c-.765-.297-1.636-.499-2.913-.558C15.667.012 15.26 0 12 0zm0 2.16c3.203 0 3.585.016 4.85.071 1.17.055 1.805.249 2.227.415.562.217.96.477 1.382.896.419.42.679.819.896 1.381.164.422.36 1.057.413 2.227.057 1.266.07 1.646.07 4.85 0 3.204-.015 3.585-.074 4.85-.061 1.17-.256 1.805-.421 2.227a3.81 3.81 0 01-.899 1.382 3.744 3.744 0 01-1.38.896c-.42.164-1.065.36-2.235.413-1.274.057-1.649.07-4.859.07-3.211 0-3.586-.015-4.859-.074-1.171-.061-1.816-.256-2.236-.421a3.716 3.716 0 01-1.379-.899 3.644 3.644 0 01-.9-1.38c-.165-.42-.359-1.065-.42-2.235-.045-1.26-.061-1.649-.061-4.844 0-3.196.016-3.586.061-4.861.061-1.17.255-1.814.42-2.234.21-.57.479-.96.9-1.381.419-.419.81-.689 1.379-.898.42-.166 1.051-.361 2.221-.421 1.275-.045 1.65-.06 4.859-.06l.045.03zm0 3.678a6.162 6.162 0 100 12.324 6.162 6.162 0 100-12.324zM12 16c-2.21 0-4-1.79-4-4s1.79-4 4-4 4 1.79 4 4-1.79 4-4 4zm7.846-10.405a1.441 1.441 0 01-2.88 0 1.44 1.44 0 012.88 0z"/></svg><svg viewBox="0 0 73 55" id="icon-logo" xmlns="http://www.w3.org/2000/svg"><path d="M28.795 6.953c1.271.424 2.42 1.084 3.502 1.859 2.062 1.479 3.843 3.245 5.388 5.25a41.604 41.604 0 013.05 4.576c.165.282.341.558.618 1.008.007.008.022.006.022-.005.36-3.495-1.238-8.503-5.299-12.145-2.42-2.171-5.545-3.413-8.168-3.807-1.229-.185-2.347-.185-3.23-.003-.004.003-.008.007-.008.011-.008.346.028.711.03 1.074.017 3.325-.015 6.651.002 9.977.015 3.155.021 6.313.043 9.47a1.12 1.12 0 001.095 1.105c.354.006.716.017 1.082.006a1.08 1.08 0 001.046-1.067c.006-.57-.01-1.13-.008-1.69.002-.74-.005-1.483-.009-2.224l-.002-.422-.013-2.646-.013-2.545-.012-2.647c0-.12-.003-.258-.003-.407V6.73c.147.032.674.15.887.223z"/><path d="M48.299 30.238c-.017-4.892.015-9.78-.002-14.67-.015-4.64-.022-9.282-.043-13.923C48.252.766 47.76.034 47.16.017c-.354-.01-.716-.026-1.082-.01-.58.025-1 .723-1.004 1.57-.006.836.011 1.66.009 2.483-.002 1.09.004 2.18.008 3.27v-.002 12.748c.005 1.363.009 3.294.009 3.294l-.009 3.986v1.388a10.866 10.866 0 01-.884-.187c-1.272-.424-2.42-1.084-3.502-1.86-2.062-1.478-3.843-3.244-5.388-5.25a41.619 41.619 0 01-3.05-4.575c-.164-.282-.341-.558-.618-1.008-.007-.009-.022-.007-.022.004-.36 3.495 1.238 8.504 5.299 12.146 2.396 2.15 5.99 3.49 8.606 3.898a.16.16 0 00.032.005l.043.006v-.002c1.025.167 1.958.136 2.716-.094.005-.002.009-.008.009-.017.006-.503-.03-1.04-.032-1.572zm-37.44 10.825v12.944H9.727L1.374 43.504v10.503H0V41.063h1.131l8.37 10.503V41.063h1.358zm4.186 0h1.374v12.944h-1.374V41.063zm8.352 1.185h-4.565v-1.184h10.505v1.184h-4.568v11.76h-1.374v-11.76h.002zm8.352-1.185h1.374v12.944h-1.374V41.063zm6.554 12.591c-.885-.308-1.568-.715-2.052-1.22l.539-1.055c.47.469 1.095.847 1.875 1.138.78.29 1.583.434 2.413.434 1.164 0 2.035-.212 2.619-.638.583-.427.873-.977.873-1.656 0-.517-.157-.93-.473-1.239a3.191 3.191 0 00-1.16-.711c-.459-.166-1.096-.348-1.912-.545-.978-.247-1.757-.484-2.339-.711a3.811 3.811 0 01-1.493-1.044c-.416-.47-.622-1.104-.622-1.904 0-.654.172-1.248.52-1.785.347-.537.877-.964 1.595-1.286.718-.32 1.608-.482 2.674-.482.743 0 1.47.102 2.181.306a6.304 6.304 0 011.847.84l-.464 1.091a6.44 6.44 0 00-1.745-.804 6.557 6.557 0 00-1.82-.268c-1.137 0-1.995.219-2.57.656-.576.437-.864 1.002-.864 1.691 0 .518.158.934.473 1.248.316.315.712.554 1.19.722a22.16 22.16 0 001.92.545c.953.234 1.724.465 2.312.694.588.23 1.087.573 1.494 1.036.409.463.613 1.089.613 1.876 0 .654-.177 1.248-.528 1.785-.354.537-.895.961-1.623 1.275-.731.315-1.628.471-2.691.471a8.28 8.28 0 01-2.782-.46zm19.463-11.408c.94.79 1.41 1.874 1.41 3.253 0 1.382-.47 2.462-1.41 3.245-.941.783-2.239 1.174-3.898 1.174h-3.49v4.085h-1.374V41.06h4.864c1.66.002 2.959.396 3.898 1.186zm-.984 5.63c.68-.56 1.02-1.352 1.02-2.377 0-1.048-.34-1.852-1.02-2.413-.682-.56-1.664-.84-2.95-.84h-3.454v6.473h3.453c1.287-.002 2.271-.282 2.951-.843zm15.522.556c.464.55.696 1.254.696 2.118 0 1.11-.41 1.963-1.233 2.561-.823.599-2.04.898-3.647.898h-5.978V41.065h5.605c1.448 0 2.571.291 3.368.87.799.58 1.197 1.4 1.197 2.46 0 .715-.177 1.322-.528 1.821-.352.499-.84.872-1.457 1.119.854.182 1.512.55 1.977 1.097zm-8.79-6.242v4.697h4.139c1.052 0 1.862-.2 2.43-.6.57-.402.855-.983.855-1.747 0-.764-.285-1.348-.854-1.747-.57-.401-1.38-.6-2.431-.6h-4.14v-.003zm7.222 10.098c.594-.395.89-1.01.89-1.849 0-1.615-1.176-2.421-3.526-2.421h-4.584v4.862H68.1c1.161 0 2.041-.197 2.636-.592z"/></svg><svg viewBox="0 0 24 24" id="icon-mail" xmlns="http://www.w3.org/2000/svg"><path fill-rule="evenodd" clip-rule="evenodd" d="M4 5c-.548 0-1 .452-1 1v12c0 .548.452 1 1 1h16c.548 0 1-.452 1-1V6c0-.548-.452-1-1-1H4zM1 6c0-1.652 1.348-3 3-3h16c1.652 0 3 1.348 3 3v12c0 1.652-1.348 3-3 3H4c-1.652 0-3-1.348-3-3V6z"/><path fill-rule="evenodd" clip-rule="evenodd" d="M1.18 5.427a1 1 0 011.394-.246L12 11.779l9.427-6.598a1 1 0 111.146 1.638l-10 7a1 1 0 01-1.146 0l-10-7a1 1 0 01-.246-1.392z"/></svg><svg viewBox="0 0 78 17" id="icon-ozon" xmlns="http://www.w3.org/2000/svg"><path fill-rule="evenodd" clip-rule="evenodd" d="M9.377.047a8.566 8.566 0 00-5.06 1.034A8.513 8.513 0 00.783 4.833a8.465 8.465 0 001.655 9.665 8.569 8.569 0 009.702 1.679 8.52 8.52 0 003.779-3.508 8.472 8.472 0 00-1.39-10.173A8.54 8.54 0 009.377.046zM9.1 12.995a4.569 4.569 0 01-2.742-.49 4.542 4.542 0 01-1.942-1.99 4.515 4.515 0 01.855-5.213 4.57 4.57 0 015.233-.867 4.544 4.544 0 012.004 1.927 4.516 4.516 0 01-.789 5.34A4.558 4.558 0 019.1 12.996zM21.538.383a1.998 1.998 0 00-1.543.736 1.98 1.98 0 00-.4 1.656c.187.935 1.063 1.573 2.018 1.573h5.54l-8.622 11.361a.565.565 0 00.451.908h13.526c.954 0 1.83-.638 2.018-1.572a1.975 1.975 0 00-1.088-2.198 1.999 1.999 0 00-.855-.195h-6.75L34.447 1.3a.57.57 0 00-.456-.917H21.538zm54.046.046a2.022 2.022 0 00-1.129.723 2.007 2.007 0 00-.425 1.267V9.02L63.287.508a.573.573 0 00-.926.447v13.63a2.018 2.018 0 001.553 1.99 1.998 1.998 0 001.675-.391 1.982 1.982 0 00.741-1.546V7.98l10.744 8.512a.573.573 0 00.926-.447V2.365A1.972 1.972 0 0077.258.82a1.993 1.993 0 00-1.674-.39zM47.61 3.969c4.544 0 7.94 2.39 7.94 4.53 0 2.138-3.396 4.529-7.94 4.529-4.544 0-7.94-2.391-7.94-4.53 0-2.139 3.396-4.53 7.94-4.53zm0-3.965c-6.577 0-11.909 3.803-11.909 8.494 0 4.692 5.332 8.495 11.91 8.495 6.577 0 11.908-3.803 11.908-8.495 0-4.691-5.332-8.494-11.909-8.494z"/></svg><svg viewBox="0 0 16 16" id="icon-phone" xmlns="http://www.w3.org/2000/svg"><path d="M4.413 7.193a10.065 10.065 0 004.394 4.394l1.466-1.467a.67.67 0 01.68-.167c.747.247 1.547.38 2.38.38A.667.667 0 0114 11v2.333a.666.666 0 01-.667.667A11.333 11.333 0 012 2.667.667.667 0 012.667 2H5a.667.667 0 01.667.667c0 .833.133 1.633.38 2.38a.669.669 0 01-.167.68L4.413 7.193z"/></svg><svg viewBox="0 0 24 24" id="icon-search" xmlns="http://www.w3.org/2000/svg"><path d="M9.5 3A6.5 6.5 0 0116 9.5c0 1.61-.59 3.09-1.56 4.23l.27.27h.79l5 5-1.5 1.5-5-5v-.79l-.27-.27A6.516 6.516 0 019.5 16a6.5 6.5 0 110-13m0 2C7 5 5 7 5 9.5S7 14 9.5 14 14 12 14 9.5 12 5 9.5 5z"/></svg><svg viewBox="0 0 24 24" id="icon-user" xmlns="http://www.w3.org/2000/svg"><path d="M12 4a4 4 0 110 8 4 4 0 010-8m0 2a2 2 0 100 4 2 2 0 000-4m0 7c2.67 0 8 1.33 8 4v3H4v-3c0-2.67 5.33-4 8-4zm0 1.9c-2.97 0-6.1 1.46-6.1 2.1v1.1h12.2V17c0-.64-3.13-2.1-6.1-2.1z"/></svg><svg viewBox="0 0 31 22" id="icon-vk" xmlns="http://www.w3.org/2000/svg"><path fill-rule="evenodd" clip-rule="evenodd" d="M24.365 20a.203.203 0 01-.195-.15 8.982 8.982 0 00-2.542-4.192 8.22 8.22 0 00-2.7-1.665l-.012-.005a7.94 7.94 0 00-1.461-.387.196.196 0 00-.226.195V19.8a.2.2 0 01-.2.2h-.323C7.538 20 2.284 13.325 2.005 2.206a.2.2 0 01.2-.206h4.22c.109 0 .198.09.2.199.161 6.447 2.327 9.947 4.553 11.47l.082.054c.295.196.59.356.882.485.163.072.326.134.486.186a.192.192 0 00.25-.186V2.2c0-.11.09-.2.2-.2h3.95a.2.2 0 01.2.2v6.693c0 .12.105.212.223.192.238-.042.478-.107.716-.192a5.361 5.361 0 00.762-.345c2.035-1.112 3.898-3.648 4.668-6.4A.202.202 0 0123.79 2h3.955c.126 0 .22.114.195.237a14.557 14.557 0 01-.388 1.463 14.1 14.1 0 01-1.649 3.446 13.423 13.423 0 01-2.392 2.74 12.977 12.977 0 01-1.16.898.208.208 0 00.015.352 12.996 12.996 0 011.236.792c.012.01.024.018.037.027a13.698 13.698 0 012.8 2.737 14.464 14.464 0 012.02 3.608l.01.025a14.92 14.92 0 01.465 1.426.197.197 0 01-.192.249h-4.378zm.625-9.157a15.435 15.435 0 012.8 2.814 16.287 16.287 0 012.785 5.648 1.897 1.897 0 01-1.832 2.395h-4.378c-.87 0-1.607-.586-1.832-1.391a7.282 7.282 0 00-2.056-3.401 6.588 6.588 0 00-1.548-1.066V19.8a1.9 1.9 0 01-1.9 1.9h-.323c-5.037 0-9.15-1.856-12.002-5.353C1.894 12.902.451 8.041.305 2.248A1.9 1.9 0 012.205.3h4.22c1.066 0 1.875.86 1.9 1.856.123 4.956 1.47 7.77 2.853 9.263V2.2a1.9 1.9 0 011.9-1.9h3.95a1.9 1.9 0 011.9 1.9v4.302c.304-.247.613-.545.92-.894A10.298 10.298 0 0021.96 1.69 1.902 1.902 0 0123.79.3h3.955a1.897 1.897 0 011.858 2.286 15.91 15.91 0 01-2.28 5.496 15.158 15.158 0 01-2.335 2.76z"/></svg></svg>