<svg width="570" height="423" fill="none" xmlns="http://www.w3.org/2000/svg">
    <path d="M224.605 54.233c9.92 3.31 18.877 8.46 27.319 14.502 16.086 11.538 29.978 25.31 42.026 40.955 8.758 11.356 16.618 23.291 23.797 35.691 1.279 2.201 2.658 4.353 4.819 7.863.05.066.166.049.166-.033 2.808-27.265-9.655-66.333-41.328-94.74-18.878-16.935-43.256-26.62-63.712-29.698-9.589-1.44-18.313-1.44-25.193-.017-.033.017-.066.05-.066.083-.067 2.698.216 5.546.233 8.376.133 25.94-.117 51.881.016 77.822.117 24.616.166 49.248.333 73.865.016 4.668 3.855 8.542 8.541 8.624 2.759.05 5.584.133 8.442.05 4.52-.132 8.109-3.824 8.159-8.327.05-4.436-.083-8.807-.066-13.177.016-5.777-.034-11.571-.067-17.349 0-1.092-.016-2.201-.016-3.294l-.1-20.643-.1-19.849-.1-20.643c0-.943-.016-2.02-.016-3.178V52.495c1.146.248 5.251 1.175 6.913 1.738Z" fill="#B6DAFF"/>
    <path d="M376.739 235.864c-.133-38.158.116-76.282-.017-114.423-.116-36.204-.166-72.408-.332-108.612-.017-6.854-3.856-12.565-8.542-12.697-2.758-.083-5.583-.199-8.442-.083-4.52.199-7.793 5.645-7.827 12.25-.049 6.522.084 12.945.067 19.368-.017 8.51.033 17.002.066 25.51v-.016 99.441c.034 10.628.067 25.692.067 25.692l-.067 31.089v10.827c-2.708-.497-5.915-1.126-6.896-1.457-9.921-3.311-18.878-8.459-27.319-14.502-16.086-11.538-29.979-25.311-42.026-40.955-8.758-11.356-16.618-23.292-23.797-35.691-1.279-2.201-2.659-4.354-4.819-7.863-.05-.066-.166-.05-.166.033-2.808 27.265 9.655 66.333 41.328 94.74 18.695 16.769 46.729 27.232 67.135 30.41.083.016.166.033.25.033.116.017.232.033.332.05v-.017c7.993 1.308 15.272 1.06 21.187-.728.034-.017.067-.066.067-.133.05-3.923-.233-8.111-.249-12.266ZM84.7 320.306V421.27h-8.824l-65.158-81.927v81.927H0V320.306h8.824l65.29 81.926v-81.926H84.7ZM117.354 320.306h10.718V421.27h-10.718V320.306ZM182.512 329.543H146.9v-9.237h81.942v9.237h-35.629v91.727h-10.718v-91.727h.017ZM247.654 320.306h10.718V421.27h-10.718V320.306ZM298.769 418.517c-6.896-2.4-12.23-5.578-16.002-9.518l4.204-8.228c3.672 3.659 8.541 6.605 14.623 8.873a53.416 53.416 0 0 0 18.828 3.394c9.074 0 15.87-1.656 20.423-4.983 4.554-3.327 6.814-7.615 6.814-12.912 0-4.039-1.23-7.251-3.689-9.668-2.46-2.4-5.484-4.254-9.057-5.546-3.573-1.291-8.542-2.714-14.906-4.254-7.628-1.92-13.71-3.774-18.246-5.546-4.537-1.771-8.426-4.486-11.649-8.144-3.241-3.659-4.853-8.608-4.853-14.849 0-5.099 1.346-9.734 4.055-13.923 2.709-4.188 6.846-7.515 12.447-10.031 5.6-2.5 12.546-3.758 20.855-3.758 5.799 0 11.466.794 17.016 2.384 5.551 1.589 10.353 3.774 14.408 6.555l-3.623 8.509c-4.254-2.781-8.791-4.884-13.61-6.274-4.835-1.391-9.555-2.086-14.191-2.086-8.874 0-15.571 1.705-20.058 5.115-4.486 3.41-6.73 7.814-6.73 13.194 0 4.039 1.23 7.284 3.689 9.734 2.46 2.45 5.551 4.321 9.273 5.628 3.722 1.292 8.708 2.715 14.989 4.255 7.428 1.821 13.444 3.625 18.03 5.413 4.587 1.788 8.475 4.47 11.649 8.078 3.191 3.609 4.786 8.493 4.786 14.634 0 5.099-1.379 9.734-4.121 13.922-2.759 4.189-6.979 7.5-12.663 9.95-5.7 2.45-12.696 3.675-20.988 3.675-7.594.016-14.806-1.176-21.703-3.593ZM450.587 329.533c7.329 6.158 11.001 14.617 11.001 25.378 0 10.776-3.672 19.203-11.001 25.311-7.345 6.109-17.465 9.155-30.41 9.155h-27.22v31.866h-10.719V320.279h37.939c12.945.017 23.082 3.096 30.41 9.254Zm-7.677 43.918c5.301-4.37 7.96-10.545 7.96-18.54 0-8.178-2.659-14.452-7.96-18.822-5.318-4.371-12.979-6.556-23.016-6.556h-26.937v50.491h26.937c10.037-.017 17.715-2.202 23.016-6.573ZM563.987 377.78c3.623 4.288 5.434 9.784 5.434 16.521 0 8.658-3.207 15.313-9.622 19.981-6.414 4.668-15.903 7.002-28.449 7.002h-46.629V320.32h43.721c11.3 0 20.057 2.268 26.272 6.788 6.232 4.519 9.34 10.909 9.34 19.186 0 5.579-1.38 10.313-4.122 14.203-2.741 3.891-6.547 6.804-11.366 8.724 6.664 1.424 11.798 4.288 15.421 8.559Zm-68.564-48.686v36.635h32.288c8.209 0 14.524-1.557 18.96-4.685 4.437-3.129 6.664-7.665 6.664-13.624 0-5.96-2.227-10.512-6.664-13.625-4.436-3.128-10.768-4.684-18.96-4.684h-32.288v-.017Zm56.333 78.765c4.637-3.079 6.947-7.88 6.947-14.419 0-12.597-9.173-18.888-27.503-18.888h-35.761v37.926H531.2c9.057 0 15.92-1.54 20.556-4.619Z" fill="#B6DAFF"/>
</svg>
