<svg width="24" height="33" fill="none" xmlns="http://www.w3.org/2000/svg">
    <path d="M4.126 6.954c1.272.424 2.42 1.084 3.502 1.859 2.062 1.479 3.843 3.245 5.388 5.25a41.604 41.604 0 0 1 3.05 4.576c.165.282.341.558.618 1.008.007.008.022.006.022-.005.36-3.495-1.238-8.503-5.299-12.145C8.987 5.326 5.862 4.084 3.24 3.69 2.01 3.505.892 3.505.01 3.687c-.003.003-.008.007-.008.011-.008.346.028.711.03 1.074.017 3.325-.015 6.651.002 9.977.015 3.155.022 6.313.043 9.47a1.12 1.12 0 0 0 1.095 1.105c.354.006.716.017 1.082.006A1.08 1.08 0 0 0 3.3 24.263c.007-.57-.01-1.13-.008-1.69.002-.74-.005-1.483-.009-2.224l-.002-.422-.013-2.647-.013-2.544-.012-2.647c0-.12-.003-.258-.003-.407V6.73c.147.032.674.15.887.223Z" fill="#000"/>
    <path d="M23.63 30.238c-.017-4.892.015-9.78-.002-14.67-.015-4.64-.022-9.282-.043-13.923C23.583.766 23.091.034 22.49.017c-.353-.01-.716-.026-1.082-.01-.58.025-1 .723-1.004 1.57-.006.836.011 1.66.009 2.483-.002 1.09.004 2.18.009 3.27v-.002 12.748l.008 3.294-.008 3.986v1.388c-.348-.064-.759-.145-.885-.187-1.271-.424-2.42-1.084-3.502-1.86-2.062-1.478-3.843-3.244-5.388-5.25a41.606 41.606 0 0 1-3.05-4.575c-.164-.282-.341-.558-.618-1.008-.007-.009-.022-.007-.022.004-.36 3.495 1.238 8.504 5.299 12.146 2.396 2.15 5.99 3.49 8.607 3.898.01.002.02.005.032.005l.042.006v-.002c1.025.167 1.958.136 2.716-.094.005-.002.009-.008.009-.017.006-.503-.03-1.04-.032-1.572Z" fill="#000"/>
</svg>
