<svg width="73" height="55" fill="none" xmlns="http://www.w3.org/2000/svg">
    <path d="M28.795 6.953c1.271.424 2.42 1.084 3.502 1.859 2.062 1.479 3.843 3.245 5.388 5.25a41.604 41.604 0 0 1 3.05 4.576c.165.282.341.558.618 1.008.007.008.022.006.022-.005.36-3.495-1.238-8.503-5.299-12.145-2.42-2.171-5.545-3.413-8.168-3.807-1.229-.185-2.347-.185-3.23-.003-.004.003-.008.007-.008.011-.008.346.028.711.03 1.074.017 3.325-.015 6.651.002 9.977.015 3.155.021 6.313.043 9.47a1.12 1.12 0 0 0 1.095 1.105c.354.006.716.017 1.082.006a1.08 1.08 0 0 0 1.046-1.067c.006-.57-.01-1.13-.008-1.69.002-.74-.005-1.483-.009-2.224l-.002-.422-.013-2.646-.013-2.545-.012-2.647c0-.12-.003-.258-.003-.407V6.73c.147.032.674.15.887.223Z" fill="#fff"/>
    <path d="M48.299 30.238c-.017-4.892.015-9.78-.002-14.67-.015-4.64-.022-9.282-.043-13.923C48.252.766 47.76.034 47.16.017c-.354-.01-.716-.026-1.082-.01-.58.025-1 .723-1.004 1.57-.006.836.011 1.66.009 2.483-.002 1.09.004 2.18.008 3.27v-.002 12.748c.005 1.363.009 3.294.009 3.294l-.009 3.986v1.388c-.347-.064-.758-.145-.884-.187-1.272-.424-2.42-1.084-3.502-1.86-2.062-1.478-3.843-3.244-5.388-5.25a41.619 41.619 0 0 1-3.05-4.575c-.164-.282-.341-.558-.618-1.008-.007-.009-.022-.007-.022.004-.36 3.495 1.238 8.504 5.299 12.146 2.396 2.15 5.99 3.49 8.606 3.898a.16.16 0 0 0 .032.005l.043.006v-.002c1.025.167 1.958.136 2.716-.094.005-.002.009-.008.009-.017.006-.503-.03-1.04-.032-1.572ZM10.859 41.063v12.944H9.727L1.374 43.504v10.503H0V41.063h1.131l8.37 10.503V41.063h1.358ZM15.045 41.063h1.374v12.944h-1.374V41.063ZM23.397 42.248h-4.565v-1.184h10.505v1.184h-4.568v11.76h-1.374v-11.76h.002ZM31.749 41.063h1.374v12.944h-1.374V41.063ZM38.303 53.654c-.885-.308-1.568-.715-2.052-1.22l.539-1.055c.47.469 1.095.847 1.875 1.138.78.29 1.583.434 2.413.434 1.164 0 2.035-.212 2.619-.638.583-.427.873-.977.873-1.656 0-.517-.157-.93-.473-1.239a3.191 3.191 0 0 0-1.16-.711c-.459-.166-1.096-.348-1.912-.545-.978-.247-1.757-.484-2.339-.711a3.811 3.811 0 0 1-1.493-1.044c-.416-.47-.622-1.104-.622-1.904 0-.654.172-1.248.52-1.785.347-.537.877-.964 1.595-1.286.718-.32 1.608-.482 2.674-.482.743 0 1.47.102 2.181.306.712.203 1.327.484 1.847.84l-.464 1.091a6.44 6.44 0 0 0-1.745-.804 6.557 6.557 0 0 0-1.82-.268c-1.137 0-1.995.219-2.57.656-.576.437-.864 1.002-.864 1.691 0 .518.158.934.473 1.248.316.315.712.554 1.19.722.476.165 1.115.348 1.92.545.953.234 1.724.465 2.312.694.588.23 1.087.573 1.494 1.036.409.463.613 1.089.613 1.876 0 .654-.177 1.248-.528 1.785-.354.537-.895.961-1.623 1.275-.731.315-1.628.471-2.691.471a8.28 8.28 0 0 1-2.782-.46ZM57.766 42.246c.94.79 1.41 1.874 1.41 3.253 0 1.382-.47 2.462-1.41 3.245-.941.783-2.239 1.174-3.898 1.174h-3.49v4.085h-1.374V41.06h4.864c1.66.002 2.959.396 3.898 1.186Zm-.984 5.63c.68-.56 1.02-1.352 1.02-2.377 0-1.048-.34-1.852-1.02-2.413-.682-.56-1.664-.84-2.95-.84h-3.454v6.473h3.453c1.287-.002 2.271-.282 2.951-.843ZM72.304 48.432c.464.55.696 1.254.696 2.118 0 1.11-.41 1.963-1.233 2.561-.823.599-2.04.898-3.647.898h-5.978V41.065h5.605c1.448 0 2.571.291 3.368.87.799.58 1.197 1.4 1.197 2.46 0 .715-.177 1.322-.528 1.821-.352.499-.84.872-1.457 1.119.854.182 1.512.55 1.977 1.097Zm-8.79-6.242v4.697h4.139c1.052 0 1.862-.2 2.43-.6.57-.402.855-.983.855-1.747 0-.764-.285-1.348-.854-1.747-.57-.401-1.38-.6-2.431-.6h-4.14v-.003Zm7.222 10.098c.594-.395.89-1.01.89-1.849 0-1.615-1.176-2.421-3.526-2.421h-4.584v4.862H68.1c1.161 0 2.041-.197 2.636-.592Z" fill="#fff"/>
</svg>
