<svg width="81" height="60" fill="none" xmlns="http://www.w3.org/2000/svg">
    <path d="M31.926 7.708c1.41.471 2.683 1.203 3.883 2.062 2.287 1.64 4.261 3.598 5.974 5.821a46.14 46.14 0 0 1 3.383 5.073c.181.313.377.62.684 1.118.008.01.024.007.024-.005.4-3.875-1.372-9.428-5.874-13.466-2.684-2.407-6.149-3.784-9.057-4.222-1.363-.204-2.603-.204-3.58-.002-.005.002-.01.007-.01.012-.01.383.03.788.033 1.19.019 3.688-.017 7.375.002 11.062.017 3.5.024 7 .048 10.5a1.241 1.241 0 0 0 1.214 1.226c.392.007.793.018 1.2.007a1.197 1.197 0 0 0 1.16-1.184c.007-.63-.012-1.252-.01-1.873.002-.821-.005-1.645-.01-2.466l-.002-.468-.014-2.935-.014-2.82-.014-2.935c0-.134-.003-.287-.003-.452v-5.49c.163.036.747.167.983.247Z" fill="#B6DAFF"/>
    <path d="M53.551 33.526c-.019-5.423.017-10.843-.002-16.264-.017-5.146-.024-10.292-.048-15.438C53.5.849 52.953.038 52.287.019c-.392-.012-.793-.029-1.2-.012-.642.028-1.108.802-1.112 1.741-.007.927.012 1.84.01 2.753-.003 1.21.004 2.417.009 3.626v-.002V22.26l.01 3.652-.01 4.419v1.539c-.385-.07-.841-.16-.98-.207-1.41-.47-2.684-1.203-3.884-2.061-2.286-1.64-4.261-3.598-5.974-5.822a46.135 46.135 0 0 1-3.382-5.073c-.182-.313-.378-.62-.685-1.118-.007-.01-.024-.007-.024.005-.399 3.875 1.373 9.428 5.875 13.466 2.657 2.384 6.642 3.871 9.543 4.323.012.002.023.005.035.005l.047.007v-.003c1.137.186 2.171.151 3.012-.103.005-.003.01-.01.01-.019.006-.558-.034-1.153-.036-1.744ZM12.04 45.528V59.88h-1.255L1.524 48.234V59.88H0V45.528h1.254l9.28 11.646V45.528h1.505ZM16.68 45.528h1.524V59.88h-1.523V45.528ZM25.943 46.841H20.88v-1.313h11.647v1.313h-5.064V59.88H25.94V46.84h.003ZM35.202 45.528h1.524V59.88h-1.524V45.528ZM42.468 59.489c-.98-.341-1.738-.793-2.275-1.353l.598-1.17c.522.52 1.214.94 2.079 1.261a7.592 7.592 0 0 0 2.676.483c1.29 0 2.256-.235 2.903-.708.647-.473.968-1.083.968-1.836 0-.574-.175-1.03-.524-1.374a3.538 3.538 0 0 0-1.287-.788c-.508-.184-1.215-.386-2.12-.605-1.083-.273-1.948-.537-2.593-.788a4.224 4.224 0 0 1-1.656-1.158c-.46-.52-.69-1.224-.69-2.11 0-.725.192-1.384.577-1.98.385-.595.973-1.068 1.77-1.425.795-.356 1.783-.535 2.964-.535.824 0 1.63.113 2.418.34.79.225 1.472.536 2.048.931l-.515 1.21a7.139 7.139 0 0 0-1.934-.892 7.274 7.274 0 0 0-2.017-.297c-1.262 0-2.214.242-2.851.727-.638.485-.957 1.11-.957 1.876 0 .574.175 1.035.524 1.383.35.349.79.614 1.318.8.53.184 1.238.386 2.131.605 1.056.259 1.91.515 2.563.77a4.199 4.199 0 0 1 1.656 1.148c.453.513.68 1.207.68 2.08 0 .725-.196 1.383-.586 1.979-.392.595-.992 1.066-1.8 1.414-.81.348-1.804.522-2.983.522a9.186 9.186 0 0 1-3.085-.51ZM64.047 46.84c1.042.876 1.564 2.078 1.564 3.608 0 1.532-.522 2.73-1.564 3.598-1.044.868-2.482 1.301-4.322 1.301h-3.87v4.53h-1.523V45.525h5.393c1.84.003 3.28.44 4.322 1.316Zm-1.09 6.243c.753-.62 1.13-1.498 1.13-2.635 0-1.162-.377-2.054-1.13-2.675-.757-.622-1.846-.932-3.272-.932h-3.83v7.177h3.83c1.426-.003 2.517-.313 3.271-.935ZM80.167 53.698c.514.61.772 1.39.772 2.348 0 1.23-.456 2.177-1.368 2.84-.911.664-2.26.996-4.044.996H68.9V45.53h6.215c1.606 0 2.851.323 3.734.965.886.642 1.328 1.55 1.328 2.727 0 .793-.196 1.466-.586 2.02-.39.552-.93.966-1.615 1.24.947.202 1.677.609 2.192 1.216Zm-9.746-6.92v5.207h4.59c1.166 0 2.064-.221 2.694-.666.631-.445.948-1.09.948-1.937s-.317-1.494-.948-1.936c-.63-.445-1.53-.666-2.695-.666h-4.59v-.003Zm8.007 11.195c.66-.437.987-1.12.987-2.05 0-1.79-1.303-2.684-3.909-2.684h-5.083v5.39h5.083c1.287 0 2.263-.218 2.922-.656Z" fill="#B6DAFF"/>
</svg>
