<svg width="76" height="57" fill="none" xmlns="http://www.w3.org/2000/svg">
    <path d="M29.978 7.238c1.324.442 2.52 1.129 3.646 1.935 2.147 1.54 4.002 3.379 5.61 5.467a43.33 43.33 0 0 1 3.176 4.763c.17.294.355.581.643 1.05.007.009.022.006.022-.005.375-3.639-1.289-8.853-5.516-12.644-2.52-2.26-5.773-3.553-8.503-3.964-1.28-.192-2.445-.192-3.363-.002-.004.002-.009.006-.009.01-.009.36.029.74.031 1.119.018 3.462-.015 6.924.003 10.386.015 3.286.022 6.574.044 9.859.002.623.514 1.14 1.14 1.151.368.007.745.018 1.127.007a1.124 1.124 0 0 0 1.089-1.112c.006-.592-.011-1.175-.01-1.758.003-.771-.004-1.545-.008-2.316l-.002-.44-.014-2.755-.013-2.649-.013-2.755c0-.126-.003-.27-.003-.424V7.006c.154.033.701.157.923.232Z" fill="#B6DAFF"/>
    <path d="M50.283 31.48c-.018-5.092.016-10.18-.002-15.271-.016-4.832-.022-9.665-.044-14.497-.003-.914-.515-1.677-1.14-1.694-.369-.011-.746-.027-1.127-.011-.603.026-1.04.753-1.045 1.635-.006.87.011 1.727.009 2.585-.002 1.135.005 2.269.009 3.404V7.63v13.272l.009 3.43-.01 4.149v1.445c-.36-.066-.789-.15-.92-.194-1.324-.442-2.52-1.13-3.646-1.936-2.147-1.54-4.001-3.378-5.609-5.466a43.33 43.33 0 0 1-3.176-4.764c-.17-.294-.355-.58-.643-1.05-.007-.008-.022-.006-.022.005-.375 3.64 1.288 8.854 5.516 12.645 2.495 2.238 6.236 3.635 8.96 4.059.011.002.022.004.033.004l.045.007v-.002c1.067.174 2.038.141 2.828-.098.004-.002.008-.008.008-.017.007-.524-.03-1.083-.033-1.638ZM11.305 42.75v13.476h-1.178L1.431 45.29v10.935H0V42.75h1.178l8.714 10.935V42.75h1.413ZM15.663 42.75h1.43v13.476h-1.43V42.75ZM24.36 43.983h-4.753V42.75h10.936v1.233h-4.755v12.243h-1.43V43.983h.002ZM33.054 42.75h1.43v13.476h-1.43V42.75ZM39.877 55.859c-.92-.32-1.633-.745-2.136-1.27l.56-1.099c.491.488 1.14.882 1.953 1.184a7.129 7.129 0 0 0 2.513.453c1.21 0 2.118-.22 2.725-.665.608-.444.91-1.016.91-1.723 0-.54-.164-.968-.493-1.29a3.321 3.321 0 0 0-1.208-.74c-.477-.173-1.14-.363-1.99-.568-1.018-.257-1.83-.504-2.435-.74a3.966 3.966 0 0 1-1.555-1.088c-.432-.488-.648-1.149-.648-1.982 0-.68.18-1.299.542-1.858.361-.559.913-1.003 1.66-1.339.748-.333 1.675-.501 2.784-.501.774 0 1.53.106 2.272.318.74.212 1.381.504 1.922.875l-.483 1.136a6.702 6.702 0 0 0-1.817-.838 6.827 6.827 0 0 0-1.894-.278c-1.184 0-2.078.227-2.677.683-.599.455-.898 1.042-.898 1.76 0 .54.164.973.492 1.3.329.327.741.576 1.238.75a23.18 23.18 0 0 0 2 .569c.992.243 1.795.484 2.407.722a3.944 3.944 0 0 1 1.555 1.078c.426.482.639 1.134.639 1.954 0 .68-.184 1.299-.55 1.858-.369.559-.932 1-1.69 1.328-.761.327-1.695.49-2.802.49a8.623 8.623 0 0 1-2.896-.48ZM60.14 43.981c.977.822 1.468 1.951 1.468 3.387 0 1.439-.49 2.563-1.469 3.379-.98.815-2.33 1.221-4.059 1.221h-3.633v4.254h-1.43V42.746h5.063c1.728.002 3.081.413 4.06 1.235Zm-1.025 5.862c.707-.583 1.062-1.408 1.062-2.475 0-1.091-.355-1.929-1.062-2.512-.71-.583-1.733-.875-3.072-.875h-3.596v6.74h3.596c1.34-.003 2.364-.295 3.072-.878ZM75.275 50.421c.483.572.725 1.306.725 2.205 0 1.156-.428 2.044-1.284 2.667-.856.623-2.123.934-3.797.934h-6.224V42.752h5.836c1.508 0 2.677.303 3.506.906.832.603 1.247 1.456 1.247 2.56 0 .745-.184 1.377-.55 1.896-.366.52-.874.908-1.517 1.165.89.19 1.574.572 2.058 1.142Zm-9.151-6.498v4.89h4.31c1.095 0 1.938-.208 2.53-.626.592-.417.89-1.023.89-1.818 0-.796-.298-1.403-.89-1.819-.592-.417-1.437-.625-2.53-.625h-4.31v-.002Zm7.519 10.513c.618-.411.927-1.052.927-1.925 0-1.681-1.225-2.52-3.671-2.52h-4.773v5.061h4.773c1.209 0 2.125-.205 2.743-.616Z" fill="#B6DAFF"/>
</svg>
