<svg width="31" height="22" fill="none" xmlns="http://www.w3.org/2000/svg">
    <path d="M22.778 1.92a11.149 11.149 0 0 1-2.292 4.247c-.772.881-1.607 1.513-2.407 1.848V2.2c0-.58-.47-1.05-1.05-1.05h-3.951c-.58 0-1.05.47-1.05 1.05v10.997c-2.03-1.167-4.386-4.335-4.553-11.02a1.053 1.053 0 0 0-1.05-1.027H2.204a1.05 1.05 0 0 0-1.05 1.077c.143 5.677 1.557 10.331 4.209 13.583 2.673 3.278 6.532 5.04 11.343 5.04h.323c.58 0 1.05-.47 1.05-1.05v-5.19a7.315 7.315 0 0 1 2.973 1.673 8.13 8.13 0 0 1 2.3 3.797c.124.447.532.77 1.013.77h4.378c.68 0 1.196-.645 1.012-1.322a15.435 15.435 0 0 0-2.64-5.353 14.484 14.484 0 0 0-3.5-3.27 14.21 14.21 0 0 0 2.999-3.29 15.061 15.061 0 0 0 2.158-5.203 1.047 1.047 0 0 0-1.026-1.262h-3.955c-.479 0-.887.321-1.013.77Z" stroke="#fff" stroke-width="1.7"/>
</svg>
