<svg width="31" height="22" fill="none" xmlns="http://www.w3.org/2000/svg">
    <path d="M22.73 1.906a11.1 11.1 0 0 1-2.281 4.228c-.747.852-1.55 1.467-2.32 1.806V2.2a1.1 1.1 0 0 0-1.1-1.1h-3.951a1.1 1.1 0 0 0-1.1 1.1v10.91C9.985 11.92 7.689 8.768 7.525 2.176a1.103 1.103 0 0 0-1.1-1.076H2.204a1.1 1.1 0 0 0-1.1 1.128c.144 5.684 1.559 10.35 4.22 13.614 2.684 3.29 6.558 5.058 11.382 5.058h.323a1.1 1.1 0 0 0 1.1-1.1v-5.124a7.272 7.272 0 0 1 2.89 1.644 8.082 8.082 0 0 1 2.284 3.773c.131.468.558.807 1.062.807h4.378c.712 0 1.253-.676 1.06-1.385a15.485 15.485 0 0 0-2.649-5.37 14.544 14.544 0 0 0-3.453-3.244 14.268 14.268 0 0 0 2.955-3.26 15.113 15.113 0 0 0 2.165-5.219A1.098 1.098 0 0 0 27.746 1.1h-3.955c-.501 0-.93.337-1.061.806Z" stroke="#195EA6" stroke-width="1.8"/>
</svg>
